<?xml version="1.0" encoding="UTF-8" standalone="no"?>
<svg
   xmlns:dc="http://purl.org/dc/elements/1.1/"
   xmlns:cc="http://creativecommons.org/ns#"
   xmlns:rdf="http://www.w3.org/1999/02/22-rdf-syntax-ns#"
   xmlns:svg="http://www.w3.org/2000/svg"
   xmlns="http://www.w3.org/2000/svg"
   xmlns:xlink="http://www.w3.org/1999/xlink"
   xmlns:sodipodi="http://sodipodi.sourceforge.net/DTD/sodipodi-0.dtd"
   xmlns:inkscape="http://www.inkscape.org/namespaces/inkscape"
   id="mapSvg"
   viewBox="0 0 1110 646"
   version="1.1"
   sodipodi:docname="map.svg"
   inkscape:version="1.0.2-2 (e86c870879, 2021-01-15)">
  <metadata
     id="metadata969">
    <rdf:RDF>
      <cc:Work
         rdf:about="">
        <dc:title />
        <dc:format>image/svg+xml</dc:format>
        <dc:type
           rdf:resource="http://purl.org/dc/dcmitype/StillImage" />
      </cc:Work>
    </rdf:RDF>
  </metadata>
  <defs
     id="defs66" />
  <sodipodi:namedview
     pagecolor="#ffffff"
     bordercolor="#666666"
     borderopacity="1"
     objecttolerance="10"
     gridtolerance="10"
     guidetolerance="10"
     inkscape:pageopacity="0"
     inkscape:pageshadow="2"
     inkscape:window-width="2560"
     inkscape:window-height="1377"
     id="namedview64"
     showgrid="false"
     inkscape:zoom="1.4116654"
     inkscape:cx="410.19594"
     inkscape:cy="261.33944"
     inkscape:window-x="-8"
     inkscape:window-y="-8"
     inkscape:window-maximized="1"
     inkscape:current-layer="mapSvg"
     inkscape:document-rotation="0" />
  <image
     sodipodi:absref="C:\dev\ZOoTR-Tutor-Next\public\images\map.png"
     xlink:href="images/map.png"
     id="map_background" />
  <path
     id="gerudo_desert"
     d="m 0,88 41,-7 10,28 245,-18 66,68 -38,42 52,27 L 244,326 151,214 36,228 0,173 Z" />
  <path
     id="lake_hylia"
     d="m 321,443 182,10 85,81 -73,111 H 341 L 277,537 Z" />
  <path
     id="hyrule_field"
     d="m 508,163 56,27 h 30 l 30,-22 137,61 -73,79 21,59 -39,46 -218,24 -16,-21 -78,-130 92,-116 z" />
  <path
     d="m 927.67148,356.6426 14.02527,19.0343 32.05776,11.01985 35.06319,-11.01985 23.0415,-15.02708 18.0325,-25.04513 -7.0126,-32.05776 -28.0506,-24.04332 -42.07579,-8.01444 -25.04513,28.05054 -18.03249,42.07581 z"
     id="great_deku_tree" />
  <path
     d="m 831.49819,344.62094 -21.0379,36.06498 10.01805,31.05596 38.06859,19.03429 59.1065,-7.01263 25.04513,-21.03791 -12.02166,-27.04873 -16.02889,-23.04152 -32.05776,-17.03069 h -32.05776 z"
     id="kokiri_village" />
  <path
     d="m 843.51986,242.43682 14.02527,51.09206 40.0722,5.00903 14.02527,-15.02708 -11.01986,-20.0361 -21.0379,-25.04513 z"
     id="forest_temple" />
  <path
     d="m 830.49639,333.60108 52.09386,2.00361 29.05235,-19.03429 -14.02527,-18.03249 -40.0722,-5.00903 -23.04152,14.02527 z"
     id="lost_woods" />
  <path
     d="m 508,163 56,27 h 30 l 30,-22 7.13718,-25.74368 -3.00541,-19.0343 -38.06859,-2.00361 -34.06137,-7.01263 -42.07582,21.0379 -11.01985,8.01444 z"
     id="castle_town" />
  <path
     d="m 556.00181,114.20578 -11.01986,-17.03069 8.01444,-27.048736 18.03249,-24.043322 20.0361,6.010831 18.03249,27.048736 -1.0018,28.050541 20.0361,16.02888 -38.06859,-2.00361 z"
     id="hyrule_castle" />
  <path
     d="m 641.15523,33.059567 -12.02166,14.025271 5.00903,19.034296 31.05596,10.01805 29.05234,-6.01083 9.01625,-15.027076 -5.00903,-23.041516 -31.05595,-6.010831 z"
     id="goron_city" />
  <path
     d="M 698.25812,32.057762 696.25451,18.032491 714.287,9.0162455 740.33394,14.025271 772.3917,46.083032 737.32852,70.126354 703.26715,55.099278 Z"
     id="death_mountain_crater" />
  <path
     d="m 703.26715,55.099278 -9.01625,15.027076 -21.0379,45.081226 35.06317,22.03971 25.04513,-18.03249 4.00722,-49.088446 z"
     id="death_mountain_pass" />
  <path
     d="m 677.92267,162.92812 32.58563,-12.75089 -2.23213,-12.92994 25.04513,-18.03249 41.64986,16.79476 5.66707,32.58563 v 17.70958 l -58.7958,1.41676 z"
     id="kakariko_vilalge" />
  <path
     d="m 774.97116,136.00956 5.66707,32.58563 19.83473,12.7509 58.08741,-17.70958 15.58443,-21.95988 -22.66826,-19.83473 -44.62814,-4.2503 z"
     id="kakariko_graveyard" />
  <path
     d="m 766.47057,242.26704 -0.70839,-36.12754 22.66826,-1.41677 12.04252,-23.37664 73.67184,-4.95869 24.79341,9.91737 4.2503,-22.66826 27.62695,-9.20898 13.45928,-9.91737 32.58562,42.50299 -8.5006,21.2515 -34.71077,7.79221 -48.17006,4.95868 -38.96107,11.33413 -50.2952,10.62575 z"
     id="zora_river" />
  <path
     d="m 1073.2005,215.34848 6.3754,-14.16767 -2.1251,-44.62813 -12.7509,-19.12635 -35.4192,7.79222 -46.04489,26.21017 -6.37545,15.58443 12.04251,26.91856 37.54433,9.91736 34.0024,-0.70838 z"
     id="zoras_domain" />
  <path
     d="m 976.15198,124.67543 23.37664,-12.04251 37.54428,7.08383 7.0839,17.70958 -14.8761,7.79222 -21.9599,5.66706 -26.91852,0.70838 -20.54312,-14.16766 z"
     id="zoras_fountain" />
</svg>
