<?xml version="1.0" encoding="UTF-8" standalone="no"?>
<svg
   xmlns:dc="http://purl.org/dc/elements/1.1/"
   xmlns:cc="http://creativecommons.org/ns#"
   xmlns:rdf="http://www.w3.org/1999/02/22-rdf-syntax-ns#"
   xmlns:svg="http://www.w3.org/2000/svg"
   xmlns="http://www.w3.org/2000/svg"
   xmlns:xlink="http://www.w3.org/1999/xlink"
   viewBox="0 0 1110 646"
   id="mapSvg"
   version="1.1">
  <metadata
     id="metadata839">
    <rdf:RDF>
      <cc:Work
         rdf:about="">
        <dc:format>image/svg+xml</dc:format>
        <dc:type
           rdf:resource="http://purl.org/dc/dcmitype/StillImage" />
        <dc:title></dc:title>
      </cc:Work>
    </rdf:RDF>
  </metadata>
  <defs
     id="defs837" />
  <image
     xlink:href="/images/map.png"
     width="1110"
     height="646"
     preserveAspectRatio="none"
     id="map" />
  <path
     id="kakariko"
     d="m 787.244,100.33502 74.37421,23.85588 6.31479,45.60682 -153.65993,35.08218 -91.91529,-39.29204 23.15423,-33.67888 47.71176,12.62958 z" />
  <path
     id="mountain"
     d="M 611.83312,39.292035 649.02023,8.4197219 739.53224,5.6131479 811.09987,44.20354 787.244,100.33502 693.22377,144.53856 645.51201,131.90898 Z" />
  <path
     id="castle"
     d="M 481.32743,141.73198 538.8622,39.292035 h 72.97092 l 33.67889,92.616945 -23.15423,33.67888 -42.80026,32.2756 z" />
  <path
     id="forest"
     d="m 736.72566,402.74336 143.13528,60.34134 163.48296,-20.34766 20.3476,-168.39444 -142.4336,-35.78381 -161.378,24.55752 -72.97092,44.90518 z" />
  <path
     id="lake"
     d="m 481.32743,446.9469 92.61694,61.74463 -69.4627,136.82048 -158.57143,-0.70164 -72.97092,-115.77118 14.73451,-170.49937 51.21998,-56.83312 z" />
  <path
     id="field"
     d="m 423.79267,209.08976 -84.89886,92.61694 142.43362,145.2402 255.39823,-44.20354 -49.81668,-94.72187 72.97092,-44.90518 -16.83944,-45.60683 -120.68268,-51.92162 -42.80026,32.2756 -98.23009,-56.13148 z" />
  <path
     id="desert"
     d="M 0,72.269279 297.49684,88.40708 423.79267,209.08976 287.67383,358.53982 183.83059,249.08344 -2.1407861e-6,225.22756 Z" />
  <path
     id="river"
     d="m 867.933,169.79772 103.84323,-68.05941 91.91527,4.9115 41.397,44.20354 -2.8066,77.88243 -87.7054,32.97724 -93.3186,-23.15423 -161.378,24.55752 -16.83944,-45.60683 -28.76739,-12.62958 z" />
</svg>
