<?xml version="1.0" encoding="UTF-8" standalone="no"?>
<svg
   xmlns:dc="http://purl.org/dc/elements/1.1/"
   xmlns:cc="http://creativecommons.org/ns#"
   xmlns:rdf="http://www.w3.org/1999/02/22-rdf-syntax-ns#"
   xmlns:svg="http://www.w3.org/2000/svg"
   xmlns="http://www.w3.org/2000/svg"
   xmlns:sodipodi="http://sodipodi.sourceforge.net/DTD/sodipodi-0.dtd"
   xmlns:inkscape="http://www.inkscape.org/namespaces/inkscape"
   version="1.1"
   id="desert_colossus"
   viewBox="0 0 159.19 139.21933"
   sodipodi:docname="map-desert_colossus.svg"
   inkscape:version="1.0.2-2 (e86c870879, 2021-01-15)">
  <metadata
     id="metadata1467">
    <rdf:RDF>
      <cc:Work
         rdf:about="">
        <dc:format>image/svg+xml</dc:format>
        <dc:type
           rdf:resource="http://purl.org/dc/dcmitype/StillImage" />
        <dc:title />
      </cc:Work>
    </rdf:RDF>
  </metadata>
  <defs
     id="defs1465" />
  <sodipodi:namedview
     fit-margin-bottom="0"
     fit-margin-right="0"
     fit-margin-left="0"
     fit-margin-top="0"
     inkscape:document-rotation="0"
     pagecolor="#ffffff"
     bordercolor="#666666"
     borderopacity="1"
     objecttolerance="10"
     gridtolerance="10"
     guidetolerance="10"
     inkscape:pageopacity="0"
     inkscape:pageshadow="2"
     inkscape:window-width="2560"
     inkscape:window-height="1369"
     id="namedview1463"
     showgrid="false"
     inkscape:zoom="2.4077433"
     inkscape:cx="-30.861425"
     inkscape:cy="64.609665"
     inkscape:window-x="-8"
     inkscape:window-y="-8"
     inkscape:window-maximized="1"
     inkscape:current-layer="desert_colossus" />
  <path
     style="fill:#d7ac76;fill-opacity:1;stroke:none;stroke-width:1;stroke-linecap:butt;stroke-linejoin:miter;stroke-opacity:1"
     d="M 5.000432,98.9777 V 35.2491 c 0,0 2.349438,-30.249065 22.319668,-30.249065 19.9703,0 29.9554,3.524165 29.9554,17.327165 0.2937,7.6357 13.2156,15.565 16.1524,15.2713 2.9368,-0.2936 4.9926,-8.5167 10.5725,-8.5167 h 32.8926 c 0,0 16.152,21.4387 23.2,21.4387 7.049,0 5.874,-8.8104 14.097,-11.1599 0,0 0,33.4772 0,39.9406 -7.342,-3.6006 -7.048,-7.9294 -12.041,-8.5168 -4.992,-0.5873 -20.851,3.5242 -28.781,14.0967 -7.929,10.5725 -13.2151,49.3379 -33.7728,49.3379 -20.5576,0 -41.7026,-29.3677 -41.7026,-29.3677 H 14.3982 c 0,0 -2.34944,-6.1673 -9.397768,-5.8736 z"
     class="floor"
     id="path2036" />
  <path
     id="spirit_temple"
     style="fill:#967150;fill-opacity:1;stroke:none;stroke-width:1;stroke-linecap:butt;stroke-linejoin:miter;stroke-opacity:1"
     d="M 5.000025,44.055 V 87.7523 C 19.278,86.903 18.2168,77.2445 18.2168,77.2445 v -2.6426 h 8.8106 V 57.5687 h -8.8106 c 0,-9.2899 -9.87486,-12.6391 -13.216775,-13.5137 z" />
  <path
     id="rect2044"
     style="fill:#634f3c;fill-opacity:1;stroke:none;stroke-width:7.55906;stroke-linecap:round;stroke-dashoffset:37.0394;stroke-opacity:1;stop-color:#000000"
     d="M 32.3127,59.3309 H 38.48 v 13.5093 h -6.1673 z" />
  <ellipse
     style="fill:#917c65;fill-opacity:1;stroke:none;stroke-width:7.55906;stroke-linecap:round;stroke-dashoffset:37.0394;stroke-opacity:1;stop-color:#000000"
     id="path2046"
     cx="86.05619"
     cy="56.247242"
     rx="5.8736057"
     ry="5.7267656" />
  <ellipse
     style="fill:#917c65;fill-opacity:1;stroke:none;stroke-width:7.55906;stroke-linecap:round;stroke-dashoffset:37.0394;stroke-opacity:1;stop-color:#000000"
     id="path2048"
     cx="61.387077"
     cy="94.71936"
     rx="14.390334"
     ry="9.54461" />
  <ellipse
     style="fill:#9e8058;fill-opacity:1;stroke:none;stroke-width:7.55906;stroke-linecap:round;stroke-dashoffset:37.0394;stroke-opacity:1;stop-color:#000000"
     id="path2050"
     cx="73.721619"
     cy="115.86435"
     rx="5.8736057"
     ry="5.4330854" />
</svg>
