<?xml version="1.0" encoding="UTF-8" standalone="no"?>
<svg
   xmlns:dc="http://purl.org/dc/elements/1.1/"
   xmlns:cc="http://creativecommons.org/ns#"
   xmlns:rdf="http://www.w3.org/1999/02/22-rdf-syntax-ns#"
   xmlns:svg="http://www.w3.org/2000/svg"
   xmlns="http://www.w3.org/2000/svg"
   xmlns:sodipodi="http://sodipodi.sourceforge.net/DTD/sodipodi-0.dtd"
   xmlns:inkscape="http://www.inkscape.org/namespaces/inkscape"
   version="1.1"
   id="svg1032"
   width="1167.1406"
   height="1010.5311"
   viewBox="0 0 1167.1406 1010.5311"
   sodipodi:docname="map-deku_tree.svg"
   inkscape:version="1.0 (4035a4fb49, 2020-05-01)">
  <metadata
     id="metadata1038">
    <rdf:RDF>
      <cc:Work
         rdf:about="">
        <dc:format>image/svg+xml</dc:format>
        <dc:type
           rdf:resource="http://purl.org/dc/dcmitype/StillImage" />
        <dc:title />
      </cc:Work>
    </rdf:RDF>
  </metadata>
  <defs
     id="defs1036" />
  <sodipodi:namedview
     inkscape:document-rotation="0"
     pagecolor="#ffffff"
     bordercolor="#666666"
     borderopacity="1"
     objecttolerance="10"
     gridtolerance="10"
     guidetolerance="10"
     inkscape:pageopacity="0"
     inkscape:pageshadow="2"
     inkscape:window-width="834"
     inkscape:window-height="696"
     id="namedview1034"
     showgrid="false"
     fit-margin-top="0"
     fit-margin-left="0"
     fit-margin-right="0"
     fit-margin-bottom="0"
     inkscape:zoom="0.53125"
     inkscape:cx="193.26231"
     inkscape:cy="275.43631"
     inkscape:window-x="1423"
     inkscape:window-y="0"
     inkscape:window-maximized="0"
     inkscape:current-layer="g1040" />
  <g
     inkscape:groupmode="layer"
     inkscape:label="Image"
     id="g1040"
     transform="translate(257.84207,117.33532)">
    <path
       inkscape:label="B2"
       id="path1758"
       style="fill:#003e00;fill-opacity:1;stroke:none;stroke-width:1px;stroke-linecap:butt;stroke-linejoin:miter;stroke-opacity:1"
       d="m 667.95782,-117.33531 -112,47.572195 v -20.0429 h -25.4121 v 30.8359 l -47.0586,19.9883 V 282.90098 l 63.0586,62.1172 h 192.9414 l 64.4707,-64.4707 V -53.099015 l -64.2344,-64.236305 z" />
    <path
       inkscape:label="B1"
       id="path1716"
       style="display:inline;fill:#006609;fill-opacity:1;stroke:none;stroke-width:1px;stroke-linecap:butt;stroke-linejoin:miter;stroke-opacity:1"
       d="m -202.35574,-112.84833 -55.48633,55.4863 v 55.0704 l 55.07032,55.0722 h 59.5625 l 16.9707,-16.9707 11.54883,10.625 -14.21094,13.9981 75.86914,75.86911 -17.30273,16.6367 v 157.06254 l 63.88867,82.5235 h 75.20312 l 11.97852,27.9511 v 89.8438 h 19.9668 v 16.6387 H 42.13645 v 39.9296 H 1.54075 v 142.42 h 40.5957 v 39.9316 h 142.41992 v -39.9316 h 39.93164 v -30.6133 h 7.98633 v -28.6172 h 17.30273 v 27.9512 h 47.25004 v 47.2519 h 357.38083 15.3067 l 32.6113,-45.2558 v -37.9336 h 7.3203 v -35.2715 h 16.6367 v 33.9414 h 13.3105 l 18.6348,47.25 h 127.7773 l 23.293,-58.5645 v -66.5507 l -25.2891,-63.8907 h -23.2929 l -7.1133,-12.3222 v -33.959 h -18.8242 v -18.8223 h 18.3535 v -78.5898 l 31.5293,-31.5293 v -78.11724 l 14.1172,-35.7637 -13.1758,-32 v -79.0605 l -28.2344,-28.23441 h -23.2949 v -20.9414 l -12.4707,-12.4707 h -223.5293 l -38.1171,38.11721 v 23.5293 h -21.6485 l -33.8808,33.8828 v 46.1172 l -17.8829,6.5898 0.3965,21.416 H 375.55831 v -25.955 h -61.8926 L 215.16965,168.91148 129.98411,89.05018 10.85715,73.07747 -8.44167,91.71228 -84.31082,16.50907 l -13.74609,13.5411 -12.14648,-12.1465 19.36328,-19.3633 v -54.6953 l -56.69336,-56.6934 z m 577.91405,333.66991 h 111.64263 l 0.2852,15.4317 16.9414,8.4707 v 46.11724 l 95.0586,95.0605 h 79.0585 v 48 h 111.0586 19.7656 v 18.8223 h -19.7656 v 38.8652 l -7.75,7.75 h -23.625 l -18.6348,47.584 h -13.3105 v 36.6035 h -16.6367 v -36.6035 h -31.9453 l -23.293,-11.3144 H 297.02711 v 63.8906 h -47.25004 v 28.6172 h -17.30273 v -30.6153 h -7.98633 v -30.6133 h -39.93164 v -39.9296 H 125.3259 v -16.6387 h 19.30078 v -89.0234 l 10.64649,-29.4375 36.60351,-22.627 24.625,-37.2695 v -76.53324 l 93.17193,-11.9805 h 65.8847 z" />
    <circle
       style="display:inline;fill:#ffffff;stroke-width:3.4;stop-color:#000000"
       id="path1622-8"
       cx="585.45203"
       cy="210.19409"
       r="47.058823"
       inkscape:label="B1Web" />
    <circle
       style="fill:#000000;stroke-width:3.6125;stop-color:#000000"
       id="path1658-5"
       cx="-872.27557"
       cy="106.66467"
       r="10"
       transform="scale(-1,1)"
       inkscape:label="check:DekuTreeBasementChest" />
    <circle
       inkscape:label="check:DekuTreeGSBasementVines"
       transform="scale(-1,1)"
       r="10"
       cy="200.66467"
       cx="-882.27551"
       id="path1658-5-5"
       style="fill:#ffffff;stroke-width:3.6125;stop-color:#000000" />
    <circle
       style="fill:#ffffff;stroke-width:3.6125;stop-color:#000000"
       id="circle1783"
       cx="-767.45197"
       cy="48.194084"
       r="10"
       transform="scale(-1,1)"
       inkscape:label="check:DekuTreeGSBasementGate" />
    <circle
       inkscape:label="check:DekuTreeGSBasementGate"
       transform="scale(-1,1)"
       r="10"
       cy="40.664677"
       cx="173.7245"
       id="circle1785"
       style="fill:#ffffff;stroke-width:3.6125;stop-color:#000000" />
    <path
       inkscape:label="1F"
       id="path1613-0"
       style="display:inline;fill:#009700;fill-opacity:1;stroke:none;stroke-width:5.91496;stroke-linecap:round;stroke-linejoin:bevel;stop-color:#000000"
       d="m 703.44727,15.972656 a 196.32611,196.32611 0 0 0 -196.3242,196.326144 196.32611,196.32611 0 0 0 143.875,189.1914 l 13.8613,153.3965 63.0586,-0.9414 14.209,-149.168 A 196.32611,196.32611 0 0 0 899.77347,212.2988 196.32611,196.32611 0 0 0 703.44727,15.972656 Z" />
    <circle
       inkscape:label="1FWeb"
       r="47.058823"
       cy="225.84113"
       cx="700.27557"
       id="path1622"
       style="display:inline;fill:#ffffff;stroke-width:3.4;stop-color:#000000" />
    <path
       inkscape:label="2F"
       id="path1613-3-9"
       style="display:inline;fill:#00c200;fill-opacity:1;stroke:none;stroke-width:5.91496;stroke-linecap:round;stroke-linejoin:bevel;stop-color:#000000"
       d="m 702.45285,13.57484 a 196.32611,196.32611 0 0 0 -196.32617,196.32617 196.32611,196.32611 0 0 0 17.39844,80.80078 l -35.66016,65.08203 21.47266,22.13477 -13.25586,12.43554 -25.15821,-25.1582 -59.29492,9.41211 -110.11718,113.88281 -9.41211,57.41016 25.10937,25.10937 -10.99609,10.31446 -11.31055,-12.05664 -47.95117,44.98437 -16.02735,-15.64453 -55.52929,9.41211 -80,80 -11.29492,45.17578 164.70703,159.99995 47.05859,-50.82417 -42.35351,-63.05859 46.11718,-46.11719 10.35352,-57.41211 -21.77539,-21.25586 46.10351,-43.25195 -8.13476,-8.67188 11.67578,-10.95117 25.77734,25.77734 56.47071,-12.23437 112.9414,-112 8.47071,-57.41211 -24.78711,-24.78711 12.93359,-12.13476 19.38281,19.98046 64.71289,-33.79296 A 196.32611,196.32611 0 0 0 702.45285,406.22718 196.32611,196.32611 0 0 0 898.77903,209.90101 196.32611,196.32611 0 0 0 702.45285,13.57484 Z" />
    <circle
       inkscape:label="check:DekuTreeMapChest"
       transform="scale(-1,1)"
       r="10"
       cy="325.60583"
       cx="-840.15796"
       id="path1658"
       style="fill:#000000;stroke-width:3.6125;stop-color:#000000" />
    <circle
       style="fill:#000000;stroke-width:3.6125;stop-color:#000000"
       id="path1658-3"
       cx="-148.74619"
       cy="767.37061"
       r="10"
       transform="scale(-1,1)"
       inkscape:label="check:DekuTreeSlingshotChest" />
    <circle
       inkscape:label="check:DekuTreeSlinshotRoomSideChest"
       transform="scale(-1,1)"
       r="10"
       cy="846.42938"
       cx="-254.15793"
       id="path1658-3-9"
       style="fill:#000000;stroke-width:3.6125;stop-color:#000000" />
    <path
       inkscape:label="3F"
       id="path1613"
       style="display:inline;fill:#00ff00;fill-opacity:1;stroke:none;stroke-width:5.91496;stroke-linecap:round;stroke-linejoin:bevel;stop-color:#000000"
       d="M 703.44727,15.972656 A 196.32611,196.32611 0 0 0 514.16211,160.19531 L 480.5,177.02539 v 25.32813 h -18.38281 v -54.5879 L 263.5293,94.117188 64,147.76562 V 279.5293 l 152.4707,42.82422 v 91.29296 h 93.64649 v -89.4121 l 152,-43.76368 V 225.88281 H 480.5 v 28.34375 l 35.01172,14.85156 A 196.32611,196.32611 0 0 0 703.44727,408.625 196.32611,196.32611 0 0 0 899.77344,212.29883 196.32611,196.32611 0 0 0 703.44727,15.972656 Z" />
    <circle
       style="fill:#000000;stroke-width:3.6125;stop-color:#000000"
       id="path1658-3-9-7"
       cx="-99.805"
       cy="213.95882"
       r="10"
       transform="scale(-1,1)"
       inkscape:label="check:DekuTreeCompassChest" />
    <circle
       inkscape:label="check:DekuTreeCompassRoomSideChest"
       transform="scale(-1,1)"
       r="10"
       cy="361.72351"
       cx="-263.5697"
       id="path1658-3-9-7-4"
       style="display:inline;fill:#000000;stroke-width:3.6125;stop-color:#000000" />
    <circle
       style="display:inline;fill:#ffffff;stroke-width:3.6125;stop-color:#000000"
       id="path1658-3-9-7-4-6"
       cx="-263.5697"
       cy="399.72351"
       r="10"
       transform="scale(-1,1)"
       inkscape:label="check:DekuTreeGSCompassRoom" />
  </g>
</svg>
