<?xml version="1.0" encoding="UTF-8" standalone="no"?>
<svg
   version="1.1"
   id="svg834"
   width="75.777611"
   height="205.29393"
   viewBox="0 0 75.777611 205.29393"
   sodipodi:docname="map-death_mountain_trail.svg"
   inkscape:version="1.1.2 (0a00cf5, 2022-02-04)"
   xmlns:inkscape="http://www.inkscape.org/namespaces/inkscape"
   xmlns:sodipodi="http://sodipodi.sourceforge.net/DTD/sodipodi-0.dtd"
   xmlns:xlink="http://www.w3.org/1999/xlink"
   xmlns="http://www.w3.org/2000/svg"
   xmlns:svg="http://www.w3.org/2000/svg"
   xmlns:rdf="http://www.w3.org/1999/02/22-rdf-syntax-ns#"
   xmlns:cc="http://creativecommons.org/ns#"
   xmlns:dc="http://purl.org/dc/elements/1.1/">
  <metadata
     id="metadata840">
    <rdf:RDF>
      <cc:Work
         rdf:about="">
        <dc:format>image/svg+xml</dc:format>
        <dc:type
           rdf:resource="http://purl.org/dc/dcmitype/StillImage" />
        <dc:title />
      </cc:Work>
    </rdf:RDF>
  </metadata>
  <defs
     id="defs838">
    <linearGradient
       inkscape:collect="always"
       id="linearGradient7345">
      <stop
         style="stop-color:#79603a;stop-opacity:1"
         offset="0"
         id="stop7341" />
      <stop
         style="stop-color:#564429;stop-opacity:0;"
         offset="1"
         id="stop7343" />
    </linearGradient>
    <linearGradient
       inkscape:collect="always"
       xlink:href="#linearGradient7345"
       id="linearGradient7347"
       x1="46.897869"
       y1="142.28386"
       x2="54.711514"
       y2="113.85258"
       gradientUnits="userSpaceOnUse" />
  </defs>
  <sodipodi:namedview
     fit-margin-bottom="0"
     fit-margin-right="0"
     fit-margin-left="0"
     fit-margin-top="0"
     inkscape:document-rotation="0"
     pagecolor="#ffffff"
     bordercolor="#666666"
     borderopacity="1"
     objecttolerance="10"
     gridtolerance="10"
     guidetolerance="10"
     inkscape:pageopacity="0"
     inkscape:pageshadow="2"
     inkscape:window-width="925"
     inkscape:window-height="743"
     id="namedview836"
     showgrid="false"
     inkscape:zoom="2.2991453"
     inkscape:cx="45.886618"
     inkscape:cy="103.95167"
     inkscape:window-x="0"
     inkscape:window-y="25"
     inkscape:window-maximized="0"
     inkscape:current-layer="g842"
     inkscape:pagecheckerboard="0" />
  <g
     transform="translate(-14.040553,-13.917969)"
     inkscape:groupmode="layer"
     inkscape:label="Image"
     id="g842"
     sodipodi:insensitive="true">
    <rect
       style="fill:#564429;fill-opacity:1;stroke:none"
       id="rect9279"
       width="5.991394"
       height="19.633947"
       x="94.193062"
       y="44.682995"
       transform="rotate(16.355079)"
       inkscape:label="GoronCity" />
    <path
       id="path1409"
       style="fill:#564429;fill-opacity:1;stroke:none;stroke-width:1px;stroke-linecap:butt;stroke-linejoin:miter;stroke-opacity:1"
       d="m 72.117188,82.818359 c -14.80214,-0.121518 -25.570192,15.651665 -24.376954,39.626951 -3.214497,1.38204 -6.765438,2.21939 -9.029296,0.64453 l -1.958985,14.78711 13.478516,1 c 1.28968,5.24179 2.939269,10.99345 5.306473,16.66998 l 13.115098,2.96236 c 0,0 29.211155,-71.955517 6.594054,-75.435071 -1.060177,-0.163104 -2.104638,-0.247451 -3.128906,-0.25586 z"
       inkscape:label="NearGoronCity"
       sodipodi:nodetypes="sccccccss" />
    <path
       id="path1409-2"
       style="fill:url(#linearGradient7347);fill-opacity:1;stroke:none;stroke-width:1px;stroke-linecap:butt;stroke-linejoin:miter;stroke-opacity:1"
       inkscape:label="DownToGoronCity"
       d="m 44.964844,113.58594 -3.332032,27.77148 13.046876,3.04492 0.01367,-0.0215 c 0.201557,-0.49825 5.128642,-12.769 9.337891,-27.4082 z"
       transform="translate(14.040553,13.917969)" />
    <path
       style="fill:#79603a;fill-opacity:1;stroke:none;stroke-width:1px;stroke-linecap:butt;stroke-linejoin:miter;stroke-opacity:1"
       d="M 55.672862,155.27509 C 56.977695,143.5316 81.769517,60.892193 88.29368,40.884758 94.817844,20.877323 78.289963,19.572491 78.289963,19.572491 v -5.654275 h -8.263941 v 6.524163 c -13.918215,0.434944 -8.698884,22.617101 -6.524163,30.446097 2.174721,7.828996 -17.39777,83.074354 -19.137547,100.907064 -1.739777,17.83271 -7.394052,17.83271 -8.698884,15.22305 -1.304833,-2.60967 8.698884,-53.49814 2.174721,-53.49814 -13.048327,0 -22.617101,36.97026 -23.052045,44.79925 -0.434944,7.829 3.04461,10.43866 3.04461,14.78811 0,4.34944 -0.869889,5.65427 -2.609666,13.04832 -1.739777,7.39406 -3.044609,26.09666 7.394052,27.40149 14.788104,0.43495 15.223049,5.65428 15.223049,5.65428 h 11.30855 C 49.583643,206.16357 28.70632,199.63941 28.70632,199.63941 c 0,0 -4.349443,-24.35688 -0.869889,-47.84387 0,0 -2.174721,46.97398 9.568773,44.36431 11.743495,-2.60966 28.271376,0 31.315985,-37.84015 z"
       id="path1407"
       sodipodi:nodetypes="cscccccsssssssccccsc"
       inkscape:label="Trail" />
    <path
       id="path1407-6"
       style="fill:#9a794b;fill-opacity:1;stroke:none;stroke-width:1px;stroke-linecap:butt;stroke-linejoin:miter;stroke-opacity:1"
       inkscape:label="AboveCavern"
       d="m 23.798828,99.601562 c -4.271789,0 -8.15881,3.994488 -11.486328,9.599608 h 13.673828 c 0.131182,-5.66204 -0.387994,-9.599608 -2.1875,-9.599608 z"
       transform="translate(14.040553,13.917969)" />
    <path
       id="rect1414"
       style="fill:#9a794b;fill-opacity:1;stroke:none;stroke-width:7.55906;stroke-linecap:round;stroke-dashoffset:37.0394;stroke-opacity:1;stop-color:#000000"
       d="m 70.025391,13.917969 v 6.52539 c -7.587247,0.237102 -9.47081,6.941714 -9.277344,14.25586 l 27.724609,5.585937 C 94.464739,20.862233 78.289062,19.572266 78.289062,19.572266 v -5.654297 z"
       inkscape:label="Biggoron" />
    <circle
       style="fill:#000000;stroke-width:0.574636"
       id="path4290"
       cx="35.207439"
       cy="119.07418"
       r="1.5"
       inkscape:label="check:DMTFreestandingPoH" />
    <circle
       style="fill:#000000;stroke-width:0.574636"
       id="path4290-9"
       cx="62.760456"
       cy="134.1937"
       inkscape:label="check:DMTChest"
       r="1.5" />
    <circle
       style="fill:#000000;stroke-width:0.574636"
       id="path4290-9-1"
       cx="71.969971"
       cy="111.46562"
       inkscape:label="check:DMTStormsGrottoChest"
       r="1.5" />
  </g>
</svg>
