<?xml version="1.0" encoding="UTF-8" standalone="no"?>
<svg
   xmlns:dc="http://purl.org/dc/elements/1.1/"
   xmlns:cc="http://creativecommons.org/ns#"
   xmlns:rdf="http://www.w3.org/1999/02/22-rdf-syntax-ns#"
   xmlns:svg="http://www.w3.org/2000/svg"
   xmlns="http://www.w3.org/2000/svg"
   xmlns:xlink="http://www.w3.org/1999/xlink"
   xmlns:sodipodi="http://sodipodi.sourceforge.net/DTD/sodipodi-0.dtd"
   xmlns:inkscape="http://www.inkscape.org/namespaces/inkscape"
   inkscape:version="1.0 (4035a4fb49, 2020-05-01)"
   sodipodi:docname="map-graveyard.svg"
   viewBox="0 0 186.79367 59.004326"
   height="59.004326"
   width="186.79367"
   id="svg3519"
   version="1.1">
  <metadata
     id="metadata3525">
    <rdf:RDF>
      <cc:Work
         rdf:about="">
        <dc:format>image/svg+xml</dc:format>
        <dc:type
           rdf:resource="http://purl.org/dc/dcmitype/StillImage" />
        <dc:title></dc:title>
      </cc:Work>
    </rdf:RDF>
  </metadata>
  <defs
     id="defs3523">
    <linearGradient
       id="linearGradient841"
       inkscape:collect="always">
      <stop
         id="stop837"
         offset="0"
         style="stop-color:#626e30;stop-opacity:1;" />
      <stop
         id="stop839"
         offset="1"
         style="stop-color:#342d1b;stop-opacity:1" />
    </linearGradient>
    <linearGradient
       gradientTransform="matrix(1.0306323,0,0,1,-4.3788708,0)"
       gradientUnits="userSpaceOnUse"
       y2="41.693771"
       x2="164.06573"
       y1="41.693771"
       x1="142.94946"
       id="linearGradient843"
       xlink:href="#linearGradient841"
       inkscape:collect="always" />
  </defs>
  <sodipodi:namedview
     fit-margin-bottom="0"
     fit-margin-right="0"
     fit-margin-left="0"
     fit-margin-top="0"
     inkscape:current-layer="g3527"
     inkscape:window-maximized="1"
     inkscape:window-y="-8"
     inkscape:window-x="892"
     inkscape:cy="23.761566"
     inkscape:cx="71.42073"
     inkscape:zoom="3.091954"
     inkscape:document-rotation="0"
     showgrid="false"
     id="namedview3521"
     inkscape:window-height="705"
     inkscape:window-width="1366"
     inkscape:pageshadow="2"
     inkscape:pageopacity="0"
     guidetolerance="10"
     gridtolerance="10"
     objecttolerance="10"
     borderopacity="1"
     bordercolor="#666666"
     pagecolor="#ffffff" />
  <g
     transform="translate(-12.343,-14.75)"
     id="g3527"
     inkscape:label="Image"
     inkscape:groupmode="layer">
    <path
       inkscape:label="Main"
       sodipodi:nodetypes="cccccccccccccccc"
       id="path4106"
       d="m 12.343,41.543253 h 7.525512 l 9.633218,-9.633218 v -17.15917 h 69.539792 l 5.719728,8.128028 H 118.609 l 6.92387,9.33218 v 19.868512 l -6.3218,8.429065 H 103.25606 L 96.031142,73.754325 H 28.899654 L 17.610727,62.465398 H 12.343 Z"
       style="opacity:1;fill:#3d4325;fill-opacity:1;stroke:none;stroke-width:1px;stroke-linecap:butt;stroke-linejoin:miter;stroke-opacity:1" />
    <path
       inkscape:label="Path"
       sodipodi:nodetypes="ccccccccccccccccccccccccccccccc"
       d="m 56.144531,25.888672 v 3.011719 H 59.90625 V 39.886719 H 42.144531 c 0,3.437009 0,14.851527 0,17.761719 h 3.462891 V 43.349609 H 59.90625 c 0,3.713082 0,22.923063 0,26.492188 4.490791,0 22.377776,0 26.34175,0 0,-3.891332 3.4e-5,-20.346597 4.7e-5,-26.492188 h 16.255863 v 7.826172 h 3.46093 3.3125 v -2.708984 h -3.3125 V 35.070312 h 3.46289 v -2.708984 h -6.92382 c 0,2.872783 9e-5,5.632677 9e-5,7.828125 H 86.248047 V 25.888672 Z m 7.074219,3.011719 H 83.085938 V 66.378906 H 63.21875 Z"
       style="fill:#919191;fill-opacity:1;stroke-width:7.55906;stroke-linecap:round;stroke-dashoffset:37.0394;stop-color:#000000"
       id="rect4108" />
    <path
       inkscape:label="Platforms"
       d="M 29.501953,14.75 V 31.609375 H 49.371094 V 14.75 Z M 125.5332,32.210938 v 19.86914 h 17.72657 v -19.86914 z"
       style="display:inline;fill:#626e30;fill-opacity:1;stroke-width:7.55906;stroke-linecap:round;stroke-dashoffset:37.0394;stop-color:#000000"
       id="rect4139" />
    <path
       inkscape:label="Shadow entrance"
       id="path4168"
       d="m 163.61418,28.297577 17.76125,-7.224913 17.76124,7.224913 v 26.641868 l -17.76124,7.224915 -17.76125,-7.224915 z"
       style="fill:#342d1b;fill-opacity:1;stroke:none;stroke-width:1px;stroke-linecap:butt;stroke-linejoin:miter;stroke-opacity:1" />
    <rect
       inkscape:label="Stairs"
       y="39.134949"
       x="142.94946"
       height="5.1176472"
       width="21.763119"
       id="rect4170"
       style="display:inline;fill:url(#linearGradient843);fill-opacity:1;stroke:none;stroke-width:7.70948;stroke-linecap:round;stroke-dashoffset:37.0394;stop-color:#000000" />
    <path
       d="m 60.640625,21.345703 v 3.234375 h 2.912109 v -3.234375 z m 5.353516,0 v 3.234375 h 2.910156 v -3.234375 z m 5.375,0 v 3.234375 h 2.910156 v -3.234375 z m 5.271484,0 v 3.234375 h 2.912109 v -3.234375 z m 5.394531,0 v 3.234375 h 2.910156 v -3.234375 z m 5.982422,7.398438 v 2.910156 h 3.234375 v -2.910156 z m 22.330082,3.486328 v 2.910156 h 3.23437 v -2.910156 z m -22.330082,1.867187 v 2.910156 h 3.234375 v -2.910156 z m -22.5,5.222656 v 2.91211 h 3.234375 v -2.91211 z m 22.5,7.140626 v 2.910156 h 3.234375 v -2.910156 z m 22.330082,1.810546 v 2.910157 h 3.23437 v -2.910157 z m -44.830082,1.736328 v 2.910157 h 3.234375 v -2.910157 z m 0,5.3125 v 2.91211 h 3.234375 v -2.91211 z m 22.5,1.78711 v 2.912109 h 3.234375 v -2.912109 z m -22.5,3.55664 v 2.910157 h 3.234375 v -2.910157 z m 22.5,1.796876 v 2.910156 h 3.234375 v -2.910156 z m 0,5.292968 v 2.91211 h 3.234375 v -2.91211 z"
       inkscape:label="Graves"
       style="fill:#6e6e6e;fill-opacity:1;stroke-width:1px;stop-color:#000000"
       id="rect845" />
    <rect
       style="fill:#6e6e6e;fill-opacity:1;stroke:#ffffff;stroke-width:0.5;stroke-miterlimit:4;stroke-dasharray:none;stroke-opacity:1;stop-color:#000000"
       id="rect845-21-4-3-3-5-2"
       width="2.9107807"
       height="3.2342007"
       x="51.832016"
       y="-91.251778"
       inkscape:label="Grave-Redead"
       transform="rotate(90)" />
    <rect
       style="fill:#6e6e6e;fill-opacity:1;stroke:#ffffff;stroke-width:0.5;stroke-miterlimit:4;stroke-dasharray:none;stroke-opacity:1;stop-color:#000000"
       id="rect845-21-4-3-3-5-2-5"
       width="2.9107807"
       height="3.2342007"
       x="44.673462"
       y="-68.751953"
       inkscape:label="Grave-Shield"
       transform="rotate(90)" />
    <rect
       style="fill:#6e6e6e;fill-opacity:1;stroke:#ffffff;stroke-width:0.5;stroke-miterlimit:4;stroke-dasharray:none;stroke-opacity:1;stop-color:#000000"
       id="rect845-21-4-3-3-5-2-4"
       width="2.9107807"
       height="3.2342007"
       x="55.329609"
       y="21.345877"
       inkscape:label="Grave-Dampe" />
    <path
       sodipodi:nodetypes="ccccc"
       d="m 114.08643,37.67844 6.3067,0.80855 v 6.549257 l -6.3067,0.80855 z"
       style="fill:#6e6e6e;fill-opacity:1;stroke:#ffffff;stroke-width:0.5;stroke-miterlimit:4;stroke-dasharray:none;stroke-opacity:1;stop-color:#000000"
       id="rect1057" />
  </g>
</svg>
