<?xml version="1.0" encoding="UTF-8" standalone="no"?>
<svg
   xmlns:dc="http://purl.org/dc/elements/1.1/"
   xmlns:cc="http://creativecommons.org/ns#"
   xmlns:rdf="http://www.w3.org/1999/02/22-rdf-syntax-ns#"
   xmlns:svg="http://www.w3.org/2000/svg"
   xmlns="http://www.w3.org/2000/svg"
   xmlns:sodipodi="http://sodipodi.sourceforge.net/DTD/sodipodi-0.dtd"
   xmlns:inkscape="http://www.inkscape.org/namespaces/inkscape"
   version="1.1"
   id="svg2312"
   width="233.9856"
   height="131.98277"
   viewBox="0 0 233.9856 131.98277"
   sodipodi:docname="map-castle.svg"
   inkscape:version="1.0 (4035a4fb49, 2020-05-01)">
  <metadata
     id="metadata2318">
    <rdf:RDF>
      <cc:Work
         rdf:about="">
        <dc:format>image/svg+xml</dc:format>
        <dc:type
           rdf:resource="http://purl.org/dc/dcmitype/StillImage" />
        <dc:title></dc:title>
      </cc:Work>
    </rdf:RDF>
  </metadata>
  <defs
     id="defs2316" />
  <sodipodi:namedview
     fit-margin-bottom="0"
     fit-margin-right="0"
     fit-margin-left="0"
     fit-margin-top="0"
     inkscape:document-rotation="0"
     pagecolor="#ffffff"
     bordercolor="#666666"
     borderopacity="1"
     objecttolerance="10"
     gridtolerance="10"
     guidetolerance="10"
     inkscape:pageopacity="0"
     inkscape:pageshadow="2"
     inkscape:window-width="834"
     inkscape:window-height="696"
     id="namedview2314"
     showgrid="false"
     inkscape:zoom="1.1170552"
     inkscape:cx="115.48799"
     inkscape:cy="77.290942"
     inkscape:window-x="1423"
     inkscape:window-y="0"
     inkscape:window-maximized="0"
     inkscape:current-layer="g2320" />
  <g
     transform="translate(-15.507812,-11.394175)"
     inkscape:groupmode="layer"
     inkscape:label="Image"
     id="g2320">
    <path
       style="display:inline;fill:#5d703c;fill-opacity:1;stroke:none;stroke-width:1px;stroke-linecap:butt;stroke-linejoin:miter;stroke-opacity:1"
       d="m 18.673787,49.994171 c 1.899029,16.471848 10.128155,19.953402 10.128155,19.953402 v 19.623301 c 0,0 4.431068,30.384466 12.027184,31.650486 7.596117,1.26602 36.081554,0.63301 36.081554,0.63301 0,0 27.13716,-1.15741 27.45367,-16.03314 0,0 22.7556,0.70887 21.86039,-32.413935 -0.89521,-33.122804 -7.85193,-59.481081 -59.125711,-59.481081 -51.273786,0 -48.425242,36.067957 -48.425242,36.067957 z"
       id="path2952"
       sodipodi:nodetypes="cccsccssc"
       inkscape:label="HC_Grass" />
    <path
       id="path2950"
       style="display:inline;fill:#e6e1cf;fill-opacity:1;stroke:none;stroke-width:1px;stroke-linecap:butt;stroke-linejoin:miter;stroke-opacity:1"
       inkscape:label="HC_Path"
       d="m 15.507812,17.710938 v 38.613281 h 23.88086 v 4.603515 6.660157 h 45.957031 c 3.921186,0.5334 5.97818,1.395407 11.029297,7.265625 5.85534,6.804855 7.43804,13.767953 5.69727,18.832031 -1.74078,5.064078 -9.336496,6.804683 -20.097661,6.804683 -10.761165,0 -30.859505,-0.47448 -36.714843,5.38086 -11.156796,11.1568 -6.013672,37.50586 -6.013672,37.50586 h 10.919922 c 0,-21.36408 1.899996,-27.69458 3.166015,-30.06836 1.266019,-2.37379 8.702377,-4.27343 29.908203,-4.27343 23.263106,0 41.621096,-7.91211 41.621096,-7.91211 v -8.703128 h -13.76758 c 0,-25.162136 -12.181629,-31.10182 -16.458984,-31.492188 H 93.744141 50.580078 V 56.324219 H 79.126953 V 17.710938 Z" />
    <rect
       style="display:inline;fill:#5492d2;fill-opacity:1;stroke-width:6.89701;stop-color:#000000"
       id="rect2914"
       width="56.654369"
       height="32.283497"
       x="15.508738"
       y="17.710676"
       inkscape:label="HC_Moat" />
    <rect
       style="display:inline;fill:#6e6e6e;fill-opacity:1;stroke-width:6.8;stop-color:#000000"
       id="rect2912"
       width="51.273785"
       height="32.599998"
       x="15.508738"
       y="11.394175"
       inkscape:label="HC_Castle" />
    <circle
       style="fill:#000000;stroke-width:0.315952;stop-color:#000000"
       id="path851"
       cx="123.16995"
       cy="96.90097"
       r="1"
       inkscape:label="check:HCGreatFairyReward" />
    <circle
       r="1"
       cy="106.66214"
       cx="47.158298"
       id="path851-3"
       style="fill:#ffffff;stroke-width:0.315952;stop-color:#000000"
       inkscape:label="check:HCGSTree" />
    <circle
       r="1"
       cy="52.539806"
       cx="76.909752"
       id="path851-0"
       style="fill:#ffffff;stroke-width:0.315952;stop-color:#000000"
       inkscape:label="check:HCGSStormsGrotto" />
    <circle
       r="1"
       cy="26.586407"
       cx="64.882568"
       id="path851-9"
       style="fill:#ff0000;stroke-width:0.315952;stop-color:#000000"
       inkscape:label="check:SongfromImpa" />
    <circle
       r="1"
       cy="24.054369"
       cx="62.667034"
       id="path851-7"
       style="fill:#000000;stroke-width:0.315952;stop-color:#000000"
       inkscape:label="check:HCZeldasLetter" />
    <circle
       r="1"
       cy="115.20776"
       cx="51.589367"
       id="path851-76"
       style="fill:#000000;stroke-width:0.315952;stop-color:#000000"
       inkscape:label="check:HCMalonEgg" />
    <circle
       r="39.015625"
       inkscape:label="OGC_Lava"
       cy="50.648701"
       cx="180.13278"
       id="path3631"
       style="display:inline;fill:#b54600;fill-opacity:1;stroke-width:6.16781;stop-color:#000000" />
    <path
       inkscape:label="OGC_Terrain"
       sodipodi:nodetypes="ccscscsc"
       id="path3627"
       d="m 154.12237,79.639472 c 3.2513,12.463331 14.9018,24.384768 31.15831,25.197578 6.77355,8.94109 8.94108,10.83769 17.61122,1.89661 8.67013,-8.941082 14.35992,-14.359919 14.35992,-25.739478 8.67014,-2.980366 14.08898,-4.606014 13.81803,-10.837675 -0.27094,-6.231662 -22.75912,-8.670139 -39.28657,11.921437 -7.31543,4.87696 -9.48297,6.773545 -14.08897,7.044493 -4.60601,0.270938 -15.44369,-9.482965 -23.57194,-9.482965 z"
       style="fill:#484848;fill-opacity:1;stroke:none;stroke-width:0.894274px;stroke-linecap:butt;stroke-linejoin:miter;stroke-opacity:1" />
    <circle
       r="21.133461"
       inkscape:label="OGC_Castle"
       cy="50.648701"
       cx="180.13278"
       id="path3629"
       style="fill:#858585;stroke-width:6.16781;stop-color:#000000" />
    <path
       inkscape:label="OGC_Path"
       d="m 246.78439,63.112253 c -26.01042,0 -26.28088,-0.542117 -40.36985,13.546854 -4.93155,5.424703 -6.32966,6.388829 -12.45347,9.576774 l -2.17805,-4.158725 -5.14732,2.167569 2.24093,4.656513 c -6.33989,3.412748 -11.28858,6.704678 -13.62022,11.601122 -2.70942,5.68977 -4.33567,21.94625 2.97976,41.99595 h 9.21172 c 0,0 -15.98465,-34.95244 3.25223,-47.415749 7.31542,-4.064128 17.33928,-7.585923 21.13247,-13.817584 4.606,-6.502608 6.23157,-10.567113 37.66082,-10.567113 v -7.585611 z"
       style="fill:#7b7b7b;fill-opacity:1;stroke:none;stroke-width:0.894274px;stroke-linecap:butt;stroke-linejoin:miter;stroke-opacity:1"
       id="path3634" />
    <circle
       r="1.625651"
       inkscape:label="check:OGCGreatFairyReward"
       cy="65.821442"
       cx="247.32634"
       id="path851-6"
       style="fill:#000000;stroke-width:3.04053;stop-color:#000000" />
    <circle
       r="1.625651"
       inkscape:label="check:OGCGS"
       style="fill:#ffffff;stroke-width:3.04053;stop-color:#000000"
       id="path851-0-6"
       cx="210.47827"
       cy="70.156509" />
  </g>
</svg>
