<?xml version="1.0" encoding="UTF-8" standalone="no"?>
<svg
   xmlns:dc="http://purl.org/dc/elements/1.1/"
   xmlns:cc="http://creativecommons.org/ns#"
   xmlns:rdf="http://www.w3.org/1999/02/22-rdf-syntax-ns#"
   xmlns:svg="http://www.w3.org/2000/svg"
   xmlns="http://www.w3.org/2000/svg"
   xmlns:sodipodi="http://sodipodi.sourceforge.net/DTD/sodipodi-0.dtd"
   xmlns:inkscape="http://www.inkscape.org/namespaces/inkscape"
   inkscape:version="1.0 (4035a4fb49, 2020-05-01)"
   sodipodi:docname="map-hyrule_castle.svg"
   viewBox="0 0 135 163"
   height="163"
   width="135"
   id="svg2312"
   version="1.1">
  <metadata
     id="metadata2318">
    <rdf:RDF>
      <cc:Work
         rdf:about="">
        <dc:format>image/svg+xml</dc:format>
        <dc:type
           rdf:resource="http://purl.org/dc/dcmitype/StillImage" />
      </cc:Work>
    </rdf:RDF>
  </metadata>
  <defs
     id="defs2316" />
  <sodipodi:namedview
     inkscape:current-layer="g2320"
     inkscape:window-maximized="1"
     inkscape:window-y="-8"
     inkscape:window-x="892"
     inkscape:cy="53.517409"
     inkscape:cx="76.403588"
     inkscape:zoom="1.5797546"
     showgrid="false"
     id="namedview2314"
     inkscape:window-height="705"
     inkscape:window-width="1366"
     inkscape:pageshadow="2"
     inkscape:pageopacity="0"
     guidetolerance="10"
     gridtolerance="10"
     objecttolerance="10"
     borderopacity="1"
     bordercolor="#666666"
     pagecolor="#ffffff" />
  <g
     id="g2320"
     inkscape:label="Image"
     inkscape:groupmode="layer">
    <path
       inkscape:label="Grass"
       sodipodi:nodetypes="cccsccssc"
       id="path2952"
       d="m 18.673787,49.994171 c 1.899029,16.471848 10.128155,19.953402 10.128155,19.953402 v 19.623301 c 0,0 4.431068,30.384466 12.027184,31.650486 7.596117,1.26602 36.081554,0.63301 36.081554,0.63301 0,0 27.13716,-1.15741 27.45367,-16.03314 0,0 22.7556,0.70887 21.86039,-32.413935 -0.89521,-33.122804 -7.85193,-59.481081 -59.125711,-59.481081 -51.273786,0 -48.425242,36.067957 -48.425242,36.067957 z"
       style="display:inline;fill:#5d703c;fill-opacity:1;stroke:none;stroke-width:1px;stroke-linecap:butt;stroke-linejoin:miter;stroke-opacity:1" />
    <path
       d="m 15.507812,17.710938 v 38.613281 h 23.88086 v 4.603515 6.660157 h 45.957031 c 3.921186,0.5334 5.97818,1.395407 11.029297,7.265625 5.85534,6.804855 7.43804,13.767953 5.69727,18.832031 -1.74078,5.064078 -9.336496,6.804683 -20.097661,6.804683 -10.761165,0 -30.859505,-0.47448 -36.714843,5.38086 -11.156796,11.1568 -6.013672,37.50586 -6.013672,37.50586 h 10.919922 c 0,-21.36408 1.899996,-27.69458 3.166015,-30.06836 1.266019,-2.37379 8.702377,-4.27343 29.908203,-4.27343 23.263106,0 41.621096,-7.91211 41.621096,-7.91211 v -8.703128 h -13.76758 c 0,-25.162136 -12.181629,-31.10182 -16.458984,-31.492188 H 93.744141 50.580078 V 56.324219 H 79.126953 V 17.710938 Z"
       inkscape:label="Path"
       style="display:inline;fill:#e6e1cf;fill-opacity:1;stroke:none;stroke-width:1px;stroke-linecap:butt;stroke-linejoin:miter;stroke-opacity:1"
       id="path2950" />
    <rect
       inkscape:label="Moat"
       y="17.710676"
       x="15.508738"
       height="32.283497"
       width="56.654369"
       id="rect2914"
       style="display:inline;fill:#5492d2;fill-opacity:1;stroke-width:6.89701;stop-color:#000000" />
    <rect
       inkscape:label="Castle"
       y="11.394175"
       x="15.508738"
       height="32.599998"
       width="51.273785"
       id="rect2912"
       style="display:inline;fill:#6e6e6e;fill-opacity:1;stroke-width:6.8;stop-color:#000000" />
  </g>
</svg>
