<?xml version="1.0" encoding="UTF-8" standalone="no"?>
<svg
   xmlns:dc="http://purl.org/dc/elements/1.1/"
   xmlns:cc="http://creativecommons.org/ns#"
   xmlns:rdf="http://www.w3.org/1999/02/22-rdf-syntax-ns#"
   xmlns:svg="http://www.w3.org/2000/svg"
   xmlns="http://www.w3.org/2000/svg"
   xmlns:sodipodi="http://sodipodi.sourceforge.net/DTD/sodipodi-0.dtd"
   xmlns:inkscape="http://www.inkscape.org/namespaces/inkscape"
   inkscape:version="1.0 (4035a4fb49, 2020-05-01)"
   sodipodi:docname="map-death_mountain_crater.svg"
   viewBox="0 0 201 222"
   height="222"
   width="201"
   id="svg1676"
   version="1.1">
  <metadata
     id="metadata1682">
    <rdf:RDF>
      <cc:Work
         rdf:about="">
        <dc:format>image/svg+xml</dc:format>
        <dc:type
           rdf:resource="http://purl.org/dc/dcmitype/StillImage" />
        <dc:title></dc:title>
      </cc:Work>
    </rdf:RDF>
  </metadata>
  <defs
     id="defs1680" />
  <sodipodi:namedview
     inkscape:current-layer="g1684"
     inkscape:window-maximized="1"
     inkscape:window-y="-8"
     inkscape:window-x="892"
     inkscape:cy="77.046267"
     inkscape:cx="114.01931"
     inkscape:zoom="1.7136191"
     showgrid="false"
     id="namedview1678"
     inkscape:window-height="705"
     inkscape:window-width="1366"
     inkscape:pageshadow="2"
     inkscape:pageopacity="0"
     guidetolerance="10"
     gridtolerance="10"
     objecttolerance="10"
     borderopacity="1"
     bordercolor="#666666"
     pagecolor="#ffffff" />
  <g
     id="g1684"
     inkscape:label="Image"
     inkscape:groupmode="layer">
    <path
       sodipodi:nodetypes="zccccz"
       id="path2303"
       d="m 108.54221,51.936862 c 24.26435,0.145032 60.69026,14.589006 60.69026,14.589006 0,0 26.26021,16.339687 -5.8356,95.120322 0,0 -12.25477,9.92052 -46.68482,12.25476 0,0 -95.120321,-7.58628 -78.780634,-78.78063 6.419162,-44.350579 46.346441,-43.32849 70.610794,-43.183458 z"
       style="opacity:0.998;fill:#ff2d2d;fill-opacity:1;stroke:none;stroke-width:1px;stroke-linecap:butt;stroke-linejoin:miter;stroke-opacity:1" />
    <path
       d="m 39.923828,76.882812 c -5.799279,0.09577 -11.451172,2.34375 -11.451172,2.34375 v 14.855469 c 3.713755,1.650558 4.951172,7.427739 4.951172,7.427739 H 19.394531 v 11.55273 c 0,0 18.073158,-1.93039 19.806641,4.53906 2.198869,0.36648 10.204664,12.22232 12.052734,14.99414 l -6.441406,7.09571 c 2.926943,4.22181 6.446076,7.93032 10.332031,11.18945 L 68.498047,136.17188 51.992188,120.49023 c 0,0 1.650362,-9.90362 -2.888672,-16.50585 8.085153,-22.785437 -0.703819,-27.241536 -9.179688,-27.101568 z"
       style="fill:#8e3500;fill-opacity:1;stroke:none;stroke-width:1px;stroke-linecap:butt;stroke-linejoin:miter;stroke-opacity:1"
       id="path2249" />
    <path
       id="path2251"
       d="m 50.754647,191.46468 7.221189,7.22119 17.949815,-8.04646 c 0,0 9.490706,-5.36432 18.568773,0 9.078066,5.36431 14.855016,8.66542 14.855016,8.66542 l 28.88476,-14.44238 v -16.09293 c 0,0 -1.65056,-3.71376 -7.42751,-3.71376 0,-0.82528 -1.23792,-7.01487 -5.36431,-8.66543 V 151.8513 H 99.446097 c 0,0 -10.728625,-16.50558 -20.219331,-2.88847 0,0 -13.204461,-7.42751 -11.966543,3.71375 l -5.776952,2.47584 11.553904,15.68029 v 8.66543 z"
       style="font-variation-settings:normal;display:inline;opacity:1;vector-effect:none;fill:#8e3500;fill-opacity:1;stroke:none;stroke-width:1px;stroke-linecap:butt;stroke-linejoin:miter;stroke-miterlimit:4;stroke-dasharray:none;stroke-dashoffset:0;stroke-opacity:1;stop-color:#000000;stop-opacity:1" />
    <path
       d="m 71.613281,146.53906 c -2.671981,-0.0571 -4.895105,1.26242 -4.353515,6.13672 l -5.777344,2.47656 10.111328,13.72071 15.472656,-10.41993 -7.839844,-9.49023 c 0,0 -4.177876,-2.35039 -7.613281,-2.42383 z"
       style="display:inline;fill:#752a00;fill-opacity:1;stroke:none;stroke-width:1px;stroke-linecap:butt;stroke-linejoin:miter;stroke-opacity:1"
       id="path2253-7" />
    <path
       id="path2301"
       d="m 156.80297,172.89591 h 15.26766 v -12.37918 c 0,0 -2.0632,-10.72863 -4.53903,-11.14127 -2.47584,-0.41263 -21.04461,2.0632 -11.14127,14.44238 z"
       style="fill:#8e3500;fill-opacity:1;stroke:none;stroke-width:1px;stroke-linecap:butt;stroke-linejoin:miter;stroke-opacity:1" />
    <path
       d="m 103.98438,20.632812 v 5.775391 h -3.30079 v 12.792969 h 3.30079 v 12.708984 c -0.0564,-1.81e-4 -0.10755,1.61e-4 -0.16407,0 -1.76397,-0.005 -3.59272,0.0053 -5.457029,0.0332 -0.01697,2.381173 0.539344,8.103138 5.621099,13.371094 v 18.130859 c -5.058863,2.384146 -5.570318,3.001954 -5.570318,3.001954 H 61.896484 v 4.746093 h 23.314454 v 4.951172 c 0,0 0.617451,14.648982 14.853512,16.505862 h 24.14063 l 12.17187,-13.824221 c 0,0 2.47554,-10.314453 -18.77539,-10.314453 0,0 0.17555,-5.007784 -3.30078,-5.695313 V 64.771484 l 7.57813,-11.632812 c -2.57715,-0.401652 -5.11227,-0.710015 -7.57813,-0.917969 V 39.201172 h 3.30078 V 26.408203 h -3.30078 v -5.775391 z"
       style="font-variation-settings:normal;opacity:1;vector-effect:none;fill:#8f3400;fill-opacity:1;stroke:none;stroke-width:1px;stroke-linecap:butt;stroke-linejoin:miter;stroke-miterlimit:4;stroke-dasharray:none;stroke-dashoffset:0;stroke-opacity:1;stop-color:#000000;stop-opacity:1"
       id="rect2305" />
    <ellipse
       ry="15.172566"
       rx="17.360918"
       cy="106.79153"
       cx="134.9483"
       id="path2354"
       style="font-variation-settings:normal;opacity:1;vector-effect:none;fill:#540000;fill-opacity:1;stroke:none;stroke-width:1px;stroke-linecap:butt;stroke-linejoin:miter;stroke-miterlimit:4;stroke-dasharray:none;stroke-dashoffset:0;stroke-opacity:1;stop-color:#000000;stop-opacity:1" />
    <ellipse
       ry="14.151336"
       rx="22.321178"
       cy="108.97987"
       cx="78.926521"
       id="path2356"
       style="font-variation-settings:normal;opacity:1;vector-effect:none;fill:#540000;fill-opacity:1;stroke:none;stroke-width:1px;stroke-linecap:butt;stroke-linejoin:miter;stroke-miterlimit:4;stroke-dasharray:none;stroke-dashoffset:0;stroke-opacity:1;stop-color:#000000;stop-opacity:1" />
    <rect
       y="156.39034"
       x="125.44238"
       height="4.672297"
       width="32.118885"
       id="rect2358"
       style="font-variation-settings:normal;opacity:1;vector-effect:none;fill:#a32a01;fill-opacity:1;stroke:none;stroke-width:1px;stroke-linecap:butt;stroke-linejoin:miter;stroke-miterlimit:4;stroke-dasharray:none;stroke-dashoffset:0;stroke-opacity:1;stop-color:#000000;stop-opacity:1" />
  </g>
</svg>
