<?xml version="1.0" encoding="UTF-8" standalone="no"?>
<svg
   xmlns:dc="http://purl.org/dc/elements/1.1/"
   xmlns:cc="http://creativecommons.org/ns#"
   xmlns:rdf="http://www.w3.org/1999/02/22-rdf-syntax-ns#"
   xmlns:svg="http://www.w3.org/2000/svg"
   xmlns="http://www.w3.org/2000/svg"
   xmlns:xlink="http://www.w3.org/1999/xlink"
   xmlns:sodipodi="http://sodipodi.sourceforge.net/DTD/sodipodi-0.dtd"
   xmlns:inkscape="http://www.inkscape.org/namespaces/inkscape"
   inkscape:version="1.0 (4035a4fb49, 2020-05-01)"
   sodipodi:docname="map-water_temple.svg"
   viewBox="0 0 3830 3240"
   height="3240"
   width="3830"
   id="svg833"
   version="1.1">
  <metadata
     id="metadata839">
    <rdf:RDF>
      <cc:Work
         rdf:about="">
        <dc:format>image/svg+xml</dc:format>
        <dc:type
           rdf:resource="http://purl.org/dc/dcmitype/StillImage" />
        <dc:title></dc:title>
      </cc:Work>
    </rdf:RDF>
  </metadata>
  <defs
     id="defs837" />
  <sodipodi:namedview
     inkscape:current-layer="g841"
     inkscape:window-maximized="1"
     inkscape:window-y="-8"
     inkscape:window-x="-8"
     inkscape:cy="838.40675"
     inkscape:cx="2308.5812"
     inkscape:zoom="0.29207387"
     showgrid="false"
     id="namedview835"
     inkscape:window-height="1017"
     inkscape:window-width="1920"
     inkscape:pageshadow="2"
     inkscape:pageopacity="0"
     guidetolerance="10"
     gridtolerance="10"
     objecttolerance="10"
     borderopacity="1"
     bordercolor="#666666"
     pagecolor="#ffffff" />
  <g
     id="g841"
     inkscape:label="Image"
     inkscape:groupmode="layer">
    <image
       sodipodi:absref="C:\GitHub\ZOoTR-Tutor\public\images\maps\map-water_temple.jpg"
       xlink:href="map-water_temple.jpg"
       width="3830"
       height="3240"
       preserveAspectRatio="none"
       id="image843" />
    <path
       d="m 1341.2695,369.76953 v 547.80664 h 249.5098 v 16.26367 h -24.3945 v 312.84766 h 36.3769 v 17.5469 h -93.2969 v 111.4902 l -153.7128,274.7832 v 20.3027 h -16.1934 v -19.2597 h -161.3457 v -81.3145 H 960.37305 v 225.9707 h 217.83985 v -81.7441 h 161.3457 v -19.2578 h 16.1934 v 23.0898 l 79.2871,130.7324 h -78.6817 v 11.375 h -17.2265 v -115.9804 h -128.3926 v 172.9004 h 128.3926 v -32.9532 h 17.2265 v 12.4727 h 104.7071 l 113.1816,12.7109 9.0781,153.127 v 67.1836 h 63.5508 v -67.7891 l 7.2637,-153.1269 157.3633,-47.209 28.4472,-142.8379 41.1563,-12.1055 h 47.8144 v 146.4707 h 48.4199 v -193.6797 h -96.2343 l -40.5508,-23.6054 -29.6563,-151.3106 -92.1543,-107.4258 v -113.0097 h -92.8711 v -17.5469 h 36.377 V 933.83984 h -24.8223 v -16.26367 h 251.6485 V 369.76953 Z"
       style="fill:#0000ab;fill-opacity:1;stroke-linecap:round;stroke-linejoin:bevel;stop-color:#000000"
       id="rect845" />
    <path
       d="M 307.46484,13.796875 V 254.80859 h 109.24805 v 17.58789 H 24.822266 V 1078.4941 H 416.41797 v 15.7813 h -59.91602 v 300.0644 h 11.98438 v 12.8379 H 267.48438 v 115.9825 h -96.29493 v 200.291 h 96.29493 281.60546 v -28.461 h 17.11914 v 20.543 h 68.47657 v 80.6738 H 908.16016 V 1570.6641 H 634.68555 v 80.455 h -68.47657 v 20.9747 h -17.11914 v -148.9336 -115.9825 h -60.34375 v -12.8379 h 11.55469 v -300.0644 h -59.91601 v -15.7813 h 391.5957 V 272.39648 H 440.01367 V 254.80859 H 549.56445 V 13.796875 Z"
       style="fill:#0000ab;fill-opacity:1;stroke:none;stroke-linecap:round;stroke-linejoin:bevel;stop-color:#000000"
       id="rect878" />
    <path
       d="m 2167.2598,1701.1973 v 116.0547 h -16.6914 v -52.2872 h -124.9668 v 127.9629 h 124.9668 v -53.0683 h 16.6914 v 117.2656 h 257.2129 v -255.9277 z"
       style="fill:#0000ab;fill-opacity:1;stroke:none;stroke-width:1.00512;stroke-linecap:round;stroke-linejoin:bevel;stop-color:#000000"
       id="rect913" />
    <rect
       y="2088.5129"
       x="2638.0312"
       height="32.526012"
       width="225.97023"
       id="rect921"
       style="fill:#000089;fill-opacity:1;stroke:none;stroke-width:0.456481;stroke-linecap:round;stroke-linejoin:bevel;stop-color:#000000" />
    <rect
       y="2048.5823"
       x="2127.4417"
       height="113.85977"
       width="549.20929"
       id="rect919"
       style="fill:#0000ab;fill-opacity:1;stroke:none;stroke-width:1.00702;stroke-linecap:round;stroke-linejoin:bevel;stop-color:#000000" />
    <rect
       y="1984.0872"
       x="2821.6321"
       height="144.22722"
       width="48.789028"
       id="rect923"
       style="fill:#0000ab;fill-opacity:1;stroke:none;stroke-linecap:round;stroke-linejoin:bevel;stop-color:#000000" />
    <rect
       style="fill:#0000ab;fill-opacity:1;stroke:none;stroke-width:1.13636;stroke-linecap:round;stroke-linejoin:bevel;stop-color:#000000"
       id="rect923-5"
       width="193.01624"
       height="47.077137"
       x="2821.6321"
       y="1984.0872" />
    <rect
       y="1922.8868"
       x="2967.9146"
       height="108.2774"
       width="46.733692"
       id="rect923-5-5"
       style="fill:#0000ab;fill-opacity:1;stroke:none;stroke-width:0.848006;stroke-linecap:round;stroke-linejoin:bevel;stop-color:#000000" />
    <rect
       y="1329.8665"
       x="2123.2048"
       height="192.93384"
       width="193.07364"
       id="rect961"
       style="fill:#0000ab;fill-opacity:1;stroke:none;stroke-width:1.00279;stroke-linecap:round;stroke-linejoin:bevel;stop-color:#000000" />
    <path
       d="m 3202.957,1959.2637 v 232.8183 h 48.7891 48.3613 v 72.3282 h 153.2149 v 8.1308 h 120.2597 v -63.3398 h -80.0312 v -137.3789 h -193.4434 v 73.1836 h -48.3613 v -185.7422 z"
       style="fill:#0000ab;fill-opacity:1;stroke:none;stroke-linecap:round;stroke-linejoin:bevel;stop-color:#000000"
       id="rect963" />
    <rect
       y="1660.5388"
       x="3204.6687"
       height="49.217003"
       width="149.79088"
       id="rect984"
       style="fill:#0000ab;fill-opacity:1;stroke:none;stroke-linecap:round;stroke-linejoin:bevel;stop-color:#000000" />
    <rect
       style="fill:#0000ab;fill-opacity:1;stroke:none;stroke-width:1.11747;stroke-linecap:round;stroke-linejoin:bevel;stop-color:#000000"
       id="rect984-8"
       width="47.59013"
       height="193.44421"
       x="3306.8691"
       y="1660.5388" />
    <rect
       y="1806.4779"
       x="3306.8691"
       height="47.505108"
       width="119.91772"
       id="rect984-8-8"
       style="fill:#0000ab;fill-opacity:1;stroke:none;stroke-width:0.879045;stroke-linecap:round;stroke-linejoin:bevel;stop-color:#000000" />
    <rect
       y="1766.2484"
       x="3402.8206"
       height="129.6761"
       width="125.39636"
       id="rect1031"
       style="fill:#0000ab;fill-opacity:1;stroke:none;stroke-linecap:round;stroke-linejoin:bevel;stop-color:#000000" />
    <rect
       y="1819.295"
       x="3522.6533"
       height="22.276728"
       width="29.102226"
       id="rect1033"
       style="fill:#0000ab;fill-opacity:1;stroke:none;stroke-width:1.02031;stroke-linecap:round;stroke-linejoin:bevel;stop-color:#000000" />
    <rect
       y="1702.4802"
       x="3544.48"
       height="256.35638"
       width="256.78436"
       id="rect1035"
       style="fill:#0000ab;fill-opacity:1;stroke:none;stroke-linecap:round;stroke-linejoin:bevel;stop-color:#000000" />
    <rect
       y="1661.4017"
       x="2580.166"
       height="47.209229"
       width="187.02118"
       id="rect1037"
       style="fill:#0000ab;fill-opacity:1;stroke:none;stroke-linecap:round;stroke-linejoin:bevel;stop-color:#000000" />
    <rect
       style="fill:#0000ab;fill-opacity:1;stroke:none;stroke-width:1.38828;stroke-linecap:round;stroke-linejoin:bevel;stop-color:#000000"
       id="rect1037-4"
       width="47.81448"
       height="355.88495"
       x="2580.166"
       y="1352.726" />
    <rect
       y="1116.6798"
       x="2531.7461"
       height="262.07175"
       width="144.65392"
       id="rect1054"
       style="fill:#0000ab;fill-opacity:1;stroke:none;stroke-linecap:round;stroke-linejoin:bevel;stop-color:#000000" />
    <rect
       y="1068.8654"
       x="2572.2976"
       height="52.051201"
       width="63.550884"
       id="rect1056"
       style="fill:#0000ab;fill-opacity:1;stroke:none;stroke-linecap:round;stroke-linejoin:bevel;stop-color:#000000" />
    <rect
       y="1039.8135"
       x="2591.6655"
       height="33.893806"
       width="25.420355"
       id="rect1058"
       style="fill:#0000ab;fill-opacity:1;stroke:none;stroke-linecap:round;stroke-linejoin:bevel;stop-color:#000000" />
    <rect
       y="972.63116"
       x="2411.3022"
       height="78.682045"
       width="223.33597"
       id="rect1060"
       style="fill:#0000ab;fill-opacity:1;stroke:none;stroke-width:1.00136;stroke-linecap:round;stroke-linejoin:bevel;stop-color:#000000" />
    <rect
       style="fill:#0000ab;fill-opacity:1;stroke:none;stroke-width:1.21224;stroke-linecap:round;stroke-linejoin:bevel;stop-color:#000000"
       id="rect1060-6"
       width="160.39034"
       height="160.56555"
       x="2411.3022"
       y="890.74768" />
    <rect
       y="932.07965"
       x="2170.4141"
       height="78.076805"
       width="134.36473"
       id="rect1077"
       style="fill:#0000ab;fill-opacity:1;stroke:none;stroke-linecap:round;stroke-linejoin:bevel;stop-color:#000000" />
    <rect
       y="938.73737"
       x="2292.0686"
       height="64.156128"
       width="127.10177"
       id="rect1079"
       style="fill:#0000ab;fill-opacity:1;stroke:none;stroke-linecap:round;stroke-linejoin:bevel;stop-color:#000000" />
    <rect
       y="520.41626"
       x="2475.8291"
       height="143.37126"
       width="144.22722"
       id="rect1081"
       style="fill:#0000ab;fill-opacity:1;stroke:none;stroke-linecap:round;stroke-linejoin:bevel;stop-color:#000000" />
    <rect
       y="660.36377"
       x="2535.7456"
       height="30.386148"
       width="24.394514"
       id="rect1083"
       style="fill:#0000ab;fill-opacity:1;stroke:none;stroke-linecap:round;stroke-linejoin:bevel;stop-color:#000000" />
    <rect
       y="682.19043"
       x="2523.7622"
       height="95.438187"
       width="47.505104"
       id="rect1085"
       style="fill:#0000ab;fill-opacity:1;stroke:none;stroke-linecap:round;stroke-linejoin:bevel;stop-color:#000000" />
    <rect
       style="fill:#0000ab;fill-opacity:1;stroke:none;stroke-width:1.08392;stroke-linecap:round;stroke-linejoin:bevel;stop-color:#000000"
       id="rect1085-3"
       width="112.12917"
       height="47.505108"
       x="2523.7622"
       y="730.12354" />
    <rect
       y="730.12354"
       x="2588.8142"
       height="151.93074"
       width="47.077137"
       id="rect1085-3-0"
       style="fill:#0000ab;fill-opacity:1;stroke:none;stroke-width:1.25602;stroke-linecap:round;stroke-linejoin:bevel;stop-color:#000000" />
    <rect
       style="fill:#0000ab;fill-opacity:1;stroke:none;stroke-width:1.76624;stroke-linecap:round;stroke-linejoin:bevel;stop-color:#000000"
       id="rect1085-3-0-0"
       width="250.36475"
       height="56.492558"
       x="2588.8142"
       y="825.56171" />
    <rect
       y="681.76245"
       x="2684.6804"
       height="150.21884"
       width="47.933079"
       id="rect1132"
       style="fill:#0000ab;fill-opacity:1;stroke:none;stroke-linecap:round;stroke-linejoin:bevel;stop-color:#000000" />
    <rect
       y="658.65186"
       x="2697.0916"
       height="28.674253"
       width="23.538567"
       id="rect1134"
       style="fill:#0000ab;fill-opacity:1;stroke:none;stroke-linecap:round;stroke-linejoin:bevel;stop-color:#000000" />
    <rect
       y="246.15288"
       x="2635.8914"
       height="418.06262"
       width="145.51114"
       id="rect1136"
       style="fill:#0000ab;fill-opacity:1;stroke:none;stroke-width:1.7179;stroke-linecap:round;stroke-linejoin:bevel;stop-color:#000000" />
    <rect
       y="266.19977"
       x="2777.1228"
       height="23.966539"
       width="30.386148"
       id="rect1138"
       style="fill:#0000ab;fill-opacity:1;stroke:none;stroke-linecap:round;stroke-linejoin:bevel;stop-color:#000000" />
    <rect
       y="246.08501"
       x="2798.5215"
       height="63.340141"
       width="108.2774"
       id="rect1140"
       style="fill:#0000ab;fill-opacity:1;stroke:none;stroke-linecap:round;stroke-linejoin:bevel;stop-color:#000000" />
    <rect
       y="205.85545"
       x="2895.6716"
       height="264.91586"
       width="191.73232"
       id="rect1142"
       style="fill:#0000ab;fill-opacity:1;stroke:none;stroke-linecap:round;stroke-linejoin:bevel;stop-color:#000000" />
    <rect
       y="467.77548"
       x="2979.5544"
       height="29.530201"
       width="23.538567"
       id="rect1144"
       style="fill:#0000ab;fill-opacity:1;stroke:none;stroke-linecap:round;stroke-linejoin:bevel;stop-color:#000000" />
    <rect
       y="487.46231"
       x="2895.2437"
       height="91.158447"
       width="192.58827"
       id="rect1146"
       style="fill:#0000ab;fill-opacity:1;stroke:none;stroke-linecap:round;stroke-linejoin:bevel;stop-color:#000000" />
    <rect
       y="568.34937"
       x="2830.1917"
       height="321.40842"
       width="322.26437"
       id="rect1148"
       style="fill:#0000ab;fill-opacity:1;stroke:none;stroke-width:1.34361;stroke-linecap:round;stroke-linejoin:bevel;stop-color:#000000" />
    <rect
       y="885.05005"
       x="2894.8157"
       height="142.51532"
       width="193.44421"
       id="rect1150"
       style="fill:#0000ab;fill-opacity:1;stroke:none;stroke-linecap:round;stroke-linejoin:bevel;stop-color:#000000" />
    <rect
       y="1023.7136"
       x="2979.1265"
       height="30.386148"
       width="23.966539"
       id="rect1152"
       style="fill:#0000ab;fill-opacity:1;stroke:none;stroke-linecap:round;stroke-linejoin:bevel;stop-color:#000000" />
    <rect
       y="1044.2563"
       x="2935.8718"
       height="269.62357"
       width="112.15836"
       id="rect1154"
       style="fill:#0000ab;fill-opacity:1;stroke:none;stroke-width:1.34567;stroke-linecap:round;stroke-linejoin:bevel;stop-color:#000000" />
    <rect
       y="1309.1722"
       x="2967.1433"
       height="83.882889"
       width="48.361053"
       id="rect1156"
       style="fill:#0000ab;fill-opacity:1;stroke:none;stroke-linecap:round;stroke-linejoin:bevel;stop-color:#000000" />
    <rect
       y="575.89209"
       x="3147.8872"
       height="56.590549"
       width="36.920036"
       id="rect1158"
       style="fill:#0000ab;fill-opacity:1;stroke:none;stroke-linecap:round;stroke-linejoin:bevel;stop-color:#000000" />
    <path
       sodipodi:nodetypes="ccccccccccccc"
       id="path1160"
       d="m 2822.2645,1876.2642 160.3904,83.524 25.4204,-6.0524 145.2591,-45.9988 57.4984,-203.3628 1.2105,-36.92 -52.0512,-213.652 -131.3385,-75.0506 h -74.4453 l -153.7326,138.6014 -72.0244,154.9431 0.421,29.0519 z"
       style="fill:#0000ab;fill-opacity:1;stroke:none;stroke-width:1px;stroke-linecap:butt;stroke-linejoin:miter;stroke-opacity:1" />
    <path
       d="m 356.07422,1830.873 v 95.1075 L 225.9707,1993.502 v 160.0625 l 98.4336,65.9082 v 79.6035 l -65.05274,143.7988 v 189.1641 l 49.64649,162.6308 h 224.25781 v -114.6972 l 49.64453,-177.1817 h 31.66992 v 225.9707 l 17.11914,65.9082 h 192.58789 l 31.66993,-65.9082 h 8.56054 l 16.26172,67.6192 v 112.1308 h 47.93359 V 2682.541 l -72.75585,-17.9746 v -62.4844 h -65.05079 v 63.3399 h -31.66992 v -66.7637 l -48.78906,-160.918 -61.62891,-61.6289 h -65.9082 l -99.28906,65.0528 -62.48438,255.9277 h -33.38281 l -16.26367,-68.4766 V 2441.1641 L 484.4668,2296.5078 v -80.459 l 49.64453,-223.4023 -83.02735,-65.957 v -95.8165 z"
       style="fill:#0000ab;fill-opacity:1;stroke:none;stroke-linecap:round;stroke-linejoin:bevel;stop-color:#000000"
       id="rect1162" />
    <path
       d="m 1509.4844,2419.1699 -153.127,271.7559 v 22.3945 h -16.3418 v -52.6562 h -128.9179 v 250.5722 h 128.9179 v -174.3125 h 16.3418 v 23 l 103.4981,176.127 115.6015,15.1308 14.5254,25.8223 v 127.3047 h 49.0254 192.4688 v -47.209 -16.9473 h 97.4433 v 48.0215 h -39.664 v 129.3164 h 128.6367 v -129.3164 h -40.5528 v -48.0215 h 47.8145 v -47.6445 h -47.8145 v -145.2324 h -48.4199 v 145.2324 h -97.4433 -46.6055 v 47.6445 16.9473 h -145.8633 v -82.5351 l 15.1309,-23.9883 h 51.4453 l 88.3672,-26.6309 16.9472,-19.3672 29.0508,-143.4433 40.6094,-12.1055 h 96.7812 v -46.6738 -203.293 h 274.1778 v -63.5508 h -322.4121 v 63.5508 203.293 h -47.252 l -41.9043,-24.1387 -29.6562,-153.1289 -90.1817,-105.918 z m 516.8808,386.7539 v 129.5215 h 314.1231 v -129.5215 z"
       style="fill:#0000ab;fill-opacity:1;stroke:none;stroke-linecap:round;stroke-linejoin:bevel;stop-color:#000000"
       id="rect1166" />
  </g>
</svg>
