<?xml version="1.0" encoding="utf-8"?>
<svg id="svg2727" inkscape:version="1.1.2 (0a00cf5, 2022-02-04)" sodipodi:docname="map-lake_hylia.svg" version="1.1" viewBox="0 0 151.79883 181.9082" xmlns="http://www.w3.org/2000/svg" xmlns:cc="http://creativecommons.org/ns#" xmlns:dc="http://purl.org/dc/elements/1.1/" xmlns:inkscape="http://www.inkscape.org/namespaces/inkscape" xmlns:rdf="http://www.w3.org/1999/02/22-rdf-syntax-ns#" xmlns:sodipodi="http://sodipodi.sourceforge.net/DTD/sodipodi-0.dtd">
 <metadata id="metadata2733">
  <rdf:RDF>
   <cc:Work rdf:about="">
    <dc:format>
     image/svg+xml
    </dc:format>
    <dc:type rdf:resource="http://purl.org/dc/dcmitype/StillImage"/>
    <dc:title/>
   </cc:Work>
  </rdf:RDF>
 </metadata>
 <defs id="defs2731">
  <marker id="Arrow2Mstart" inkscape:isstock="true" inkscape:stockid="Arrow2Mstart" orient="auto" refX="0.0" refY="0.0" style="overflow:visible">
   <path d="M 8.7185878,4.0337352 L -2.2072895,0.016013256 L 8.7185884,-4.0017078 C 6.9730900,-1.6296469 6.9831476,1.6157441 8.7185878,4.0337352 z " id="path2201" style="stroke:context-stroke;fill-rule:evenodd;fill:context-stroke;stroke-width:0.62500000;stroke-linejoin:round" transform="scale(0.6) translate(0,0)"/>
  </marker>
  <marker id="Arrow2Lstart" inkscape:isstock="true" inkscape:stockid="Arrow2Lstart" orient="auto" refX="0.0" refY="0.0" style="overflow:visible">
   <path d="M 8.7185878,4.0337352 L -2.2072895,0.016013256 L 8.7185884,-4.0017078 C 6.9730900,-1.6296469 6.9831476,1.6157441 8.7185878,4.0337352 z " id="path2195" style="stroke:context-stroke;fill-rule:evenodd;fill:context-stroke;stroke-width:0.62500000;stroke-linejoin:round" transform="scale(1.1) translate(1,0)"/>
  </marker>
  <marker id="Arrow1Mstart" inkscape:isstock="true" inkscape:stockid="Arrow1Mstart" orient="auto" refX="0.0" refY="0.0" style="overflow:visible">
   <path d="M 0.0,0.0 L 5.0,-5.0 L -12.5,0.0 L 5.0,5.0 L 0.0,0.0 z " id="path2183" style="fill-rule:evenodd;fill:context-stroke;stroke:context-stroke;stroke-width:1.0pt" transform="scale(0.4) translate(10,0)"/>
  </marker>
  <marker id="Arrow1Lstart" inkscape:isstock="true" inkscape:stockid="Arrow1Lstart" orient="auto" refX="0.0" refY="0.0" style="overflow:visible">
   <path d="M 0.0,0.0 L 5.0,-5.0 L -12.5,0.0 L 5.0,5.0 L 0.0,0.0 z " id="path2177" style="fill-rule:evenodd;fill:context-stroke;stroke:context-stroke;stroke-width:1.0pt" transform="scale(0.8) translate(12.5,0)"/>
  </marker>
 </defs>
 <sodipodi:namedview bordercolor="#666666" borderopacity="1" fit-margin-bottom="0" fit-margin-left="0" fit-margin-right="0" fit-margin-top="0" gridtolerance="10" guidetolerance="10" id="namedview2729" inkscape:current-layer="g2735" inkscape:cx="41.714564" inkscape:cy="103.65437" inkscape:document-rotation="0" inkscape:pagecheckerboard="0" inkscape:pageopacity="0" inkscape:pageshadow="2" inkscape:window-height="743" inkscape:window-maximized="0" inkscape:window-width="1000" inkscape:window-x="0" inkscape:window-y="25" inkscape:zoom="2.3732718" objecttolerance="10" pagecolor="#ffffff" showgrid="false"/>
 <g id="Image" inkscape:groupmode="layer" inkscape:label="Image" transform="translate(-15.589844,-18.957031)">
  <path d="M 67.359375,18.957031 60.904297,34.285156 60.501953,47.998047 42.455078,72.568359 C 32.789557,52.153037 15.589844,61.097656 15.589844,61.097656 l 1.685547,9.269532 c 9.447961,-2.952488 14.296504,4.670086 16.783203,13.630859 l -7.035156,9.578125 -8.46875,28.636718 v 22.18555 l 14.923828,34.2832 46.384765,22.18359 h 26.216799 l 39.125,-12.50195 22.18359,-45.98242 V 132.29688 L 135.52344,100.43359 V 79.458984 L 121.00391,68.166016 77.039062,52.03125 72.199219,33.880859 79.458984,18.957031 Z" id="Water" inkscape:label="Water" style="display:inline;opacity:1;fill:#544fcb;fill-opacity:1;stroke:none;stroke-width:1px;stroke-linecap:butt;stroke-linejoin:miter;stroke-opacity:1"/>
  <path d="M 43.158203,91.558594 V 138.75 h 4.839844 V 91.558594 Z m 4.839844,50.384766 -2.078125,4.37109 42.615234,20.26953 2.080078,-4.37109 z" id="Pathways" inkscape:label="Pathways" style="display:inline;fill:#b5a57d;fill-opacity:1;stroke-linecap:round;stop-color:#000000"/>
  <rect height="12.907063" id="Grave" inkscape:label="Grave" style="display:inline;fill:#28c26f;fill-opacity:1;stroke-linecap:round;stop-color:#000000" width="12.907063" x="41.141262" y="135.12082"/>
  <ellipse cx="-133.14812" cy="133.65758" id="Water_Temple" inkscape:label="Water Temple" rx="11.797862" ry="13.612918" style="fill:#28c26f;fill-opacity:1;stroke-linecap:round;stop-color:#000000" transform="rotate(-73.469281)"/>
  <rect height="8.6719332" id="Fire_Arrows" inkscape:label="Fire Arrows" style="fill:#28c26f;fill-opacity:1;stroke-linecap:round;stop-color:#000000" width="8.6719332" x="118.78532" y="160.73328"/>
  <path d="m 125.28906,160.73242 v 2.16797 h 2.16797 v -2.16797 z m 0,6.50391 v 2.16797 h 2.16797 v -2.16797 z" id="Pillars" inkscape:label="Pillars" style="fill:#ababab;fill-opacity:1;stroke-linecap:round;stop-color:#000000"/>
  <rect height="7.3737864" id="Zora_Shortcut" inkscape:label="Zora Shortcut" style="opacity:1;fill:#c0b290;fill-opacity:1;stroke:none;stroke-width:6.897;stroke-opacity:1;stop-color:#000000" width="11.376699" x="84.482521" y="82.797089"/>
  <path d="M 67.359375,18.957031 60.904297,34.285156 60.501953,47.998047 42.455078,72.568359 c -0.561966,-1.186973 -1.151724,-2.265714 -1.759766,-3.261718 l 0.808594,5.273437 v 11.798828 h -7.478515 v -2.318359 l -0.0098,-0.0039 -6.992187,9.519531 -6.205079,20.984382 13.207032,-5.63867 V 92.277344 h 7.566406 l 1.597656,7.583984 h 20.857422 l 2.527344,-4.634766 V 92.699219 L 82.375,89.960938 127.71875,73.388672 121.00391,68.166016 77.039062,52.03125 72.199219,33.880859 79.458984,18.957031 Z m 68.164065,60.501953 c 0,0 -14.59454,8.954836 -10.31641,20.933596 4.00225,11.2063 11.50071,13.17662 20.85742,10.58203 l -10.54101,-10.54102 z" id="Shore" inkscape:label="Shore" style="display:inline;fill:#28c26f;fill-opacity:1;stroke:none;stroke-width:1px;stroke-linecap:butt;stroke-linejoin:miter;stroke-opacity:1"/>
  <path d="m 48.949219,89.126953 v 3.757813 H 47.96875 v 7.001953 h 13.707031 v -7.001953 h -7.662109 v -3.757813 z" id="Lab" inkscape:label="Lab" style="fill:#7e4fcb;fill-opacity:1;stroke:none;stroke-width:6.897;stroke-opacity:1;stop-color:#000000"/>
  <path d="m 111.34375,68.419922 -4.31836,0.984375 v 3.646484 l -6.53125,2.06836 v 8.21875 l 13.48438,-4.927735 v -3.978515 l 2,-0.789063 v -3.84375 z" id="Scarecrows" inkscape:label="Scarecrows" style="fill:#6f6121;fill-opacity:1;stroke:none;stroke-width:0.96722px;stroke-linecap:butt;stroke-linejoin:miter;stroke-opacity:1"/>
  <circle cx="71.31105" cy="110.76805" id="MagnifyCircle" inkscape:label="MagnifyCircle" r="5.7601647" style="fill:none;stroke:#000000;stroke-width:0.5;stroke-miterlimit:1.7;stroke-dasharray:none;stroke-opacity:1"/>
  <path d="m 61.926821,95.958874 6.093557,9.915396 v -0.05" id="MagnifyArrow" inkscape:label="MagnifyArrow" style="fill:none;stroke:#000000;stroke-width:0.5;stroke-linecap:butt;stroke-linejoin:miter;stroke-miterlimit:1.7;stroke-dasharray:none;stroke-opacity:1;marker-start:url(#Arrow2Mstart)"/>
  <circle cx="89.893463" cy="99.434074" id="check:LH_Underwater_Item" inkscape:label="check:LH_Underwater_Item" r="1.5" style="fill:#000000;stroke-width:0.296582"/>
  <circle cx="130.82501" cy="98.993607" id="check:LH_Child_Fishing" inkscape:label="check:LH_Child_Fishing" r="1.5" style="fill:#000000;stroke-width:0.296582"/>
  <circle cx="134.82501" cy="102.99361" id="check:LH_Adult_Fishing" inkscape:label="check:LH_Adult_Fishing" r="1.5" style="fill:#000000;stroke-width:0.296582"/>
  <circle cx="56.172371" cy="97.461891" id="check:LH_Freestanding_PoH" inkscape:label="check:LH_Freestanding_PoH" r="1.5" style="fill:#000000;stroke-width:0.296582"/>
  <circle cx="69.40818" cy="108.52719" id="check:LH_Lab_Dive" inkscape:label="check:LH_Lab_Dive" r="1.5" style="fill:#000000;stroke-width:0.296582"/>
  <circle cx="73.351311" cy="112.66453" id="check:LH_GS_Lab_Crate" inkscape:label="check:LH_GS_Lab_Crate" r="1.5" style="fill:#ffffff;stroke-width:0.296582"/>
  <circle cx="94.289139" cy="171.57158" id="check:LH_GS_Tree" inkscape:label="check:LH_GS_Tree" r="1.5" style="fill:#ffffff;stroke-width:0.296582"/>
  <circle cx="100.53235" cy="164.49127" id="check:LH_Sun" inkscape:label="check:LH_Sun" r="1.5" style="fill:#000000;stroke-width:0.296582"/>
  <circle cx="56.383045" cy="89.456062" id="check:LH_GS_Bean_Patch" inkscape:label="check:LH_GS_Bean_Patch" r="1.5" style="fill:#ffffff;stroke-width:0.296582"/>
  <circle cx="50.56266" cy="101.54344" id="check:LH_GS_Lab_Wall" inkscape:label="check:LH_GS_Lab_Wall" r="1.5" style="fill:#ffffff;stroke-width:0.296582"/>
  <circle cx="122.61509" cy="165.37936" id="check:LH_GS_Small_Island" inkscape:label="check:LH_GS_Small_Island" r="1.5" style="fill:#ffffff;stroke-width:0.296582"/>
 </g>
</svg>