<?xml version="1.0" encoding="utf-8"?>
<svg id="svg970" inkscape:version="1.0 (4035a4fb49, 2020-05-01)" sodipodi:docname="map-kakariko_village.svg" version="1.1" viewBox="0 0 186.90429 143.89072" xmlns="http://www.w3.org/2000/svg" xmlns:cc="http://creativecommons.org/ns#" xmlns:dc="http://purl.org/dc/elements/1.1/" xmlns:inkscape="http://www.inkscape.org/namespaces/inkscape" xmlns:rdf="http://www.w3.org/1999/02/22-rdf-syntax-ns#" xmlns:sodipodi="http://sodipodi.sourceforge.net/DTD/sodipodi-0.dtd">
 <metadata id="metadata976">
  <rdf:RDF>
   <cc:Work rdf:about="">
    <dc:format>
     image/svg+xml
    </dc:format>
    <dc:type rdf:resource="http://purl.org/dc/dcmitype/StillImage"/>
    <dc:title/>
   </cc:Work>
  </rdf:RDF>
 </metadata>
 <defs id="defs974">
  <filter height="1.000002" id="filter1749" inkscape:collect="always" style="color-interpolation-filters:sRGB" width="1.000003" x="-1.480999e-06" y="-1.008627e-06">
   <feGaussianBlur id="feGaussianBlur1751" inkscape:collect="always" stdDeviation="1.6846586e-05"/>
  </filter>
 </defs>
 <sodipodi:namedview bordercolor="#666666" borderopacity="1" fit-margin-bottom="0" fit-margin-left="0" fit-margin-right="0" fit-margin-top="0" gridtolerance="10" guidetolerance="10" id="namedview972" inkscape:current-layer="g978" inkscape:cx="111.68469" inkscape:cy="69.164454" inkscape:document-rotation="0" inkscape:pageopacity="0" inkscape:pageshadow="2" inkscape:snap-global="true" inkscape:window-height="705" inkscape:window-maximized="1" inkscape:window-width="1366" inkscape:window-x="892" inkscape:window-y="-8" inkscape:zoom="2" objecttolerance="10" pagecolor="#ffffff" showgrid="false"/>
 <g id="Image" inkscape:label="Image" transform="translate(-11.623047,-10.365107)">
  <path d="m 88.675781,70.992188 c -0.624726,2.83515 -1.094517,5.767655 -1.349609,8.796874 -7.748384,7.748385 -26.124086,29.073238 -55.283203,36.416018 l -20.419922,2.53515 v 12.56446 c 0,0 33.297971,6.28246 64.396484,-15.07813 l 13.613281,28.90039 H 137.90234 V 70.992188 Z" id="Level1" inkscape:label="Level1" style="fill:#1a6621;fill-opacity:1;stroke:none;stroke-width:2.3;stroke-opacity:1;stop-color:#000000"/>
  <path d="m 106.99023,34.873047 c -6.86203,8.273938 -17.947921,24.536891 -19.664058,44.916015 -1.166709,1.166709 -2.655546,2.708229 -4.304688,4.396485 h 8.902344 v -4.710938 h 43.347652 l 0.006,28.197801 c -4.36625,0 -7.59801,-4.1e-4 -12.96704,-4.1e-4 l -0.11109,13.61219 h -7.6433 v -9.76932 h -6.18245 l -15.541082,4.71169 H 76.019531 l 17.904297,38.00977 h 41.464842 c 0,0 51.83012,-9.11006 63.13867,-15.39258 v -10.99414 c 0,0 -9.73828,-0.001 -9.73828,-31.09961 0,0 -6.59513,-9.422215 -22.92968,-13.505859 C 149.5248,79.160498 145.44141,60.626953 145.44141,60.626953 h -5.02735 c 0,0 -1.25687,-6.283203 -11.62304,-6.283203 0,0 0.1503,-11.895192 -1.60352,-19.470703 z" id="Level2" inkscape:label="Level2" sodipodi:nodetypes="cccccccccccccccccccsccccc" style="display:inline;opacity:1;fill:#21822a;fill-opacity:1;stroke:none;stroke-width:2.85621;stroke-opacity:1;stop-color:#000000"/>
  <path d="m 110.89648,30.472656 c -3.8292,3.993609 -13.949388,15.567429 -19.693355,31.732422 l 16.792965,6.462891 3.17774,-8.126953 8.68945,3.255859 c 5.26718,-3.151384 9.42542,-3.57085 15.76172,-0.560547 l 5.21875,1.945313 1.67969,-4.554688 h -2.10938 c 0,0 -1.25687,-6.283203 -11.62304,-6.283203 0,0 0.12528,-9.943957 -1.19141,-17.441406 z m 32.34571,46.84375 v 9.75586 h 7.24414 v -9.75586 z m 8.92187,17.927735 v 39.515629 h 6.36524 V 95.244141 Z m -64.166013,29.201169 -6.634766,3.12696 12.560547,26.66406 32.355472,0.0195 V 138.5293 H 94.632812 Z" id="Level3" inkscape:label="Level3" style="display:inline;fill:#289f32;fill-opacity:1;stroke:none;stroke-width:2.3;stroke-opacity:1;stop-color:#000000"/>
  <path d="m 158.5293,80.044922 v 69.712888 c 6.76931,-1.39998 14.01113,-2.97835 20.67968,-4.64843 V 88.662109 c -3.421,-2.035777 -7.81364,-4.033975 -13.3496,-5.417968 -2.78982,-0.697453 -5.21431,-1.823087 -7.33008,-3.199219 z" id="Level4" inkscape:label="Level4" style="fill:#3db03a;fill-opacity:1;stroke:none;stroke-width:2.63637;stroke-linecap:round;stroke-opacity:1;stop-color:#000000"/>
  <path d="m 108.6875,10.365234 c 0,0 4.39778,9.111365 3.76953,18.535157 0,0 -4.38918,4.089105 -9.51367,11.207031 l 25.80078,10.089844 c -0.16304,-6.482336 -0.90619,-18.574513 -4.20312,-21.025391 -0.002,-0.0016 -0.004,-0.0043 -0.006,-0.0059 -0.001,-8.98e-4 -0.003,-0.0011 -0.004,-0.002 -0.14567,-0.107255 -0.29541,-0.195525 -0.45117,-0.263671 0.31412,-10.052044 -3.14063,-18.535157 -3.14063,-18.535157 z" id="TrailEntrance" inkscape:label="TrailEntrance" style="display:inline;fill:#6b613e;fill-opacity:1;stroke:none;stroke-width:1px;stroke-linecap:butt;stroke-linejoin:miter;stroke-opacity:1;filter:url(#filter1749)"/>
  <rect height="15.725374" id="HouseImpa" inkscape:label="HouseImpa" style="fill:#7e3020;fill-opacity:1;stroke:none;stroke-width:2.32476;stroke-opacity:1;stop-color:#000000" width="22.302975" x="103.97584" y="138.52974"/>
  <rect height="13.821767" id="HouseShooting" inkscape:label="HouseShooting" style="fill:#7e3020;fill-opacity:1;stroke:none;stroke-width:2.3;stroke-opacity:1;stop-color:#000000" width="14.018692" x="122.3104" y="115.28419"/>
  <rect height="15.70632" id="HouseSkulltula" inkscape:label="HouseSkulltula" style="fill:#7e3020;fill-opacity:1;stroke:none;stroke-width:2.3;stroke-opacity:1;stop-color:#000000" width="16.020447" x="92.353157" y="111.51487"/>
  <rect height="15.70632" id="House4" inkscape:label="House4" style="fill:#b1671b;fill-opacity:1;stroke:none;stroke-width:2.3;stroke-opacity:1;stop-color:#000000" transform="rotate(21.075627)" width="16.648699" x="106.10117" y="9.5295315"/>
  <rect height="15.937906" id="House3" inkscape:label="House3" style="fill:#7e3020;fill-opacity:1;stroke:none;stroke-width:2.3;stroke-opacity:1;stop-color:#000000" transform="rotate(21.505275)" width="14.442274" x="134.87047" y="-0.48743817"/>
  <rect height="15.706322" id="House2" inkscape:label="House2" style="fill:#2d307f;fill-opacity:1;stroke:none;stroke-width:2.37124;stroke-opacity:1;stop-color:#000000" transform="scale(-1,1)" width="14.690995" x="-143.24164" y="79.473984"/>
  <rect height="15.70632" id="House1" inkscape:label="House1" style="fill:#7e3020;fill-opacity:1;stroke:none;stroke-width:2.25332;stroke-opacity:1;stop-color:#000000" width="13.266264" x="115.28439" y="79.473984"/>
  <path d="m 143.48611,107.24942 -3.5765,-2.06489 0,-4.1298 3.5765,-2.064894 3.57651,2.064894 0,4.1298 z" id="Well" inkscape:flatsided="true" inkscape:label="Well" inkscape:randomized="0" inkscape:rounded="0" sodipodi:arg1="1.5707963" sodipodi:arg2="2.0943951" sodipodi:cx="143.48611" sodipodi:cy="103.11963" sodipodi:r1="4.1297927" sodipodi:r2="3.5765052" sodipodi:sides="6" sodipodi:type="star" style="fill:#4f4f7d;fill-opacity:1;stroke:#faf9f5;stroke-width:1;stroke-linecap:round;stroke-miterlimit:4;stroke-dasharray:none;stroke-opacity:1;stop-color:#000000"/>
  <rect height="0.90155548" id="WellBeam" inkscape:label="WellBeam" style="fill:#7d704f;fill-opacity:1;stroke:none;stroke-width:2.3;stroke-linecap:round;stroke-opacity:1;stop-color:#000000" transform="rotate(60)" width="8.1534081" x="156.97269" y="-74.646172"/>
  <rect height="5.340147" id="Watchtower" inkscape:label="Watchtower" style="display:inline;fill:#967531;fill-opacity:1;stroke:#faf9f5;stroke-width:0.5;stroke-linecap:round;stroke-miterlimit:4;stroke-dasharray:none;stroke-opacity:1;stop-color:#000000" width="5.340147" x="115.28439" y="74.133827"/>
  <rect height="6.2627273" id="Stairs1" inkscape:label="Stairs1" ry="0" style="display:inline;fill:#919191;fill-opacity:1;stroke:none;stroke-width:2.3;stroke-opacity:1;stop-color:#000000" transform="rotate(21.422527)" width="7.4324489" x="119.19279" y="-0.28393221"/>
  <rect height="8.9817457" id="Stairs2" inkscape:label="Stairs2" ry="0" style="display:inline;fill:#919191;fill-opacity:1;stroke:none;stroke-width:2.3;stroke-opacity:1;stop-color:#000000" transform="rotate(21.422527)" width="6.2739363" x="125.57673" y="15.525668"/>
  <rect height="2.1575055" id="Stairs3" inkscape:label="Stairs3" style="display:inline;fill:#919191;stroke:none;stroke-width:0.95521;stroke-opacity:1;stop-color:#000000" width="8.0464182" x="135.19522" y="77.316467"/>
  <rect height="4.7118959" id="Stairs4" inkscape:label="Stairs4" style="display:inline;fill:#919191;stroke:none;stroke-width:1.96463;stroke-opacity:1;stop-color:#000000" width="15.585452" x="91.92379" y="79.473976"/>
  <path d="m 129.62315,95.107355 h 5.65433 v 12.565055 l -5.65433,-4.1e-4 z" id="Stairs5" inkscape:label="Stairs5" sodipodi:nodetypes="ccccc" style="display:inline;fill:#919191;fill-opacity:1;stroke:none;stroke-width:2.30001;stroke-opacity:1;stop-color:#000000"/>
  <path d="m 114.55594,121.28419 h 7.64341 v 4.71189 h -7.6438 z" id="Stairs6" inkscape:label="Stairs6" sodipodi:nodetypes="ccccc" style="display:inline;fill:#919191;stroke:none;stroke-width:1.37586;stroke-opacity:1;stop-color:#000000"/>
  <path d="m 152.16445,118.48949 h 6.3647 v 16.27073 h -6.36503 z" id="Stairs7" inkscape:label="Stairs7" sodipodi:nodetypes="ccccc" style="display:inline;fill:#919191;stroke:none;stroke-width:2.33306;stroke-opacity:1;stop-color:#000000"/>
  <path d="m 87.998047,124.44531 -6.634766,3.12696 6.625,14.06445 6.644531,-3.10742 z" id="Stairs8" inkscape:label="Stairs8" style="display:inline;fill:#919191;fill-opacity:1;stroke:none;stroke-width:2.3;stroke-opacity:1;stop-color:#000000"/>
  <rect height="12.187086" id="Windmill" inkscape:label="Windmill" style="fill:#818181;fill-opacity:1;stroke:#faf9f5;stroke-width:1;stroke-linecap:round;stroke-miterlimit:4;stroke-dasharray:none;stroke-opacity:1;stop-color:#000000" width="14.240216" x="158.5293" y="95.244141"/>
  <path d="m 133.24805,68.611201 a 0.5,0.5 0 0 0 -0.46484,0.330078 l -3.57618,9.917969 a 0.5,0.5 0 0 0 0.30079,0.640625 0.5,0.5 0 0 0 0.63867,-0.300782 l 3.57812,-9.917968 a 0.5,0.5 0 0 0 -0.30078,-0.640625 0.5,0.5 0 0 0 -0.17578,-0.0293 z m 16.73828,8.705078 v 9.255859 h -6.74414 v 1 h 7.74414 v -3.105469 h 7.54297 v -1.009765 h -7.54297 v -6.140625 z" id="Fences" inkscape:label="Fences" style="color:#000000;font-style:normal;font-variant:normal;font-weight:normal;font-stretch:normal;font-size:medium;line-height:normal;font-family:sans-serif;font-variant-ligatures:normal;font-variant-position:normal;font-variant-caps:normal;font-variant-numeric:normal;font-variant-alternates:normal;font-variant-east-asian:normal;font-feature-settings:normal;font-variation-settings:normal;text-indent:0;text-align:start;text-decoration:none;text-decoration-line:none;text-decoration-style:solid;text-decoration-color:#000000;letter-spacing:normal;word-spacing:normal;text-transform:none;writing-mode:lr-tb;direction:ltr;text-orientation:mixed;dominant-baseline:auto;baseline-shift:baseline;text-anchor:start;white-space:normal;shape-padding:0;shape-margin:0;inline-size:0;clip-rule:nonzero;display:inline;overflow:visible;visibility:visible;opacity:1;isolation:auto;mix-blend-mode:normal;color-interpolation:sRGB;color-interpolation-filters:linearRGB;solid-color:#000000;solid-opacity:1;vector-effect:none;fill:#000000;fill-opacity:1;fill-rule:nonzero;stroke:none;stroke-width:1px;stroke-linecap:round;stroke-linejoin:miter;stroke-miterlimit:4;stroke-dasharray:none;stroke-dashoffset:0;stroke-opacity:1;color-rendering:auto;image-rendering:auto;shape-rendering:auto;text-rendering:auto;enable-background:accumulate;stop-color:#000000;stop-opacity:1"/>
  <path d="m 126.2793,138.0293 c -0.27614,0 -0.5,0.22386 -0.5,0.5 0,0.27614 0.22386,0.5 0.5,0.5 h 8.60937 v 15.20703 h 1 V 138.0293 Z" id="CuccoPen" inkscape:label="CuccoPen" sodipodi:nodetypes="sssccccs" style="color:#000000;font-style:normal;font-variant:normal;font-weight:normal;font-stretch:normal;font-size:medium;line-height:normal;font-family:sans-serif;font-variant-ligatures:normal;font-variant-position:normal;font-variant-caps:normal;font-variant-numeric:normal;font-variant-alternates:normal;font-variant-east-asian:normal;font-feature-settings:normal;font-variation-settings:normal;text-indent:0;text-align:start;text-decoration:none;text-decoration-line:none;text-decoration-style:solid;text-decoration-color:#000000;letter-spacing:normal;word-spacing:normal;text-transform:none;writing-mode:lr-tb;direction:ltr;text-orientation:mixed;dominant-baseline:auto;baseline-shift:baseline;text-anchor:start;white-space:normal;shape-padding:0;shape-margin:0;inline-size:0;clip-rule:nonzero;display:inline;overflow:visible;visibility:visible;opacity:1;isolation:auto;mix-blend-mode:normal;color-interpolation:sRGB;color-interpolation-filters:linearRGB;solid-color:#000000;solid-opacity:1;vector-effect:none;fill:#584d2c;fill-opacity:1;fill-rule:nonzero;stroke:none;stroke-width:1px;stroke-linecap:round;stroke-linejoin:miter;stroke-miterlimit:4;stroke-dasharray:none;stroke-dashoffset:0;stroke-opacity:1;color-rendering:auto;image-rendering:auto;shape-rendering:auto;text-rendering:auto;enable-background:accumulate;stop-color:#000000;stop-opacity:1"/>
  <path d="m 126.27881,144.81227 h 5.49721 v 9.44284 h -5.49721 z" id="CuccoHutch" inkscape:label="CuccoHutch" style="fill:#a99a67;fill-opacity:1;stroke:none;stroke-width:2.3;stroke-linecap:round;stroke-opacity:1;stop-color:#000000"/>
  <circle cx="85.603119" cy="102.87863" id="check:Kak_GS_Tree" inkscape:label="check:Kak_GS_Tree" r="1" style="fill:#ffffff;stroke:none;stroke-width:0.382012;stop-color:#000000"/>
  <circle cx="97.69368" cy="128.16251" id="check:Kak_GS_Skulltula_House" inkscape:label="check:Kak_GS_Skulltula_House" r="1" style="fill:#ffffff;stroke:none;stroke-width:0.382012;stop-color:#000000"/>
  <circle cx="114.6565" cy="147.63834" id="check:Kak_GS_Above_Impas_House" inkscape:label="check:Kak_GS_Above_Impas_House" r="1" style="fill:#ffffff;stroke:none;stroke-width:0.382012;stop-color:#000000"/>
  <circle cx="129.125" cy="120.7592" id="check:Kak_GS_House_Under_Construction" inkscape:label="check:Kak_GS_House_Under_Construction" r="1" style="fill:#ffffff;stroke:none;stroke-width:0.382012;stop-color:#000000"/>
  <circle cx="117.9079" cy="72.892143" id="check:Kak_GS_Watchtower" inkscape:label="check:Kak_GS_Watchtower" r="1" style="fill:#ffffff;stroke:none;stroke-width:0.382012;stop-color:#000000"/>
  <circle cx="101.24883" cy="48.236725" id="check:Kak_GS_Guards_House" inkscape:label="check:Kak_GS_Guards_House" r="1" style="fill:#ffffff;stroke:none;stroke-width:0.382012;stop-color:#000000"/>
  <circle cx="166.48735" cy="105.85953" id="check:Song_from_Windmill" inkscape:label="check:Song_from_Windmill" r="1" style="fill:#ff0000;stroke:none;stroke-width:0.382012;stop-color:#000000"/>
  <circle cx="137.43065" cy="103.18948" id="check:Sheik_in_Kakariko" inkscape:label="check:Sheik_in_Kakariko" r="1" style="fill:#ff0000;stroke:none;stroke-width:0.382012;stop-color:#000000"/>
  <circle cx="136.80241" cy="139.62811" id="check:Kak_Anju_as_Child" inkscape:label="check:Kak_Anju_as_Child" r="1" style="fill:#000000;stroke:none;stroke-width:0.382012;stop-color:#000000"/>
  <circle cx="138.53011" cy="141.51288" id="check:Kak_Anju_as_Adult" inkscape:label="check:Kak_Anju_as_Adult" r="1" style="fill:#000000;stroke:none;stroke-width:0.382012;stop-color:#000000"/>
  <circle cx="127.37864" cy="151.56493" id="check:Kak_Impas_House_Freestanding_PoH" inkscape:label="check:Kak_Impas_House_Freestanding_PoH" r="1" style="fill:#000000;stroke:none;stroke-width:0.382012;stop-color:#000000"/>
  <circle cx="166.17323" cy="97.06398" id="check:Kak_Windmill_Freestanding_PoH" inkscape:label="check:Kak_Windmill_Freestanding_PoH" r="1" style="fill:#000000;stroke:none;stroke-width:0.382012;stop-color:#000000"/>
  <circle cx="129.89163" cy="87.011948" id="check:Kak_Man_on_Roof" inkscape:label="check:Kak_Man_on_Roof" r="1" style="fill:#000000;stroke:none;stroke-width:0.382012;stop-color:#000000"/>
  <circle cx="146.38327" cy="73.34745" id="check:Kak_Open_Grotto_Chest" inkscape:label="check:Kak_Open_Grotto_Chest" r="1" style="fill:#000000;stroke:none;stroke-width:0.382012;stop-color:#000000"/>
  <circle cx="105.86096" cy="98.163429" id="check:Kak_Redead_Grotto_Chest" inkscape:label="check:Kak_Redead_Grotto_Chest" r="1" style="fill:#000000;stroke:none;stroke-width:0.382012;stop-color:#000000"/>
  <circle cx="127.22156" cy="116.38277" id="check:Kak_Shooting_Gallery_Reward" inkscape:label="check:Kak_Shooting_Gallery_Reward" r="1" style="fill:#000000;stroke:none;stroke-width:0.382012;stop-color:#000000"/>
  <circle cx="98.083603" cy="116.64996" id="check:Kak_50_Gold_Skulltula_Reward" inkscape:label="check:Kak_50_Gold_Skulltula_Reward" r="1" style="fill:#000000;stroke:none;stroke-width:0.382012;stop-color:#000000"/>
  <circle cx="102.3039" cy="116.64996" id="check:Kak_10_Gold_Skulltula_Reward" inkscape:label="check:Kak_10_Gold_Skulltula_Reward" r="1" style="fill:#000000;stroke:none;stroke-width:0.382012;stop-color:#000000"/>
  <circle cx="103.63663" cy="120.64813" id="check:Kak_20_Gold_Skulltula_Reward" inkscape:label="check:Kak_20_Gold_Skulltula_Reward" r="1" style="fill:#000000;stroke:none;stroke-width:0.382012;stop-color:#000000"/>
  <circle cx="100.19376" cy="123.14699" id="check:Kak_30_Gold_Skulltula_Reward" inkscape:label="check:Kak_30_Gold_Skulltula_Reward" r="1" style="fill:#000000;stroke:none;stroke-width:0.382012;stop-color:#000000"/>
  <circle cx="96.806412" cy="120.70366" id="check:Kak_Redead_Grotto_Chest" inkscape:label="check:Kak_Redead_Grotto_Chest" r="1" style="fill:#000000;stroke:none;stroke-width:0.382012;stop-color:#000000"/>
 </g>
</svg>