<?xml version="1.0" encoding="UTF-8" standalone="no"?>
<svg
   xmlns:dc="http://purl.org/dc/elements/1.1/"
   xmlns:cc="http://creativecommons.org/ns#"
   xmlns:rdf="http://www.w3.org/1999/02/22-rdf-syntax-ns#"
   xmlns:svg="http://www.w3.org/2000/svg"
   xmlns="http://www.w3.org/2000/svg"
   xmlns:sodipodi="http://sodipodi.sourceforge.net/DTD/sodipodi-0.dtd"
   xmlns:inkscape="http://www.inkscape.org/namespaces/inkscape"
   inkscape:version="1.0 (4035a4fb49, 2020-05-01)"
   sodipodi:docname="map-desert_colossus.svg"
   viewBox="0 0 173 158"
   height="158"
   width="173"
   id="svg1461"
   version="1.1">
  <metadata
     id="metadata1467">
    <rdf:RDF>
      <cc:Work
         rdf:about="">
        <dc:format>image/svg+xml</dc:format>
        <dc:type
           rdf:resource="http://purl.org/dc/dcmitype/StillImage" />
        <dc:title></dc:title>
      </cc:Work>
    </rdf:RDF>
  </metadata>
  <defs
     id="defs1465" />
  <sodipodi:namedview
     inkscape:current-layer="g1469"
     inkscape:window-maximized="1"
     inkscape:window-y="-8"
     inkscape:window-x="892"
     inkscape:cy="79"
     inkscape:cx="86.5"
     inkscape:zoom="2.4077433"
     showgrid="false"
     id="namedview1463"
     inkscape:window-height="705"
     inkscape:window-width="1366"
     inkscape:pageshadow="2"
     inkscape:pageopacity="0"
     guidetolerance="10"
     gridtolerance="10"
     objecttolerance="10"
     borderopacity="1"
     bordercolor="#666666"
     pagecolor="#ffffff" />
  <g
     id="g1469"
     inkscape:label="Image"
     inkscape:groupmode="layer">
    <path
       sodipodi:nodetypes="ccscsscsccsssccc"
       id="path2036"
       d="M 11.453532,108.36803 V 44.639405 c 0,0 2.349442,-30.24907 22.319702,-30.24907 19.97026,0 29.955391,3.524163 29.955391,17.327137 0.29368,7.635688 13.215613,15.565056 16.152416,15.271376 2.936803,-0.293681 4.992565,-8.516729 10.572491,-8.516729 h 32.892188 c 0,0 16.15242,21.438662 23.20074,21.438662 7.04833,0 5.87361,-8.81041 14.09666,-11.159852 0,0 0,33.477182 0,39.940521 -7.34201,-3.600568 -7.04832,-7.929368 -12.04089,-8.516729 -4.99256,-0.58736 -20.8513,3.524164 -28.78067,14.096654 -7.92937,10.572495 -13.21561,49.338295 -33.773233,49.338295 -20.557621,0 -41.702602,-29.36803 -41.702602,-29.36803 H 20.851301 c 0,0 -2.349441,-6.16729 -9.397769,-5.87361 z"
       style="fill:#d7ac76;fill-opacity:1;stroke:none;stroke-width:1px;stroke-linecap:butt;stroke-linejoin:miter;stroke-opacity:1" />
    <path
       d="M 11.453125,53.445312 V 97.142578 C 25.731108,96.293298 24.669922,86.634766 24.669922,86.634766 v -2.642578 h 8.810547 V 66.958984 h -8.810547 c 0,-9.289841 -9.874885,-12.639076 -13.216797,-13.513672 z"
       style="fill:#967150;fill-opacity:1;stroke:none;stroke-width:1px;stroke-linecap:butt;stroke-linejoin:miter;stroke-opacity:1"
       id="path2038" />
    <rect
       y="68.721191"
       x="38.7658"
       height="13.509294"
       width="6.1672864"
       id="rect2044"
       style="fill:#634f3c;fill-opacity:1;stroke-width:7.55906;stroke-linecap:round;stroke-dashoffset:37.0394;stop-color:#000000;stroke:none;stroke-opacity:1" />
    <ellipse
       ry="5.7267656"
       rx="5.8736057"
       cy="65.637543"
       cx="92.509293"
       id="path2046"
       style="fill:#917c65;fill-opacity:1;stroke-width:7.55906;stroke-linecap:round;stroke-dashoffset:37.0394;stop-color:#000000;stroke:none;stroke-opacity:1" />
    <ellipse
       transform="rotate(23.046915)"
       ry="9.54461"
       rx="14.390334"
       cy="69.241737"
       cx="103.18281"
       id="path2048"
       style="fill:#917c65;fill-opacity:1;stroke-width:7.55906;stroke-linecap:round;stroke-dashoffset:37.0394;stop-color:#000000;stroke:none;stroke-opacity:1" />
    <ellipse
       ry="5.4330854"
       rx="5.8736057"
       cy="125.25465"
       cx="80.174721"
       id="path2050"
       style="fill:#9e8058;fill-opacity:1;stroke-width:7.55906;stroke-linecap:round;stroke-dashoffset:37.0394;stop-color:#000000;stroke:none;stroke-opacity:1" />
  </g>
</svg>
