<?xml version="1.0" encoding="UTF-8" standalone="no"?>
<svg
   xmlns:dc="http://purl.org/dc/elements/1.1/"
   xmlns:cc="http://creativecommons.org/ns#"
   xmlns:rdf="http://www.w3.org/1999/02/22-rdf-syntax-ns#"
   xmlns:svg="http://www.w3.org/2000/svg"
   xmlns="http://www.w3.org/2000/svg"
   xmlns:sodipodi="http://sodipodi.sourceforge.net/DTD/sodipodi-0.dtd"
   xmlns:inkscape="http://www.inkscape.org/namespaces/inkscape"
   version="1.1"
   id="svg2586"
   viewBox="0 0 1504.0176 2611.4609"
   sodipodi:docname="map-jabu_jabus_belly.svg"
   inkscape:version="1.0 (4035a4fb49, 2020-05-01)">
  <metadata
     id="metadata2592">
    <rdf:RDF>
      <cc:Work
         rdf:about="">
        <dc:format>image/svg+xml</dc:format>
        <dc:type
           rdf:resource="http://purl.org/dc/dcmitype/StillImage" />
        <dc:title></dc:title>
      </cc:Work>
    </rdf:RDF>
  </metadata>
  <defs
     id="defs2590" />
  <sodipodi:namedview
     inkscape:document-rotation="0"
     pagecolor="#ffffff"
     bordercolor="#666666"
     borderopacity="1"
     objecttolerance="10"
     gridtolerance="10"
     guidetolerance="10"
     inkscape:pageopacity="0"
     inkscape:pageshadow="2"
     inkscape:window-width="1366"
     inkscape:window-height="705"
     id="Image"
     showgrid="false"
     fit-margin-top="0"
     fit-margin-left="0"
     fit-margin-right="0"
     fit-margin-bottom="0"
     inkscape:zoom="0.22460417"
     inkscape:cx="748.44055"
     inkscape:cy="953.08773"
     inkscape:window-x="892"
     inkscape:window-y="-8"
     inkscape:window-maximized="1"
     inkscape:current-layer="g2594" />
  <g
     inkscape:groupmode="layer"
     inkscape:label="Image"
     id="B1"
     transform="translate(-54.306641,-7.8710938)">
    <path
       inkscape:label="B1"
       id="1F"
       style="fill:#00006d;fill-opacity:1;stroke:none;stroke-linecap:round;stroke-linejoin:bevel;stop-color:#000000"
       d="m 250.54453,973.52724 a 144.81882,144.81882 0 0 0 -144.8203,144.81836 144.81882,144.81882 0 0 0 144.8203,144.8183 144.81882,144.81882 0 0 0 140.9942,-111.7617 h 254.8945 v 72.4102 l -64.5371,80.2793 -71.6231,62.1777 -47.2246,19.6758 -39.3515,-18.1016 -44.8633,18.1016 -73.9824,62.9648 -25.9727,43.2891 -3.1484,44.0742 72.4082,85.791 46.4375,3.9336 48.7969,-21.25 70.8359,-61.3906 24.3984,-42.5 -15.7422,-43.2891 26.7618,-41.7148 74.7695,-64.5391 33.0566,-8.6562 h 37.7793 l 15.7403,-15.7422 44.8632,16.5293 h 118.8457 l 77.1309,-88.1504 v -54.7715 c 69.05117,-0.238 121.81487,-1.9741 160.28127,-1.5312 41.2362,0.4748 65.3143,4.9117 73.9921,9.5879 8.6779,4.6761 11.3678,7.5647 15.2832,31.666 2.7672,17.033 3.7544,42.4504 4.1036,76.0703 l -52.1719,27.1289 -34.6309,64.5391 v 46.4355 h -77.1328 v 97.5957 h 77.9199 v 47.2227 l 33.8438,65.3261 48.0098,23.6114 5.9414,0.5019 c 0.083,42.2123 0.45,75.6516 -4.7051,93.1113 -5.5704,18.8663 -20.5405,20.8812 -28.9121,23.4219 -8.3716,2.5406 -17.6354,8.4916 -51.9278,-0.6484 -34.2924,-9.1401 -112.5404,-39.7902 -170.95887,-61.7461 h -44.9239 l -21.7715,-51.707 -83.4804,-35.0625 -85.7071,35.0625 -11.6875,28.9394 -40.0703,7.791 -47.8613,-24.4863 h -72.3496 l -47.8613,25.043 v 92.9414 l 45.0781,26.1582 h 74.5762 l 47.8613,-24.4883 37.8457,7.2344 13.9121,30.6093 85.1504,34.5059 84.5937,-35.0625 21.8594,-52.8691 h 44.836 c 58.85327,22.1193 104.92647,41.6944 144.27337,52.1816 39.3468,10.4873 67.7633,15.7511 98.9414,6.2891 31.1781,-9.462 59.989,-38.634 69.4219,-70.5821 8.5497,-28.957 6.5202,-60.4574 6.0644,-103.0547 l 57.791,-29.2695 32.2696,-66.1133 v -188.8925 l -33.0567,-63.752 -50.8476,-26.0937 c -0.2001,-35.6249 -1.1089,-64.3 -5.1407,-89.1172 -5.5783,-34.3379 -21.876,-66.2771 -51.1738,-82.0645 -29.2978,-15.7874 -62.1837,-17.4499 -106.3926,-17.959 -41.1902,-0.4742 -93.2761,1.2789 -161.08587,1.5235 v -49.9551 l -77.918,-88.93749 h -149.541 l -41.7148,32.26949 -36.2051,54.3067 v 8.6582 H 391.89803 A 144.81882,144.81882 0 0 0 250.54453,973.52724 Z" />
    <path
       transform="translate(54.306641,7.8710938)"
       d="M 668.60742,0 620.5957,44.074219 V 194.40234 l 48.01172,48.01172 h 42.10742 v 368.34375 l -29.9082,29.90821 -170.00586,-85.00391 V 294.35938 h 38.17383 L 597.77148,245.5625 V 99.167969 L 550.54883,51.945312 H 405.72852 L 357.71875,96.021484 V 246.34961 l 48.00977,48.00977 h 40.53515 v 245.5625 H 240.05273 V 497.41992 L 192.83008,450.19727 H 48.011719 L 0,494.27148 v 150.33008 l 48.011719,48.00977 H 191.25586 l 48.79687,-48.79688 V 604.2168 l 231.39649,-1.33008 240.83984,115.54883 V 983.82227 H 594.23047 v 351.02933 h 118.05859 v 322.4316 c -37.37032,10.8065 -66.58702,40.0239 -77.39258,77.3945 H 365.98242 V 1693.75 L 334.5,1662.2676 H 233.75781 v -432.0957 h 20.46289 l 65.71875,-65.7188 V 1053.084 L 257.95898,991.10352 H 145.60547 l -66.111329,58.83198 v 114.9102 l 65.324219,65.3262 h 22.82617 v 432.0957 h -58.24219 l -28.333981,28.334 v 163.7089 l 92.871091,92.8731 h 113.33789 l 78.70508,-78.707 v -70.834 h 268.91406 c 10.80615,37.3698 40.02275,66.5865 77.39258,77.3926 v 257.8945 l -110.18945,229.8203 96.02148,248.7109 h 92.87305 l 97.5957,-250.2851 -111.76172,-228.2461 h 0.32813 v -258.4609 c 36.50164,-11.2519 64.88041,-40.1328 75.49023,-76.8262 h 285.19732 l 34.6777,9.4433 v 90.709 l 65.5234,65.5235 h 115.3028 l 140.4902,-140.4903 v -103.1054 l -68.4746,-68.4747 h -85.002 l -23.6113,-31.4824 v -207.4609 h 77.0762 l 110.1914,-110.1914 V 1088.8398 L 1393.8262,978.64844 h -213.2715 l -110.1914,110.19136 v 213.2735 l 110.1914,110.1914 h 79.5273 v 207.4609 l -17.3164,23.6133 14.168,48.7969 -37.7793,37.7793 -45.6484,-12.5938 -39.1289,18.8907 H 853.08984 c -10.265,-37.5199 -39.05434,-67.1542 -76.26172,-78.5 v -322.9004 h 118.0586 V 983.82227 H 781.55078 V 715.62109 L 1019.2422,602.88672 h 229.4277 v 44.86133 l 48.0098,48.01172 h 143.2441 l 48.7989,-48.79883 V 500.56836 L 1441.498,453.3457 h -144.8183 l -48.0098,44.07422 v 44.07617 H 1039.7051 V 289.63672 h 39.7461 L 1128.25,240.83984 V 94.447266 l -47.2246,-47.22461 H 936.20703 L 888.19727,91.298828 V 241.62695 l 48.00976,48.00977 h 38.95899 v 262.8789 L 811.45898,637.51758 778.40234,604.46094 V 242.41406 h 33.44922 l 48.79688,-48.79883 V 47.222656 L 813.42578,0 Z"
       inkscape:label="1F"
       style="display:inline;fill:#0000ff;fill-opacity:1;stroke:none;stroke-width:1px;stroke-linecap:butt;stroke-linejoin:miter;stroke-opacity:1"
       id="check:Jabu_Jabus_Belly_Boomerang_Chest" />
    <circle
       inkscape:label="check:Jabu_Jabus_Belly_Boomerang_Chest"
       r="12.5"
       cy="581.59009"
       cx="1425.4442"
       id="check:Jabu_Jabus_Belly_Map_Chest"
       style="fill:#000000;stroke-width:3.18189;stop-color:#000000" />
    <circle
       inkscape:label="check:Jabu_Jabus_Belly_Map_Chest"
       style="fill:#000000;stroke-width:3.18189;stop-color:#000000"
       id="check:Jabu_Jabus_Belly_Compass_Chest"
       cx="175.44421"
       cy="581.59009"
       r="12.5" />
    <circle
       inkscape:label="check:Jabu_Jabus_Belly_Compass_Chest"
       style="fill:#000000;stroke-width:3.18189;stop-color:#000000"
       id="check:Barinade"
       cx="532.70032"
       cy="182.05325"
       r="12.5" />
    <circle
       inkscape:label="check:Barinade"
       style="fill:#000000;stroke-width:3.18189;stop-color:#000000"
       id="check:Jabu_Jabus_Belly_Barinade_Heart"
       cx="1321.8596"
       cy="1191.3112"
       r="12.5" />
    <circle
       inkscape:label="check:Jabu_Jabus_Belly_Barinade_Heart"
       style="fill:#000000;stroke-width:3.18189;stop-color:#000000"
       id="check:Jabu_Jabus_Belly_GS_Near_Boss"
       cx="1350.1937"
       cy="1222.7935"
       r="12.5" />
    <circle
       inkscape:label="check:Jabu_Jabus_Belly_GS_Near_Boss"
       style="fill:#ffffff;stroke-width:3.18189;stop-color:#000000"
       id="check:Jabu_Jabus_Belly_GS_Water_Switch_Room"
       cx="1458.4196"
       cy="1843.2922"
       r="12.5" />
    <circle
       inkscape:label="check:Jabu_Jabus_Belly_GS_Water_Switch_Room"
       style="fill:#ffffff;stroke-width:3.18189;stop-color:#000000"
       id="check:Jabu_Jabus_Belly_GS_Lobby_Basement_Upper"
       cx="1124.7067"
       cy="1500.1346"
       r="12.5" />
    <circle
       inkscape:label="check:Jabu_Jabus_Belly_GS_Lobby_Basement_Upper"
       style="fill:#ffffff;stroke-width:3.18189;stop-color:#000000"
       id="check:Jabu_Jabus_Belly_GS_Lobby_Basement_Lower"
       cx="677.36078"
       cy="1058.2334"
       r="12.5" />
    <circle
       inkscape:label="check:Jabu_Jabus_Belly_GS_Lobby_Basement_Lower"
       style="fill:#ffffff;stroke-width:3.18189;stop-color:#000000"
       id="path832-77"
       cx="753.2149"
       cy="1004.7134"
       r="12.5" />
  </g>
</svg>
