<?xml version="1.0" encoding="UTF-8" standalone="no"?>
<svg
   xmlns:dc="http://purl.org/dc/elements/1.1/"
   xmlns:cc="http://creativecommons.org/ns#"
   xmlns:rdf="http://www.w3.org/1999/02/22-rdf-syntax-ns#"
   xmlns:svg="http://www.w3.org/2000/svg"
   xmlns="http://www.w3.org/2000/svg"
   xmlns:sodipodi="http://sodipodi.sourceforge.net/DTD/sodipodi-0.dtd"
   xmlns:inkscape="http://www.inkscape.org/namespaces/inkscape"
   inkscape:version="1.0 (4035a4fb49, 2020-05-01)"
   sodipodi:docname="map-deku_tree.svg"
   viewBox="0 0 1167.1406 1010.5311"
   height="1010.5311"
   width="1167.1406"
   id="svg1032"
   version="1.1">
  <metadata
     id="metadata1038">
    <rdf:RDF>
      <cc:Work
         rdf:about="">
        <dc:format>image/svg+xml</dc:format>
        <dc:type
           rdf:resource="http://purl.org/dc/dcmitype/StillImage" />
        <dc:title></dc:title>
      </cc:Work>
    </rdf:RDF>
  </metadata>
  <defs
     id="defs1036" />
  <sodipodi:namedview
     inkscape:current-layer="g1040"
     inkscape:window-maximized="1"
     inkscape:window-y="-8"
     inkscape:window-x="-8"
     inkscape:cy="932.37749"
     inkscape:cx="1472.3348"
     inkscape:zoom="0.265625"
     fit-margin-bottom="0"
     fit-margin-right="0"
     fit-margin-left="0"
     fit-margin-top="0"
     showgrid="false"
     id="namedview1034"
     inkscape:window-height="1017"
     inkscape:window-width="1920"
     inkscape:pageshadow="2"
     inkscape:pageopacity="0"
     guidetolerance="10"
     gridtolerance="10"
     objecttolerance="10"
     borderopacity="1"
     bordercolor="#666666"
     pagecolor="#ffffff" />
  <g
     transform="translate(257.84207,117.33532)"
     id="g1040"
     inkscape:label="Image"
     inkscape:groupmode="layer">
    <path
       d="m 667.95782,-117.33531 -112,47.572195 v -20.0429 h -25.4121 v 30.8359 l -47.0586,19.9883 V 282.90098 l 63.0586,62.1172 h 192.9414 l 64.4707,-64.4707 V -53.099015 l -64.2344,-64.236305 z"
       style="fill:#003e00;fill-opacity:1;stroke:none;stroke-width:1px;stroke-linecap:butt;stroke-linejoin:miter;stroke-opacity:1"
       id="path1758" />
    <path
       d="m -202.35574,-112.84833 -55.48633,55.4863 v 55.0704 l 55.07032,55.0722 h 59.5625 l 16.9707,-16.9707 11.54883,10.625 -14.21094,13.9981 75.86914,75.86911 -17.30273,16.6367 v 157.06254 l 63.88867,82.5235 h 75.20312 l 11.97852,27.9511 v 89.8438 h 19.9668 v 16.6387 H 42.13645 v 39.9296 H 1.54075 v 142.42 h 40.5957 v 39.9316 h 142.41992 v -39.9316 h 39.93164 v -30.6133 h 7.98633 v -28.6172 h 17.30273 v 27.9512 h 47.25004 v 47.2519 h 357.38083 15.3067 l 32.6113,-45.2558 v -37.9336 h 7.3203 v -35.2715 h 16.6367 v 33.9414 h 13.3105 l 18.6348,47.25 h 127.7773 l 23.293,-58.5645 v -66.5507 l -25.2891,-63.8907 h -23.2929 l -7.1133,-12.3222 v -33.959 h -18.8242 v -18.8223 h 18.3535 v -78.5898 l 31.5293,-31.5293 v -78.11724 l 14.1172,-35.7637 -13.1758,-32 v -79.0605 l -28.2344,-28.23441 h -23.2949 v -20.9414 l -12.4707,-12.4707 h -223.5293 l -38.1171,38.11721 v 23.5293 h -21.6485 l -33.8808,33.8828 v 46.1172 l -17.8829,6.5898 0.3965,21.416 H 375.55831 v -25.955 h -61.8926 L 215.16965,168.91148 129.98411,89.05018 10.85715,73.07747 -8.44167,91.71228 -84.31082,16.50907 l -13.74609,13.5411 -12.14648,-12.1465 19.36328,-19.3633 v -54.6953 l -56.69336,-56.6934 z m 577.91405,333.66991 h 111.64263 l 0.2852,15.4317 16.9414,8.4707 v 46.11724 l 95.0586,95.0605 h 79.0585 v 48 h 111.0586 19.7656 v 18.8223 h -19.7656 v 38.8652 l -7.75,7.75 h -23.625 l -18.6348,47.584 h -13.3105 v 36.6035 h -16.6367 v -36.6035 h -31.9453 l -23.293,-11.3144 H 297.02711 v 63.8906 h -47.25004 v 28.6172 h -17.30273 v -30.6153 h -7.98633 v -30.6133 h -39.93164 v -39.9296 H 125.3259 v -16.6387 h 19.30078 v -89.0234 l 10.64649,-29.4375 36.60351,-22.627 24.625,-37.2695 v -76.53324 l 93.17193,-11.9805 h 65.8847 z"
       style="fill:#006609;fill-opacity:1;stroke:none;stroke-width:1px;stroke-linecap:butt;stroke-linejoin:miter;stroke-opacity:1"
       id="path1716" />
    <g
       transform="translate(0.33525,-520.45129)"
       style="fill:#00c200;fill-opacity:1;stroke:none"
       id="g1691">
      <path
         d="M 898.44379,730.35297 A 196.32611,196.32611 0 0 1 702.11768,926.67908 196.32611,196.32611 0 0 1 505.79156,730.35297 196.32611,196.32611 0 0 1 702.11768,534.02686 196.32611,196.32611 0 0 1 898.44379,730.35297"
         style="fill:#00c200;fill-opacity:1;stroke:none;stroke-width:5.91496;stroke-linecap:round;stroke-linejoin:bevel;stop-color:#000000"
         id="path1613-3" />
      <path
         style="fill:#00c200;fill-opacity:1;stroke:none;stroke-width:1px;stroke-linecap:butt;stroke-linejoin:miter;stroke-opacity:1"
         d="m 525.17647,807.52941 -37.64706,68.70589 61.17647,63.05882 84.70589,-44.2353 z"
         id="path1646" />
      <path
         d="m 1003.4393,219.79033 h 29.1764 v 57.41177 h -29.1764 z"
         transform="rotate(46.828121)"
         style="fill:#00c200;fill-opacity:1;stroke:none;stroke-width:5.91496;stroke-linecap:round;stroke-linejoin:bevel;stop-color:#000000"
         id="rect1648" />
      <path
         d="m 1012.8092,492.49026 h 29.1765 v 57.41177 h -29.1765 z"
         transform="rotate(46.828121)"
         style="fill:#00c200;fill-opacity:1;stroke:none;stroke-width:5.91496;stroke-linecap:round;stroke-linejoin:bevel;stop-color:#000000"
         id="rect1648-5" />
      <path
         d="m 996.27722,530.74628 h 57.59908 v 113.34015 h -57.59908 z"
         transform="rotate(46.828121)"
         style="fill:#00c200;fill-opacity:1;stroke:none;stroke-width:11.6771;stroke-linecap:round;stroke-linejoin:bevel;stop-color:#000000"
         id="rect1648-5-5" />
      <path
         style="fill:#00c200;fill-opacity:1;stroke:none;stroke-width:1px;stroke-linecap:butt;stroke-linejoin:miter;stroke-opacity:1"
         d="m 291.76471,1066.3529 71.52941,71.5295 56.47059,-12.2353 112.94117,-112 8.47059,-57.4118 -70.58823,-70.58824 -59.29412,9.41176 -110.11765,113.88238 z"
         id="path1680" />
      <path
         style="fill:#00c200;fill-opacity:1;stroke:none;stroke-width:1px;stroke-linecap:butt;stroke-linejoin:miter;stroke-opacity:1"
         d="m 230.58824,1119.0588 79.05882,77.1765 -10.35294,57.4118 -46.11765,46.1176 42.35294,63.0588 -47.05882,50.8236 -164.705884,-160 11.294118,-45.1765 79.999996,-80 z"
         id="path1682" />
    </g>
    <path
       d="m 703.44727,15.972656 a 196.32611,196.32611 0 0 0 -196.3242,196.326144 196.32611,196.32611 0 0 0 143.875,189.1914 l 13.8613,153.3965 63.0586,-0.9414 14.209,-149.168 A 196.32611,196.32611 0 0 0 899.77347,212.2988 196.32611,196.32611 0 0 0 703.44727,15.972656 Z"
       style="fill:#009700;fill-opacity:1;stroke:none;stroke-width:5.91496;stroke-linecap:round;stroke-linejoin:bevel;stop-color:#000000"
       id="path1613-0" />
    <path
       d="M 703.44727,15.972656 A 196.32611,196.32611 0 0 0 514.16211,160.19531 L 480.5,177.02539 v 25.32813 h -18.38281 v -54.5879 L 263.5293,94.117188 64,147.76562 V 279.5293 l 152.4707,42.82422 v 91.29296 h 93.64649 v -89.4121 l 152,-43.76368 V 225.88281 H 480.5 v 28.34375 l 35.01172,14.85156 A 196.32611,196.32611 0 0 0 703.44727,408.625 196.32611,196.32611 0 0 0 899.77344,212.29883 196.32611,196.32611 0 0 0 703.44727,15.972656 Z"
       style="fill:#00ff00;fill-opacity:1;stroke:none;stroke-width:5.91496;stroke-linecap:round;stroke-linejoin:bevel;stop-color:#000000"
       id="path1613" />
  </g>
</svg>
