<?xml version="1.0" encoding="utf-8"?>
<svg id="svg3639" inkscape:version="1.0 (4035a4fb49, 2020-05-01)" sodipodi:docname="map-sacred_forest_meadow.svg" version="1.1" viewBox="0 0 49.463757 204.96875" xmlns="http://www.w3.org/2000/svg" xmlns:cc="http://creativecommons.org/ns#" xmlns:dc="http://purl.org/dc/elements/1.1/" xmlns:inkscape="http://www.inkscape.org/namespaces/inkscape" xmlns:rdf="http://www.w3.org/1999/02/22-rdf-syntax-ns#" xmlns:sodipodi="http://sodipodi.sourceforge.net/DTD/sodipodi-0.dtd">
 <metadata id="metadata3645">
  <rdf:RDF>
   <cc:Work rdf:about="">
    <dc:format>
     image/svg+xml
    </dc:format>
    <dc:type rdf:resource="http://purl.org/dc/dcmitype/StillImage"/>
    <dc:title/>
   </cc:Work>
  </rdf:RDF>
 </metadata>
 <defs id="defs3643"/>
 <sodipodi:namedview bordercolor="#666666" borderopacity="1" fit-margin-bottom="0" fit-margin-left="0" fit-margin-right="0" fit-margin-top="0" gridtolerance="10" guidetolerance="10" id="namedview3641" inkscape:current-layer="g3647" inkscape:cx="25.274092" inkscape:cy="149.85651" inkscape:document-rotation="0" inkscape:pageopacity="0" inkscape:pageshadow="2" inkscape:window-height="705" inkscape:window-maximized="1" inkscape:window-width="1366" inkscape:window-x="892" inkscape:window-y="-8" inkscape:zoom="4.761062" objecttolerance="10" pagecolor="#ffffff" showgrid="false"/>
 <g id="Image" inkscape:groupmode="layer" inkscape:label="Image" transform="translate(-17.223048,-7.5605469)">
  <path d="m 35.644491,106.3394 h 17.822245 l 10.80464,12.54164 2.415427,17.85316 v 35.28625 l -5.881041,15.54275 -8.971778,5.95633 -28.96289,0.89063 -5.648046,-4.43154 V 144.0855 l 10.606878,-27.61989 z" id="Walls" inkscape:label="Walls" style="display:inline;fill:#009a5c;fill-opacity:1;stroke:none;stroke-width:1px;stroke-linecap:butt;stroke-linejoin:miter;stroke-opacity:1"/>
  <path d="M 24.785156,7.5605469 V 49.988281 H 39.90625 v 71.021489 h -9.046875 v 3.44921 27.21094 h 13.472656 v 3.60547 H 26.511719 v 5.79297 13.21875 h 5.791015 19.605469 v 4.30664 h -1.931641 v -2.37695 h -5.792968 v 2.37695 H 21.3125 v 5.79297 h 10.931641 l -9.373047,10.02344 9.357422,11.58593 v 6.53321 h 7.722656 v -7.12696 l 11.882812,-11.88281 -7.738281,-9.13281 h 13.605469 v -5.79297 -10.09961 h -7.72461 v -2.67383 h -5.792968 v 2.67383 h -11.88086 v -7.42578 H 33.9375 v 2.82226 h 5.791016 v -2.82226 h 23.466796 v -5.79297 H 50.125 v -3.60547 H 61.519531 V 121.00977 H 49.148438 V 49.988281 H 62.171875 V 7.5605469 Z M 37.755859,127.90625 h 16.867188 v 6.50391 h -2.195313 v 5.79101 h 2.195313 v 4.57227 H 37.755859 v -7.32032 h 2.121094 v -5.79101 h -2.121094 z m 3.978516,3.83008 v 8.61328 h 8.613281 v -8.61328 z" id="Path" inkscape:label="Path" style="display:inline;fill:#00653c;fill-opacity:1;stroke:none;stroke-width:6.897;stop-color:#000000"/>
  <path d="m 35.650391,113.44922 v 8.64648 h 8.646484 v -8.64648 z m -22.013672,22.01367 v 8.64649 h 8.646484 v -8.64649 z m 23.689453,10.8457 v 8.64649 h 8.646484 v -8.64649 z M 2.0898438,169.51562 v 8.64649 h 8.6464842 v -8.64649 z" id="Water" inkscape:label="Water" style="fill:#6c64d4;fill-opacity:1;stroke:none;stroke-width:6.897;stroke-opacity:1;stop-color:#000000" transform="translate(17.223048,7.5605469)"/>
  <circle cx="41.957249" cy="28.304045" id="check:Song_from_Saria" inkscape:label="check:Song_from_Saria" r="1" style="fill:#ff0000;stroke-width:2.94321;stop-color:#000000"/>
  <circle cx="45.957249" cy="32.304047" id="check:Sheik_in_Forest" inkscape:label="check:Sheik_in_Forest" r="1" style="fill:#ff0000;stroke-width:2.94321;stop-color:#000000"/>
  <circle cx="38.016727" cy="194.07356" id="check:SFM_Wolfos_Grotto_Chest" inkscape:label="check:SFM_Wolfos_Grotto_Chest" r="1" style="fill:#000000;stroke-width:2.94321;stop-color:#000000"/>
  <circle cx="64.06134" cy="141.56427" id="check:SFM_GS" inkscape:label="check:SFM_GS" r="1" style="fill:#ffffff;stroke-width:2.94321;stop-color:#000000"/>
 </g>
</svg>