<?xml version="1.0" encoding="utf-8"?>
<svg id="svg834" inkscape:version="1.0 (4035a4fb49, 2020-05-01)" sodipodi:docname="map-death_mountain_trail.svg" version="1.1" viewBox="0 0 75.777611 205.29393" xmlns="http://www.w3.org/2000/svg" xmlns:cc="http://creativecommons.org/ns#" xmlns:dc="http://purl.org/dc/elements/1.1/" xmlns:inkscape="http://www.inkscape.org/namespaces/inkscape" xmlns:rdf="http://www.w3.org/1999/02/22-rdf-syntax-ns#" xmlns:sodipodi="http://sodipodi.sourceforge.net/DTD/sodipodi-0.dtd" xmlns:xlink="http://www.w3.org/1999/xlink">
 <metadata id="metadata840">
  <rdf:RDF>
   <cc:Work rdf:about="">
    <dc:format>
     image/svg+xml
    </dc:format>
    <dc:type rdf:resource="http://purl.org/dc/dcmitype/StillImage"/>
    <dc:title/>
   </cc:Work>
  </rdf:RDF>
 </metadata>
 <defs id="defs838">
  <linearGradient id="linearGradient963" inkscape:collect="always">
   <stop id="stop959" offset="0" style="stop-color:#9b7b4a;stop-opacity:1;"/>
   <stop id="stop961" offset="1" style="stop-color:#9b7b4a;stop-opacity:0;"/>
  </linearGradient>
  <linearGradient id="linearGradient954" inkscape:collect="always">
   <stop id="stop950" offset="0" style="stop-color:#79603a;stop-opacity:1"/>
   <stop id="stop952" offset="1" style="stop-color:#9b7b4a;stop-opacity:1"/>
  </linearGradient>
  <linearGradient gradientUnits="userSpaceOnUse" id="linearGradient956" inkscape:collect="always" x1="49.147865" x2="40.991497" xlink:href="#linearGradient954" y1="130.66721" y2="130.23225"/>
  <linearGradient gradientUnits="userSpaceOnUse" id="linearGradient965" inkscape:collect="always" x1="39.553146" x2="36.633392" xlink:href="#linearGradient963" y1="122.00212" y2="136.35529"/>
 </defs>
 <sodipodi:namedview bordercolor="#666666" borderopacity="1" fit-margin-bottom="0" fit-margin-left="0" fit-margin-right="0" fit-margin-top="0" gridtolerance="10" guidetolerance="10" id="namedview836" inkscape:current-layer="g842" inkscape:cx="49.583644" inkscape:cy="102.86431" inkscape:document-rotation="0" inkscape:pagecheckerboard="0" inkscape:pageopacity="0" inkscape:pageshadow="2" inkscape:window-height="696" inkscape:window-maximized="0" inkscape:window-width="834" inkscape:window-x="1423" inkscape:window-y="0" inkscape:zoom="2.2991453" objecttolerance="10" pagecolor="#ffffff" showgrid="false"/>
 <g id="Image" inkscape:groupmode="layer" inkscape:label="Image" transform="translate(-14.040553,-13.917969)">
  <rect height="19.633947" id="GoronCity" inkscape:label="GoronCity" style="fill:#564429;fill-opacity:1;stroke:none" transform="rotate(16.355079)" width="5.991394" x="94.193062" y="44.682995"/>
  <path d="m 72.117188,82.818359 c -14.80214,-0.121518 -25.570192,15.651665 -24.376954,39.626951 -3.214497,1.38204 -6.765438,2.21939 -9.029296,0.64453 l -1.958985,14.78711 13.478516,1 c 1.28968,5.24179 2.939269,10.99345 5.306473,16.66998 l 13.115098,2.96236 c 0,0 29.211155,-71.955517 6.594054,-75.435071 -1.060177,-0.163104 -2.104638,-0.247451 -3.128906,-0.25586 z" id="NearGoronCity" inkscape:label="NearGoronCity" sodipodi:nodetypes="sccccccss" style="fill:url(#linearGradient956);fill-opacity:1;stroke:none;stroke-width:1px;stroke-linecap:butt;stroke-linejoin:miter;stroke-opacity:1"/>
  <path d="M 55.672862,155.27509 C 56.977695,143.5316 81.769517,60.892193 88.29368,40.884758 94.817844,20.877323 78.289963,19.572491 78.289963,19.572491 v -5.654275 h -8.263941 v 6.524163 c -13.918215,0.434944 -8.698884,22.617101 -6.524163,30.446097 2.174721,7.828996 -17.39777,83.074354 -19.137547,100.907064 -1.739777,17.83271 -7.394052,17.83271 -8.698884,15.22305 -1.304833,-2.60967 8.698884,-53.49814 2.174721,-53.49814 -13.048327,0 -22.617101,36.97026 -23.052045,44.79925 -0.434944,7.829 3.04461,10.43866 3.04461,14.78811 0,4.34944 -0.869889,5.65427 -2.609666,13.04832 -1.739777,7.39406 -3.044609,26.09666 7.394052,27.40149 14.788104,0.43495 15.223049,5.65428 15.223049,5.65428 h 11.30855 C 49.583643,206.16357 28.70632,199.63941 28.70632,199.63941 c 0,0 -4.349443,-24.35688 -0.869889,-47.84387 0,0 -2.174721,46.97398 9.568773,44.36431 11.743495,-2.60966 28.271376,0 31.315985,-37.84015 z" id="Trail" inkscape:label="Trail" sodipodi:nodetypes="cscccccsssssssccccsc" style="fill:#79603a;fill-opacity:1;stroke:none;stroke-width:1px;stroke-linecap:butt;stroke-linejoin:miter;stroke-opacity:1"/>
  <path d="m 55.986328,0 v 6.5234375 c -13.918215,0.434944 -8.700112,22.6182695 -6.52539,30.4472655 1.718252,6.18571 -10.111261,54.362116 -16.021485,83.144527 -0.344388,1.67715 -0.666605,3.2797 -0.966797,4.8125 -0.08945,0.45563 -0.172573,0.89598 -0.257812,1.33789 -0.129112,0.67144 -0.278015,1.40611 -0.396485,2.04297 h 0.01367 c -0.733675,3.93643 -1.284659,7.28105 -1.507812,9.56836 -0.09973,1.02228 -0.215938,1.97097 -0.339844,2.87891 l 11.648437,0.60156 c 0.249439,-2.24493 1.373828,-7.12635 3.052735,-13.63281 C 51.766852,100.25638 68.975732,43.153201 74.253906,26.966797 80.77807,6.9593618 64.25,5.6542969 64.25,5.6542969 V 0 Z" id="TrailUpper" inkscape:label="TrailUpper" style="fill:url(#linearGradient965);fill-opacity:1;stroke:none;stroke-width:1px;stroke-linecap:butt;stroke-linejoin:miter;stroke-opacity:1" transform="translate(14.040553,13.917969)"/>
  <path d="m 23.798828,99.601562 c -4.271789,0 -8.15881,3.994488 -11.486328,9.599608 h 13.673828 c 0.131182,-5.66204 -0.387994,-9.599608 -2.1875,-9.599608 z" id="AboveCavern" inkscape:label="AboveCavern" style="fill:#9a794b;fill-opacity:1;stroke:none;stroke-width:1px;stroke-linecap:butt;stroke-linejoin:miter;stroke-opacity:1" transform="translate(14.040553,13.917969)"/>
  <path d="m 70.025391,13.917969 v 6.52539 c -7.587247,0.237102 -9.47081,6.941714 -9.277344,14.25586 l 27.724609,5.585937 C 94.464739,20.862233 78.289062,19.572266 78.289062,19.572266 v -5.654297 z" id="Biggoron" inkscape:label="Biggoron" style="fill:#b49365;fill-opacity:1;stroke:none;stroke-width:7.55906;stroke-linecap:round;stroke-dashoffset:37.0394;stroke-opacity:1;stop-color:#000000"/>
  <circle cx="35.207439" cy="119.07418" id="check:DMT_Freestanding_PoH" inkscape:label="check:DMT_Freestanding_PoH" r="1.5" style="fill:#000000;stroke-width:0.574636"/>
  <circle cx="62.760456" cy="134.1937" id="check:DMT_Chest" inkscape:label="check:DMT_Chest" r="1.5" style="fill:#000000;stroke-width:0.574636"/>
  <circle cx="71.969971" cy="111.46562" id="check:DMT_Storms_Grotto_Chest" inkscape:label="check:DMT_Storms_Grotto_Chest" r="1.5" style="fill:#000000;stroke-width:0.574636"/>
  <circle cx="25.430935" cy="184.53625" id="check:DMT_GS_Near_Kak" inkscape:label="check:DMT_GS_Near_Kak" r="1.5" style="fill:#ffffff;stroke-width:0.574636"/>
  <circle cx="33.178101" cy="124.39381" id="check:DMT_GS_Bean_Patch" inkscape:label="check:DMT_GS_Bean_Patch" r="1.5" style="fill:#ffffff;stroke-width:0.574636"/>
  <circle cx="44.051704" cy="125.69865" id="check:DMT_GS_Above_Dodongos_Cavern" inkscape:label="check:DMT_GS_Above_Dodongos_Cavern" r="1.5" style="fill:#ffffff;stroke-width:0.574636"/>
  <circle cx="79.282188" cy="59.152168" id="check:DMT_GS_Falling_Rocks_Path" inkscape:label="check:DMT_GS_Falling_Rocks_Path" r="1.5" style="fill:#ffffff;stroke-width:0.574636"/>
  <circle cx="66.668808" cy="23.48674" id="check:DMT_Great_Fairy_Reward" inkscape:label="check:DMT_Great_Fairy_Reward" r="1.5" style="fill:#000000;stroke-width:0.574636"/>
  <circle cx="85.371407" cy="32.185631" id="check:DMT_Biggoron" inkscape:label="check:DMT_Biggoron" r="1.5" style="fill:#000000;stroke-width:0.574636"/>
 </g>
</svg>