<?xml version="1.0" encoding="UTF-8" standalone="no"?>
<svg
   xmlns:dc="http://purl.org/dc/elements/1.1/"
   xmlns:cc="http://creativecommons.org/ns#"
   xmlns:rdf="http://www.w3.org/1999/02/22-rdf-syntax-ns#"
   xmlns:svg="http://www.w3.org/2000/svg"
   xmlns="http://www.w3.org/2000/svg"
   xmlns:sodipodi="http://sodipodi.sourceforge.net/DTD/sodipodi-0.dtd"
   xmlns:inkscape="http://www.inkscape.org/namespaces/inkscape"
   version="1.1"
   id="svg833"
   viewBox="0 0 174.42583 172.65569"
   sodipodi:docname="map-hyrule_field.svg"
   inkscape:version="1.0 (4035a4fb49, 2020-05-01)">
  <metadata
     id="metadata839">
    <rdf:RDF>
      <cc:Work
         rdf:about="">
        <dc:format>image/svg+xml</dc:format>
        <dc:type
           rdf:resource="http://purl.org/dc/dcmitype/StillImage" />
        <dc:title />
      </cc:Work>
    </rdf:RDF>
  </metadata>
  <defs
     id="defs837" />
  <sodipodi:namedview
     inkscape:document-rotation="0"
     pagecolor="#ffffff"
     bordercolor="#666666"
     borderopacity="1"
     objecttolerance="10"
     gridtolerance="10"
     guidetolerance="10"
     inkscape:pageopacity="0"
     inkscape:pageshadow="2"
     inkscape:window-width="1366"
     inkscape:window-height="705"
     id="namedview835"
     showgrid="false"
     inkscape:zoom="3.9156988"
     inkscape:cx="88.150621"
     inkscape:cy="98.009002"
     inkscape:window-x="892"
     inkscape:window-y="-8"
     inkscape:window-maximized="1"
     inkscape:current-layer="g841"
     fit-margin-top="0"
     fit-margin-left="0"
     fit-margin-right="0"
     fit-margin-bottom="0" />
  <g
     inkscape:groupmode="layer"
     inkscape:label="Image"
     id="g841"
     transform="translate(-3.8300781,-1.7876757)">
    <rect
       style="opacity:1;fill:#919191;fill-opacity:1;stroke:none;stroke-width:2.3;stroke-miterlimit:4;stroke-dasharray:none;stroke-opacity:1;stop-color:#000000"
       id="rect968"
       width="34.731987"
       height="19.664434"
       x="90.660698"
       y="1.7876757"
       inkscape:label="Castle" />
    <path
       id="rect860"
       style="display:inline;opacity:1;fill:#a6b259;fill-opacity:1;stroke-width:6.897;stop-color:#000000"
       d="M 64.980469,3.2050781 C 52.1639,3.1294639 46.224609,12.257812 46.224609,12.257812 L 45.712891,47.755859 29.878906,75.337891 C 20.17438,77.380949 14.300781,85.552734 14.300781,85.552734 v 6.640625 C 11.491576,91.937977 3.8300781,78.914062 3.8300781,78.914062 v 8.9375 c 2.0430581,9.704526 9.9609379,10.214844 9.9609379,10.214844 v 6.597654 l 16.546875,5.49219 c 11.196117,1.80583 13.168784,8.80347 14.974609,12.5957 1.805825,3.79224 1.277344,28.57617 1.277344,28.57617 1.44466,3.61165 8.668127,2.88999 4.695312,10.11329 -6.862136,7.94563 -7.222656,13.00195 -7.222656,13.00195 h 10.472656 c 4.333981,-11.55728 22.392578,-16.25391 22.392578,-16.25391 5.417476,-0.36116 6.139491,5.41797 12.279297,5.41797 13.729019,1e-5 9.391126,-5.05632 19.142579,-8.66797 9.75146,-3.61165 10.83562,5.05713 18.78125,-2.52734 25.64272,-18.41942 0.7207,-22.39258 0.7207,-22.39258 v -18.41992 l 20.94922,-12.179688 v 5.318358 h 7.94531 11.19532 v -7.583983 h -11.19532 v -2.353516 l 2.16602,-1.259765 c 0,0 12.28092,-17.697118 11.55859,-34.671875 5.62065,0.642749 7.78516,-0.769532 7.78516,-0.769532 v -7.279297 c -1.14922,1.021529 -4.21289,1.021485 -4.21289,1.021485 -4.08612,-5.746101 -24.90039,-28.474609 -24.90039,-28.474609 l 3.89453,-3.894532 4.08594,4.085938 6.19336,-6.19336 -10.02344,-10.0234371 -9.00195,9.0019531 c 0,0 -7.40524,-8.9379771 -13.66211,-9.1933594 -6.25686,-0.2553822 -7.53528,7.0236084 -10.2168,8.6835934 -2.68151,1.659984 -2.42474,3.703125 -5.95703,3.703125 h -10.13086 c -7.533776,0 -7.27903,-5.874262 -13.408204,-6.001953 C 80.29371,5.8098429 71.693909,3.2446856 64.980469,3.2050781 Z"
       inkscape:label="Field" />
    <path
       id="path867-6"
       style="display:inline;opacity:1;fill:#7e7060;fill-opacity:1;stroke:none;stroke-width:1px;stroke-linecap:butt;stroke-linejoin:miter;stroke-opacity:1"
       d="M 29.878906,75.337891 C 20.17438,77.380949 14.300781,85.552734 14.300781,85.552734 v 6.640625 C 11.491576,91.937977 3.8300781,78.914062 3.8300781,78.914062 v 8.9375 c 2.0430581,9.704526 9.9609379,10.214844 9.9609379,10.214844 v 6.597654 l 12.144531,4.03125 3.943359,-5.52148 h 9.751953 L 43.242188,100.64648 41.4375,94.867188 29.878906,94.626953 Z"
       inkscape:label="GerudoPlatform" />
    <path
       id="path940"
       style="color:#000000;font-style:normal;font-variant:normal;font-weight:normal;font-stretch:normal;font-size:medium;line-height:normal;font-family:sans-serif;font-variant-ligatures:normal;font-variant-position:normal;font-variant-caps:normal;font-variant-numeric:normal;font-variant-alternates:normal;font-variant-east-asian:normal;font-feature-settings:normal;font-variation-settings:normal;text-indent:0;text-align:start;text-decoration:none;text-decoration-line:none;text-decoration-style:solid;text-decoration-color:#000000;letter-spacing:normal;word-spacing:normal;text-transform:none;writing-mode:lr-tb;direction:ltr;text-orientation:mixed;dominant-baseline:auto;baseline-shift:baseline;text-anchor:start;white-space:normal;shape-padding:0;shape-margin:0;inline-size:0;clip-rule:nonzero;display:inline;overflow:visible;visibility:visible;opacity:1;isolation:auto;mix-blend-mode:normal;color-interpolation:sRGB;color-interpolation-filters:linearRGB;solid-color:#000000;solid-opacity:1;vector-effect:none;fill:#2e837b;fill-opacity:1;fill-rule:nonzero;stroke:none;stroke-width:4.8;stroke-linecap:butt;stroke-linejoin:miter;stroke-miterlimit:4;stroke-dasharray:none;stroke-dashoffset:0;stroke-opacity:1;color-rendering:auto;image-rendering:auto;shape-rendering:auto;text-rendering:auto;enable-background:accumulate;stop-color:#000000;stop-opacity:1"
       d="M 76.640625,5.5507812 C 71.517786,11.869815 61.620859,16.77372 46.119141,19.548828 l -0.07031,4.876953 C 63.40144,21.456729 75.098677,15.88543 81.154297,7.5332031 79.5956,6.7576245 78.089201,6.0979535 76.640625,5.5507812 Z m 47.218755,5.7050778 c -1.26173,1.862014 -2.21322,3.814189 -3.44727,4.578125 -0.0104,0.0064 -0.0171,0.0131 -0.0273,0.01953 -0.10962,0.106601 -0.21602,0.211998 -0.34766,0.324218 -0.24578,0.209519 -0.55219,0.429626 -0.88867,0.652344 -1.44191,1.382244 -1.84999,2.707031 -4.69336,2.707031 h -4.77539 c -0.10767,0.0093 -0.19896,0.0246 -0.3086,0.0332 -2.42612,0.190285 -4.20032,0.16673 -5.60742,-0.06055 -6.942943,-0.294664 -6.880626,-5.850297 -12.847654,-5.97461 -0.05406,-0.03931 -0.106204,-0.07423 -0.160157,-0.113281 1.61079,2.656465 3.008466,4.937109 4.765625,6.802734 3.032503,3.219694 7.371646,4.668347 14.224606,4.13086 6.87918,-0.539543 11.00066,-2.476388 13.4043,-4.525391 0.53145,-0.453036 0.69676,-0.839803 1.06641,-1.279297 1.67592,1.632539 4.08299,3.837237 7.61718,6.453125 5.62588,4.164072 13.17865,8.491303 21.41016,9.478516 l 3.41797,4.023437 c 0.009,2.344012 0.56857,9.754555 7.39648,16.169922 -4.06072,4.778488 -6.79688,13.873834 -2.65625,19.597657 2.1435,2.963071 3.86176,4.213297 5.20313,4.375 1.32135,-3.385959 2.49378,-7.120996 3.19726,-11.007813 -0.084,-0.17757 -0.17217,-0.342198 -0.27148,-0.474609 -2.29844,-3.064587 -5.83203,-3.576172 -5.83203,-3.576172 0,0 -0.56933,-3.929883 2.05078,-7.445313 0.58004,0.460997 1.19548,0.912996 1.85156,1.355469 0.92062,0.620877 1.88538,1.067549 2.86914,1.382812 -1.9e-4,-0.0045 2e-4,-0.0091 0,-0.01367 5.62065,0.642749 7.78516,-0.769532 7.78516,-0.769532 v -4.365234 c -0.40063,0.165745 -0.7986,0.318686 -1.18945,0.441406 -2.57465,0.808382 -4.69919,0.748571 -6.7793,-0.654297 -10.04831,-6.776771 -8.87109,-15.695312 -8.87109,-15.695312 l 0.0781,-0.761719 c -2.36355,-2.658108 -4.40042,-4.917131 -6.40039,-7.130859 l -0.36328,-0.0293 c -7.16577,-0.577885 -14.54162,-4.687354 -20.04102,-8.757813 -5.49939,-4.070458 -9.05859,-7.955078 -9.05859,-7.955078 z"
       inkscape:label="Rivers" />
    <path
       id="path959"
       style="fill:#8f824f;fill-opacity:1;stroke:none;stroke-width:4.8;stroke-miterlimit:4;stroke-dasharray:none;stop-color:#000000"
       d="m 77.125,66.902344 -16.150391,9.326172 v 18.65039 L 77.125,104.20312 93.277344,94.878906 v -18.65039 l -2.09961,-1.212891 -2.294922,3.390625 -2.537109,-1.71875 2.171875,-3.207031 z"
       inkscape:label="LonLon" />
    <path
       style="fill:none;stroke:#9a9a9a;stroke-width:2.3;stroke-linecap:butt;stroke-linejoin:miter;stroke-miterlimit:4;stroke-dasharray:none;stroke-opacity:1"
       d="M 109.30361,83.254615 122.83886,75.84853 V 59.504065"
       id="path961"
       inkscape:label="Wall" />
    <path
       inkscape:label="HyliaFence"
       transform="translate(3.8300781,1.7876757)"
       d="m 57.039062,143.55273 -0.103515,0.17774 -9.251953,16 8.835937,5.10937 c 0.111513,-0.0955 0.224956,-0.18751 0.337891,-0.28125 l -8.611328,-4.97851 8.943359,-15.46485 11.042969,6.38477 -6.025391,10.41797 c 0.232985,-0.13059 0.465481,-0.25633 0.697266,-0.38086 l 5.890625,-10.1875 z"
       style="color:#000000;font-style:normal;font-variant:normal;font-weight:normal;font-stretch:normal;font-size:medium;line-height:normal;font-family:sans-serif;font-variant-ligatures:normal;font-variant-position:normal;font-variant-caps:normal;font-variant-numeric:normal;font-variant-alternates:normal;font-variant-east-asian:normal;font-feature-settings:normal;font-variation-settings:normal;text-indent:0;text-align:start;text-decoration:none;text-decoration-line:none;text-decoration-style:solid;text-decoration-color:#000000;letter-spacing:normal;word-spacing:normal;text-transform:none;writing-mode:lr-tb;direction:ltr;text-orientation:mixed;dominant-baseline:auto;baseline-shift:baseline;text-anchor:start;white-space:normal;shape-padding:0;shape-margin:0;inline-size:0;clip-rule:nonzero;display:inline;overflow:visible;visibility:visible;opacity:1;isolation:auto;mix-blend-mode:normal;color-interpolation:sRGB;color-interpolation-filters:linearRGB;solid-color:#000000;solid-opacity:1;vector-effect:none;fill:#000000;fill-opacity:1;fill-rule:nonzero;stroke:none;stroke-width:0.412656;stroke-linecap:butt;stroke-linejoin:miter;stroke-miterlimit:4;stroke-dasharray:none;stroke-dashoffset:0;stroke-opacity:1;color-rendering:auto;image-rendering:auto;shape-rendering:auto;text-rendering:auto;enable-background:accumulate;stop-color:#000000;stop-opacity:1"
       id="path1534" />
    <path
       inkscape:label="HyliaWall"
       transform="translate(3.8300781,1.7876757)"
       d="m 44.443359,148.64258 -1.097656,1.83594 c 2.177083,2.59899 7.693326,2.6595 4.109375,9.17578 -2.287086,2.6482 -3.842096,4.96455 -4.912109,6.89062 l 1.630859,0.97461 8.38086,-14.03125 z"
       style="fill:#999999;stroke-width:3.4;stop-color:#000000"
       id="rect1510" />
    <circle
       inkscape:label="check:HFGSCowGrotto"
       r="1"
       cy="84.509987"
       cx="25.771425"
       id="path1451"
       style="fill:#ffffff;stroke-width:3.80382;stop-color:#000000" />
    <circle
       inkscape:label="check:HFGSNearKakGrotto"
       style="fill:#ffffff;stroke-width:3.80382;stop-color:#000000"
       id="path1451-9"
       cx="132.28735"
       cy="10.726054"
       r="1" />
    <circle
       inkscape:label="check:HFOcarinaofTimeItem"
       style="fill:#000000;stroke-width:3.80382;stop-color:#000000"
       id="path1451-8"
       cx="111.85677"
       cy="20.685963"
       r="1" />
    <circle
       inkscape:label="check:SongfromOcarinaofTime"
       style="fill:#ff0000;stroke-width:3.80382;stop-color:#000000"
       id="path1451-7"
       cx="113.64445"
       cy="22.473639"
       r="1" />
    <circle
       sodipodi:insensitive="true"
       r="1"
       cy="19.153669"
       cx="90.915428"
       id="path1451-8-4"
       style="fill:#000000;stroke-width:3.80382;stop-color:#000000"
       inkscape:label="check:HFMarketGrottoChest" />
    <circle
       inkscape:label="check:HFTektiteGrottoFreestandingPoH"
       style="fill:#000000;stroke-width:3.80382;stop-color:#000000"
       id="path1451-8-4-9"
       cx="61.035702"
       cy="41.371925"
       r="1" />
    <circle
       style="fill:#000000;stroke-width:3.80382;stop-color:#000000"
       id="path1451-2"
       cx="63.589527"
       cy="153.74011"
       r="1"
       inkscape:label="check:HFDekuScrubGrotto" />
    <circle
       inkscape:label="check:HFOpenGrottoChest"
       r="1"
       cy="154.50627"
       cx="75.592491"
       id="path1451-2-9"
       style="fill:#000000;stroke-width:3.80382;stop-color:#000000" />
    <circle
       inkscape:label="check:HFSoutheastGrottoChest"
       r="1"
       cy="141.99254"
       cx="108.5368"
       id="path1451-2-6"
       style="fill:#000000;stroke-width:3.80382;stop-color:#000000" />
  </g>
</svg>
