<?xml version="1.0" encoding="UTF-8" standalone="no"?>
<svg
   xmlns:dc="http://purl.org/dc/elements/1.1/"
   xmlns:cc="http://creativecommons.org/ns#"
   xmlns:rdf="http://www.w3.org/1999/02/22-rdf-syntax-ns#"
   xmlns:svg="http://www.w3.org/2000/svg"
   xmlns="http://www.w3.org/2000/svg"
   xmlns:sodipodi="http://sodipodi.sourceforge.net/DTD/sodipodi-0.dtd"
   xmlns:inkscape="http://www.inkscape.org/namespaces/inkscape"
   inkscape:version="1.0 (4035a4fb49, 2020-05-01)"
   sodipodi:docname="map-desert_colossus.svg"
   viewBox="0 0 149.18997 129.21896"
   id="desert_colossus"
   version="1.1">
  <metadata
     id="metadata1467">
    <rdf:RDF>
      <cc:Work
         rdf:about="">
        <dc:format>image/svg+xml</dc:format>
        <dc:type
           rdf:resource="http://purl.org/dc/dcmitype/StillImage" />
        <dc:title></dc:title>
      </cc:Work>
    </rdf:RDF>
  </metadata>
  <defs
     id="defs1465" />
  <sodipodi:namedview
     inkscape:current-layer="desert_colossus"
     inkscape:window-maximized="0"
     inkscape:window-y="0"
     inkscape:window-x="1423"
     inkscape:cy="58.434909"
     inkscape:cx="46.838305"
     inkscape:zoom="2.4077433"
     showgrid="false"
     id="Sand"
     inkscape:window-height="698"
     inkscape:window-width="834"
     inkscape:pageshadow="2"
     inkscape:pageopacity="0"
     guidetolerance="10"
     gridtolerance="10"
     objecttolerance="10"
     borderopacity="1"
     bordercolor="#666666"
     pagecolor="#ffffff"
     inkscape:document-rotation="0"
     fit-margin-top="0"
     fit-margin-left="0"
     fit-margin-right="0"
     fit-margin-bottom="0" />
  <path
     inkscape:label="Sand"
     id="SpiritTemple"
     class="floor"
     d="m 4.07e-4,93.977665 v -63.7286 C 4.07e-4,30.249065 2.349845,0 22.320075,0 c 19.9703,0 29.9554,3.524165 29.9554,17.327165 0.2937,7.6357 13.2156,15.565 16.1524,15.2713 2.9368,-0.2936 4.9926,-8.5167 10.5725,-8.5167 h 32.892605 c 0,0 16.152,21.4387 23.19999,21.4387 7.049,0 5.874,-8.8104 14.097,-11.1599 0,0 0,33.4772 0,39.9406 -7.342,-3.6006 -7.048,-7.9294 -12.041,-8.5168 -4.99199,-0.5873 -20.85099,3.5242 -28.78099,14.0967 -7.929,10.5725 -13.215105,49.337895 -33.772805,49.337895 -20.5576,0 -41.7026,-29.367695 -41.7026,-29.367695 h -23.4944 c 0,0 -2.34944,-6.1673 -9.397768,-5.8736 z"
     style="fill:#d7ac76;fill-opacity:1;stroke:none;stroke-width:1;stroke-linecap:butt;stroke-linejoin:miter;stroke-opacity:1" />
  <path
     inkscape:label="SpiritTemple"
     d="m 0,39.054965 v 43.6973 c 14.277975,-0.8493 13.216775,-10.5078 13.216775,-10.5078 v -2.6426 h 8.8106 v -17.0332 h -8.8106 c 0,-9.2899 -9.87486,-12.6391 -13.216775,-13.5137 z"
     style="fill:#967150;fill-opacity:1;stroke:none;stroke-width:1;stroke-linecap:butt;stroke-linejoin:miter;stroke-opacity:1"
     id="Arch" />
  <path
     inkscape:label="Arch"
     d="m 27.312675,54.330865 h 6.1673 v 13.5093 h -6.1673 z"
     style="fill:#634f3c;fill-opacity:1;stroke:none;stroke-width:7.55906;stroke-linecap:round;stroke-dashoffset:37.0394;stroke-opacity:1;stop-color:#000000"
     id="Rocks" />
  <path
     sodipodi:nodetypes="cccccccccc"
     inkscape:label="Rocks"
     d="m 81.056641,45.519531 c -3.245149,-7.51e-4 -5.875992,2.564496 -5.875,5.728516 1.15e-4,3.163257 2.630634,5.727313 5.875,5.726562 3.243603,-3.01e-4 5.872932,-2.564049 5.873047,-5.726562 9.92e-4,-3.163276 -2.628661,-5.728215 -5.873047,-5.728516 z M 56.386719,80.173828 c -7.947859,-1.07e-4 -14.390885,4.273382 -14.390625,9.544922 -2.6e-4,5.27154 6.442766,9.545029 14.390625,9.544922 7.947859,1.07e-4 14.390885,-4.273382 14.390625,-9.544922 2.6e-4,-5.27154 -6.442766,-9.545029 -14.390625,-9.544922 z"
     style="fill:#917c65;fill-opacity:1;stroke:none;stroke-width:7.55906;stroke-linecap:round;stroke-dashoffset:37.0394;stroke-opacity:1;stop-color:#000000"
     id="path2046" />
  <path
     sodipodi:nodetypes="cccccc"
     id="check:Sheik_at_Colossus"
     style="fill:#008080;fill-opacity:1;stroke:none;stroke-width:7.55906;stroke-linecap:round;stroke-dashoffset:37.0394;stroke-opacity:1;stop-color:#000000"
     d="m 68.632812,105.43164 c -3.209521,0.0447 -5.785818,2.46445 -5.785156,5.43359 8.57e-4,2.99985 2.629968,5.43136 5.873047,5.43165 3.243841,7.1e-4 5.874143,-2.4311 5.875,-5.43165 3.01e-4,-3.00131 -2.63034,-5.4343 -5.875,-5.43359 -0.0293,-2e-4 -0.05859,-2e-4 -0.08789,0 z"
     inkscape:label="Pool" />
  <circle
     inkscape:label="check:Sheik_at_Colossus"
     r="2"
     cy="60.976387"
     cx="17.954447"
     id="path3054"
     style="fill:#ff0000;stroke-width:4.09317;stop-color:#000000" />
  <circle
     style="fill:#000000;stroke-width:4.09317;stop-color:#000000"
     id="check:Colossus_Freestanding_PoH"
     cx="100.50906"
     cy="26.580908"
     r="2"
     inkscape:label="check:Colossus_Great_Fairy_Reward" />
  <circle
     sodipodi:insensitive="true"
     inkscape:label="check:Colossus_Freestanding_PoH"
     r="2"
     cy="60.880985"
     cx="30.465694"
     id="path3054-8-5"
     style="fill:#000000;stroke-width:4.09317;stop-color:#000000" />
  <circle
     style="fill:#ffffff;stroke-width:4.09317;stop-color:#000000"
     id="check:Colossus_GS_Hill"
     cx="14.951759"
     cy="66.867592"
     r="2"
     inkscape:label="check:Colossus_GS_Bean_Patch" />
  <circle
     inkscape:label="check:Colossus_GS_Hill"
     r="2"
     cy="50.669861"
     cx="83.895988"
     id="path3054-5-5"
     style="fill:#ffffff;stroke-width:4.09317;stop-color:#000000" />
  <circle
     style="fill:#ffffff;stroke-width:4.09317;stop-color:#000000"
     id="check:Colossus_GS_Tree"
     cx="60.637691"
     cy="113.38418"
     r="2"
     inkscape:label="check:Colossus_GS_Tree" />
</svg>
