<?xml version="1.0" encoding="utf-8"?>
<!-- Created with Inkscape (http://www.inkscape.org/) -->
<svg id="svg940" inkscape:version="1.1.2 (0a00cf5, 2022-02-04)" sodipodi:docname="map-market.png.svg" version="1.1" viewBox="0 0 467.10547 380.42773" xmlns="http://www.w3.org/2000/svg" xmlns:inkscape="http://www.inkscape.org/namespaces/inkscape" xmlns:sodipodi="http://sodipodi.sourceforge.net/DTD/sodipodi-0.dtd">
 <defs id="defs944"/>
 <sodipodi:namedview bordercolor="#666666" borderopacity="1.0" fit-margin-bottom="0" fit-margin-left="0" fit-margin-right="0" fit-margin-top="0" id="namedview942" inkscape:current-layer="g946" inkscape:cx="292.54012" inkscape:cy="163.36656" inkscape:pagecheckerboard="0" inkscape:pageopacity="0.0" inkscape:pageshadow="2" inkscape:window-height="743" inkscape:window-maximized="0" inkscape:window-width="998" inkscape:window-x="402" inkscape:window-y="25" inkscape:zoom="1.052847" pagecolor="#ffffff" showgrid="false"/>
 <g id="Image" inkscape:groupmode="layer" inkscape:label="Image" transform="translate(-108.28125,-129.08008)">
  <path d="m 468.11719,129.08008 v 89.12109 h -17.72461 v 4.00586 h -21.94922 v -3.82422 h -43.85938 v 3.93555 h -20.18554 v -9.37695 h -9.13867 v 9.37695 h -21.61329 v -44.21289 h -12.01367 v 40.35547 h -13.6875 v -9.4043 h -9.13867 v 9.4043 H 270.5918 v -4 h -19.36719 v 4.84179 h -22.30078 v -6.36132 h -98.45899 -22.18359 v 21.90039 88.85937 22.07031 h 37.00781 v 9.36524 h 9.13867 v -9.36524 h 15.32032 v 9.41993 h 9.13867 v -9.41993 h 50.25195 v -6.30664 h 21.89649 v 5.90821 h 19.67968 v -5.90821 h 3.67969 v 9.39454 h 9.13867 v -9.39454 h 38.63477 v 48.9375 h -12.39453 v 121.10547 h 36.00976 v -38.55078 h 9.94922 v -9.13867 h -9.94922 v -73.41602 h -12.21289 v -57.17382 h 64.64258 v 5.90625 h 10.19141 v -19.68946 h -28.51368 v -10.82226 h 9.69336 v -9.13867 h -9.69336 v -27.19336 h 9.69336 v -9.13868 h -9.69336 v -10.85742 h 30.58985 v -14.12109 h 17.96289 v -3.51758 h 21.94922 v 3.69336 h 52.24609 72.74805 V 129.08008 Z M 228.92383,229.99414 h 22.30078 v 4 h 27.80859 v 40.5332 h -9.40625 v 9.13868 h 9.40625 v 40.06054 h -27.99804 v 5.56446 h -21.89649 v -5.58985 H 130.46484 V 234.8418 h 98.45899 z" id="Main" inkscape:label="Main" style="fill:#564429"/>
  <circle cx="149.85878" cy="350.7157" id="check:Market_Lost_Dog" inkscape:label="check:Market_Lost_Dog" r="1.5" style="fill:#000000;stroke-width:0.194566"/>
  <circle cx="278.9646" cy="344.3045" id="check:Market_Treasure_Chest_Game_Reward" inkscape:label="check:Market_Treasure_Chest_Game_Reward" r="1.5" style="fill:#000000;stroke-width:0.194566"/>
  <circle cx="303.37601" cy="213.82498" id="check:Market_Shooting_Gallery_Reward" inkscape:label="check:Market_Shooting_Gallery_Reward" r="1.5" style="fill:#000000;stroke-width:0.194566"/>
  <circle cx="348.98846" cy="464.38821" id="check:Market_10_Big_Poes" inkscape:label="check:Market_10_Big_Poes" r="1.5" style="fill:#000000;stroke-width:0.194566"/>
  <circle cx="352.98846" cy="468.38821" id="check:Market_GS_Guard_House" inkscape:label="check:Market_GS_Guard_House" r="1.5" style="fill:#ffffff;stroke-width:0.194566"/>
  <circle cx="272.31897" cy="277.18127" id="check:Market_Bombchu_Bowling_First_Prize" inkscape:label="check:Market_Bombchu_Bowling_First_Prize" r="1.5" style="fill:#000000;stroke-width:0.194566"/>
  <circle cx="276.31897" cy="281.18127" id="check:Market_Bombchu_Bowling_Second_Prize" inkscape:label="check:Market_Bombchu_Bowling_Second_Prize" r="1.5" style="fill:#000000;stroke-width:0.194566"/>
  <circle cx="557.79022" cy="144.41185" id="check:Sheik_at_Temple" inkscape:label="check:Sheik_at_Temple" r="1.5" style="fill:#ff0000;stroke-width:0.194566"/>
  <circle cx="561.79022" cy="148.41185" id="check:ToT_Light_Arrow" inkscape:label="check:ToT_Light_Arrow" r="1.5" style="fill:#000000;stroke-width:0.194566"/>
 </g>
</svg>