<?xml version="1.0" encoding="UTF-8" standalone="no"?>
<!-- Created with Inkscape (http://www.inkscape.org/) -->

<svg
   version="1.1"
   id="svg940"
   viewBox="0 0 467.10547 380.42773"
   sodipodi:docname="map-market.png.svg"
   inkscape:version="1.1.2 (0a00cf5, 2022-02-04)"
   xmlns:inkscape="http://www.inkscape.org/namespaces/inkscape"
   xmlns:sodipodi="http://sodipodi.sourceforge.net/DTD/sodipodi-0.dtd"
   xmlns="http://www.w3.org/2000/svg"
   xmlns:svg="http://www.w3.org/2000/svg">
  <defs
     id="defs944" />
  <sodipodi:namedview
     id="namedview942"
     pagecolor="#ffffff"
     bordercolor="#666666"
     borderopacity="1.0"
     inkscape:pageshadow="2"
     inkscape:pageopacity="0.0"
     inkscape:pagecheckerboard="0"
     showgrid="false"
     fit-margin-top="0"
     fit-margin-left="0"
     fit-margin-right="0"
     fit-margin-bottom="0"
     inkscape:zoom="1.052847"
     inkscape:cx="292.54012"
     inkscape:cy="163.36656"
     inkscape:window-width="998"
     inkscape:window-height="743"
     inkscape:window-x="402"
     inkscape:window-y="25"
     inkscape:window-maximized="0"
     inkscape:current-layer="g946" />
  <g
     inkscape:groupmode="layer"
     inkscape:label="Image"
     id="g946"
     transform="translate(-108.28125,-129.08008)">
    <path
       id="rect2420-1-2-0"
       style="fill:#564429"
       d="m 468.11719,129.08008 v 89.12109 h -17.72461 v 4.00586 h -21.94922 v -3.82422 h -43.85938 v 3.93555 h -20.18554 v -9.37695 h -9.13867 v 9.37695 h -21.61329 v -44.21289 h -12.01367 v 40.35547 h -13.6875 v -9.4043 h -9.13867 v 9.4043 H 270.5918 v -4 h -19.36719 v 4.84179 h -22.30078 v -6.36132 h -98.45899 -22.18359 v 21.90039 88.85937 22.07031 h 37.00781 v 9.36524 h 9.13867 v -9.36524 h 15.32032 v 9.41993 h 9.13867 v -9.41993 h 50.25195 v -6.30664 h 21.89649 v 5.90821 h 19.67968 v -5.90821 h 3.67969 v 9.39454 h 9.13867 v -9.39454 h 38.63477 v 48.9375 h -12.39453 v 121.10547 h 36.00976 v -38.55078 h 9.94922 v -9.13867 h -9.94922 v -73.41602 h -12.21289 v -57.17382 h 64.64258 v 5.90625 h 10.19141 v -19.68946 h -28.51368 v -10.82226 h 9.69336 v -9.13867 h -9.69336 v -27.19336 h 9.69336 v -9.13868 h -9.69336 v -10.85742 h 30.58985 v -14.12109 h 17.96289 v -3.51758 h 21.94922 v 3.69336 h 52.24609 72.74805 V 129.08008 Z M 228.92383,229.99414 h 22.30078 v 4 h 27.80859 v 40.5332 h -9.40625 v 9.13868 h 9.40625 v 40.06054 h -27.99804 v 5.56446 h -21.89649 v -5.58985 H 130.46484 V 234.8418 h 98.45899 z"
       inkscape:label="Main" />
    <circle
       style="fill:#000000;stroke-width:0.194566"
       id="path2700-6-2"
       cx="149.85878"
       cy="350.7157"
       r="1.5"
       inkscape:label="check:MarketLostDog" />
    <circle
       style="fill:#000000;stroke-width:0.194566"
       id="path2700-6-2-1"
       cx="278.9646"
       cy="344.3045"
       r="1.5"
       inkscape:label="check:MarketTreasureChestGameReward" />
    <circle
       style="fill:#000000;stroke-width:0.194566"
       id="path2700-6-2-1-8"
       cx="303.37601"
       cy="213.82498"
       r="1.5"
       inkscape:label="check:MarketShootingGalleryReward" />
    <circle
       style="fill:#000000;stroke-width:0.194566"
       id="path2700-7"
       cx="348.98846"
       cy="464.38821"
       r="1.5"
       inkscape:label="check:Market10BigPoes" />
    <circle
       style="fill:#ffffff;stroke-width:0.194566"
       id="path2700-6-9"
       cx="352.98846"
       cy="468.38821"
       r="1.5"
       inkscape:label="check:MarketGSGuardHouse" />
    <circle
       style="fill:#000000;stroke-width:0.194566"
       id="path2700"
       cx="272.31897"
       cy="277.18127"
       r="1.5"
       inkscape:label="check:MarketBombchuBowlingFirstPrize" />
    <circle
       style="fill:#000000;stroke-width:0.194566"
       id="path2700-6"
       cx="276.31897"
       cy="281.18127"
       r="1.5"
       inkscape:label="check:MarketBombchuBowlingSecondPrize" />
    <circle
       style="fill:#ff0000;stroke-width:0.194566"
       id="path2700-2"
       cx="557.79022"
       cy="144.41185"
       r="1.5"
       inkscape:label="check:SheikatTemple" />
    <circle
       style="fill:#000000;stroke-width:0.194566"
       id="path2700-6-0"
       cx="561.79022"
       cy="148.41185"
       r="1.5"
       inkscape:label="check:ToTLightArrow" />
  </g>
</svg>
