<?xml version="1.0" encoding="UTF-8" standalone="no"?>
<svg
   xmlns:dc="http://purl.org/dc/elements/1.1/"
   xmlns:cc="http://creativecommons.org/ns#"
   xmlns:rdf="http://www.w3.org/1999/02/22-rdf-syntax-ns#"
   xmlns:svg="http://www.w3.org/2000/svg"
   xmlns="http://www.w3.org/2000/svg"
   xmlns:sodipodi="http://sodipodi.sourceforge.net/DTD/sodipodi-0.dtd"
   xmlns:inkscape="http://www.inkscape.org/namespaces/inkscape"
   inkscape:version="1.0 (4035a4fb49, 2020-05-01)"
   sodipodi:docname="map-sacred_forest_meadow.svg"
   viewBox="0 0 49.463757 204.96875"
   height="204.96875"
   width="49.463757"
   id="svg3639"
   version="1.1">
  <metadata
     id="metadata3645">
    <rdf:RDF>
      <cc:Work
         rdf:about="">
        <dc:format>image/svg+xml</dc:format>
        <dc:type
           rdf:resource="http://purl.org/dc/dcmitype/StillImage" />
        <dc:title />
      </cc:Work>
    </rdf:RDF>
  </metadata>
  <defs
     id="defs3643" />
  <sodipodi:namedview
     inkscape:current-layer="g3647"
     inkscape:window-maximized="1"
     inkscape:window-y="-8"
     inkscape:window-x="892"
     inkscape:cy="149.85651"
     inkscape:cx="25.274092"
     inkscape:zoom="4.761062"
     showgrid="false"
     id="namedview3641"
     inkscape:window-height="705"
     inkscape:window-width="1366"
     inkscape:pageshadow="2"
     inkscape:pageopacity="0"
     guidetolerance="10"
     gridtolerance="10"
     objecttolerance="10"
     borderopacity="1"
     bordercolor="#666666"
     pagecolor="#ffffff"
     inkscape:document-rotation="0"
     fit-margin-top="0"
     fit-margin-left="0"
     fit-margin-right="0"
     fit-margin-bottom="0" />
  <g
     id="g3647"
     inkscape:label="Image"
     inkscape:groupmode="layer"
     transform="translate(-17.223048,-7.5605469)">
    <path
       inkscape:label="Walls"
       id="path4326"
       d="m 35.644491,106.3394 h 17.822245 l 10.80464,12.54164 2.415427,17.85316 v 35.28625 l -5.881041,15.54275 -8.971778,5.95633 -28.96289,0.89063 -5.648046,-4.43154 V 144.0855 l 10.606878,-27.61989 z"
       style="display:inline;fill:#009a5c;fill-opacity:1;stroke:none;stroke-width:1px;stroke-linecap:butt;stroke-linejoin:miter;stroke-opacity:1" />
    <path
       inkscape:label="Path"
       d="M 24.785156,7.5605469 V 49.988281 H 39.90625 v 71.021489 h -9.046875 v 3.44921 27.21094 h 13.472656 v 3.60547 H 26.511719 v 5.79297 13.21875 h 5.791015 19.605469 v 4.30664 h -1.931641 v -2.37695 h -5.792968 v 2.37695 H 21.3125 v 5.79297 h 10.931641 l -9.373047,10.02344 9.357422,11.58593 v 6.53321 h 7.722656 v -7.12696 l 11.882812,-11.88281 -7.738281,-9.13281 h 13.605469 v -5.79297 -10.09961 h -7.72461 v -2.67383 h -5.792968 v 2.67383 h -11.88086 v -7.42578 H 33.9375 v 2.82226 h 5.791016 v -2.82226 h 23.466796 v -5.79297 H 50.125 v -3.60547 H 61.519531 V 121.00977 H 49.148438 V 49.988281 H 62.171875 V 7.5605469 Z M 37.755859,127.90625 h 16.867188 v 6.50391 h -2.195313 v 5.79101 h 2.195313 v 4.57227 H 37.755859 v -7.32032 h 2.121094 v -5.79101 h -2.121094 z m 3.978516,3.83008 v 8.61328 h 8.613281 v -8.61328 z"
       style="display:inline;fill:#00653c;fill-opacity:1;stroke:none;stroke-width:6.897;stop-color:#000000"
       id="rect4212" />
    <path
       inkscape:label="Water"
       transform="translate(17.223048,7.5605469)"
       d="m 35.650391,113.44922 v 8.64648 h 8.646484 v -8.64648 z m -22.013672,22.01367 v 8.64649 h 8.646484 v -8.64649 z m 23.689453,10.8457 v 8.64649 h 8.646484 v -8.64649 z M 2.0898438,169.51562 v 8.64649 h 8.6464842 v -8.64649 z"
       style="fill:#6c64d4;fill-opacity:1;stroke:none;stroke-width:6.897;stroke-opacity:1;stop-color:#000000"
       id="rect4328" />
    <circle
       inkscape:label="check:SongfromSaria"
       r="1"
       cy="28.304045"
       cx="41.957249"
       id="path836"
       style="fill:#ff0000;stroke-width:2.94321;stop-color:#000000" />
    <circle
       inkscape:label="check:SheikinForest"
       style="fill:#ff0000;stroke-width:2.94321;stop-color:#000000"
       id="path836-5"
       cx="45.957249"
       cy="32.304047"
       r="1" />
    <circle
       inkscape:label="check:SFMWolfosGrottoChest"
       r="1"
       cy="194.07356"
       cx="38.016727"
       id="path836-5-0"
       style="fill:#000000;stroke-width:2.94321;stop-color:#000000" />
    <circle
       inkscape:label="check:SFMGS"
       r="1"
       cy="141.56427"
       cx="64.06134"
       id="path836-5-01"
       style="fill:#ffffff;stroke-width:2.94321;stop-color:#000000" />
  </g>
</svg>
