<?xml version="1.0" encoding="UTF-8" standalone="no"?>
<svg
   xmlns:dc="http://purl.org/dc/elements/1.1/"
   xmlns:cc="http://creativecommons.org/ns#"
   xmlns:rdf="http://www.w3.org/1999/02/22-rdf-syntax-ns#"
   xmlns:svg="http://www.w3.org/2000/svg"
   xmlns="http://www.w3.org/2000/svg"
   xmlns:sodipodi="http://sodipodi.sourceforge.net/DTD/sodipodi-0.dtd"
   xmlns:inkscape="http://www.inkscape.org/namespaces/inkscape"
   inkscape:version="1.0 (4035a4fb49, 2020-05-01)"
   sodipodi:docname="map-jabu_jabus_belly.svg"
   viewBox="0 0 1493.8379 2611.4609"
   height="2611.4609"
   width="1493.8379"
   id="svg2586"
   version="1.1">
  <metadata
     id="metadata2592">
    <rdf:RDF>
      <cc:Work
         rdf:about="">
        <dc:format>image/svg+xml</dc:format>
        <dc:type
           rdf:resource="http://purl.org/dc/dcmitype/StillImage" />
        <dc:title></dc:title>
      </cc:Work>
    </rdf:RDF>
  </metadata>
  <defs
     id="defs2590" />
  <sodipodi:namedview
     inkscape:current-layer="g2594"
     inkscape:window-maximized="0"
     inkscape:window-y="17"
     inkscape:window-x="0"
     inkscape:cy="1120.5588"
     inkscape:cx="987.86958"
     inkscape:zoom="0.22460417"
     fit-margin-bottom="0"
     fit-margin-right="0"
     fit-margin-left="0"
     fit-margin-top="0"
     showgrid="false"
     id="namedview2588"
     inkscape:window-height="1001"
     inkscape:window-width="1904"
     inkscape:pageshadow="2"
     inkscape:pageopacity="0"
     guidetolerance="10"
     gridtolerance="10"
     objecttolerance="10"
     borderopacity="1"
     bordercolor="#666666"
     pagecolor="#ffffff" />
  <g
     transform="translate(-54.306641,-7.8710938)"
     id="g2594"
     inkscape:label="Image"
     inkscape:groupmode="layer">
    <path
       d="m 250.54453,973.52724 a 144.81882,144.81882 0 0 0 -144.8203,144.81836 144.81882,144.81882 0 0 0 144.8203,144.8183 144.81882,144.81882 0 0 0 140.9942,-111.7617 h 254.8945 v 72.4102 l -64.5371,80.2793 -71.6231,62.1777 -47.2246,19.6758 -39.3515,-18.1016 -44.8633,18.1016 -73.9824,62.9648 -25.9727,43.2891 -3.1484,44.0742 72.4082,85.791 46.4375,3.9336 48.7969,-21.25 70.8359,-61.3906 24.3984,-42.5 -15.7422,-43.2891 26.7618,-41.7148 74.7695,-64.5391 33.0566,-8.6562 h 37.7793 l 15.7403,-15.7422 44.8632,16.5293 h 118.8457 l 77.1309,-88.1504 v -54.7715 c 69.05117,-0.238 121.81487,-1.9741 160.28127,-1.5312 41.2362,0.4748 65.3143,4.9117 73.9921,9.5879 8.6779,4.6761 11.3678,7.5647 15.2832,31.666 2.7672,17.033 3.7544,42.4504 4.1036,76.0703 l -52.1719,27.1289 -34.6309,64.5391 v 46.4355 h -77.1328 v 97.5957 h 77.9199 v 47.2227 l 33.8438,65.3261 48.0098,23.6114 5.9414,0.5019 c 0.083,42.2123 0.45,75.6516 -4.7051,93.1113 -5.5704,18.8663 -20.5405,20.8812 -28.9121,23.4219 -8.3716,2.5406 -17.6354,8.4916 -51.9278,-0.6484 -34.2924,-9.1401 -112.5404,-39.7902 -170.95887,-61.7461 h -44.9239 l -21.7715,-51.707 -83.4804,-35.0625 -85.7071,35.0625 -11.6875,28.9394 -40.0703,7.791 -47.8613,-24.4863 h -72.3496 l -47.8613,25.043 v 92.9414 l 45.0781,26.1582 h 74.5762 l 47.8613,-24.4883 37.8457,7.2344 13.9121,30.6093 85.1504,34.5059 84.5937,-35.0625 21.8594,-52.8691 h 44.836 c 58.85327,22.1193 104.92647,41.6944 144.27337,52.1816 39.3468,10.4873 67.7633,15.7511 98.9414,6.2891 31.1781,-9.462 59.989,-38.634 69.4219,-70.5821 8.5497,-28.957 6.5202,-60.4574 6.0644,-103.0547 l 57.791,-29.2695 32.2696,-66.1133 v -188.8925 l -33.0567,-63.752 -50.8476,-26.0937 c -0.2001,-35.6249 -1.1089,-64.3 -5.1407,-89.1172 -5.5783,-34.3379 -21.876,-66.2771 -51.1738,-82.0645 -29.2978,-15.7874 -62.1837,-17.4499 -106.3926,-17.959 -41.1902,-0.4742 -93.2761,1.2789 -161.08587,1.5235 v -49.9551 l -77.918,-88.93749 h -149.541 l -41.7148,32.26949 -36.2051,54.3067 v 8.6582 H 391.89803 A 144.81882,144.81882 0 0 0 250.54453,973.52724 Z"
       style="fill:#00006d;fill-opacity:1;stroke:none;stroke-linecap:round;stroke-linejoin:bevel;stop-color:#000000"
       id="path3253" />
    <path
       d="M 722.91406,7.8710938 674.90234,51.945312 V 202.27344 l 48.01172,48.01172 h 42.10742 v 368.34375 l -29.9082,29.9082 L 565.10742,563.5332 V 302.23047 h 38.17383 l 48.79687,-48.79688 V 107.03906 L 604.85547,59.816406 H 460.03516 L 412.02539,103.89258 V 254.2207 l 48.00977,48.00977 h 40.53515 v 245.5625 H 294.35938 V 505.29102 L 247.13672,458.06836 H 102.31836 l -48.011719,44.07422 v 150.33008 l 48.011719,48.00976 H 245.5625 l 48.79688,-48.79687 V 612.08789 L 525.75586,610.75781 766.5957,726.30664 V 991.69336 H 648.53711 V 1342.7227 H 766.5957 v 322.4316 a 113.33647,113.33647 0 0 0 -77.39258,77.3945 H 420.28906 v -40.9277 l -31.48242,-31.4824 H 288.06445 V 1238.043 h 20.46289 l 65.71875,-65.7188 V 1060.9551 L 312.26562,998.97461 H 199.91211 l -66.11133,58.83199 v 114.9102 l 65.32422,65.3262 h 22.82617 v 432.0957 h -58.24219 l -28.33398,28.334 v 163.7089 l 92.87109,92.8731 h 113.33789 l 78.70508,-78.707 v -70.834 h 268.91406 a 113.33647,113.33647 0 0 0 77.39258,77.3925 v 257.8946 l -110.18945,229.8203 96.02148,248.7109 h 92.87305 l 97.5957,-250.2851 -111.76171,-228.2461 h 0.32812 v -258.461 a 113.33647,113.33647 0 0 0 75.49023,-76.8261 h 285.19728 l 34.6777,9.4433 v 90.709 l 65.5235,65.5235 h 115.3027 l 140.4902,-140.4903 v -103.1054 l -68.4746,-68.4747 h -85.0019 l -23.6114,-31.4824 v -124.3535 h -56.6679 v 124.3535 l -17.3164,23.6133 14.1679,48.7969 -37.7793,37.7793 -45.6484,-12.5938 -39.1289,18.8906 H 907.39648 a 113.33647,113.33647 0 0 0 -76.26171,-78.5 V 1342.7227 H 949.19336 V 991.69336 H 835.85742 V 723.49219 L 1073.5488,610.75781 h 229.4278 v 44.86133 l 48.0097,48.01172 h 143.2442 l 48.7988,-48.79883 V 508.43945 l -47.2246,-47.22265 h -144.8184 l -48.0097,44.07422 v 44.07617 H 1094.0117 V 297.50781 h 39.7461 l 48.7988,-48.79687 V 102.31836 L 1135.332,55.09375 H 990.51367 L 942.50391,99.169922 V 249.49805 l 48.00976,48.00976 h 38.95903 V 560.38672 L 865.76562,645.38867 832.70898,612.33203 V 250.28516 h 33.44922 l 48.79688,-48.79883 V 55.09375 L 867.73242,7.8710938 Z"
       style="fill:#0000ff;fill-opacity:1;stroke:none;stroke-width:1px;stroke-linecap:butt;stroke-linejoin:miter;stroke-opacity:1"
       id="path3169" />
  </g>
</svg>
