<?xml version="1.0" encoding="UTF-8" standalone="no"?>
<svg
   xmlns:dc="http://purl.org/dc/elements/1.1/"
   xmlns:cc="http://creativecommons.org/ns#"
   xmlns:rdf="http://www.w3.org/1999/02/22-rdf-syntax-ns#"
   xmlns:svg="http://www.w3.org/2000/svg"
   xmlns="http://www.w3.org/2000/svg"
   xmlns:sodipodi="http://sodipodi.sourceforge.net/DTD/sodipodi-0.dtd"
   xmlns:inkscape="http://www.inkscape.org/namespaces/inkscape"
   inkscape:version="1.0 (4035a4fb49, 2020-05-01)"
   sodipodi:docname="map-spirit_temple.svg"
   viewBox="0 0 3413.2461 2774.0879"
   height="2774.0879"
   width="3413.2461"
   id="svg1532"
   version="1.1">
  <metadata
     id="metadata1538">
    <rdf:RDF>
      <cc:Work
         rdf:about="">
        <dc:format>image/svg+xml</dc:format>
        <dc:type
           rdf:resource="http://purl.org/dc/dcmitype/StillImage" />
        <dc:title></dc:title>
      </cc:Work>
    </rdf:RDF>
  </metadata>
  <defs
     id="defs1536" />
  <sodipodi:namedview
     inkscape:current-layer="g1540"
     inkscape:window-maximized="1"
     inkscape:window-y="-8"
     inkscape:window-x="-8"
     inkscape:cy="1680.7173"
     inkscape:cx="1534.7493"
     inkscape:zoom="0.14508772"
     fit-margin-bottom="0"
     fit-margin-right="0"
     fit-margin-left="0"
     fit-margin-top="0"
     showgrid="false"
     id="namedview1534"
     inkscape:window-height="1017"
     inkscape:window-width="1920"
     inkscape:pageshadow="2"
     inkscape:pageopacity="0"
     guidetolerance="10"
     gridtolerance="10"
     objecttolerance="10"
     borderopacity="1"
     bordercolor="#666666"
     pagecolor="#ffffff" />
  <g
     transform="translate(-83.871094,-41.787109)"
     id="g1540"
     inkscape:label="Image"
     inkscape:groupmode="layer">
    <path
       d="m 1400.8984,1028.9648 -56.1601,56.1602 v 78.832 l 56.1601,56.1602 h 14.8184 v 61.4492 h -71.6074 v 32.0527 h -31.8223 v 30.0821 h 31.8223 v 78.1562 h -33.9473 v 33.3184 h 33.9473 v 75.0234 h -34.0625 v 30.8047 h 34.0625 v 42.3086 l 12.3652,20.1406 -69.6465,40.209 -15.1308,-26.207 h -12.668 v -8.7637 h 31.4336 l 17.2891,-17.2891 V 1453.291 l -16.293,-16.293 h -31.3809 v -106.2988 h -47.7812 v 306.584 h -12.1543 l -15.3301,26.5527 -69.3867,-40.0586 12.6875,-21.9746 v -208.2363 l -96.3223,-96.3203 h -95.90038 v 304.4121 l 48.10547,83.3223 h 95.65041 l 12.123,-20.9981 69.7715,40.2813 -13.2871,23.0136 v 105.1055 H 971.37891 v -35.6621 l -80.33399,-57.5918 H 729.47461 l -80.67969,58.6758 v 37.7207 l -41.91211,8.8027 v 21.5606 h -97.14258 v -21.3379 H 467.6582 v -125.3613 l -8.86914,-14.7891 69.69141,-40.2383 12.18164,21.0977 h 96.13477 l 48.14648,-83.3926 V 1546.125 H 492.64648 v 55.8828 l 12.1211,20.9961 -69.53516,40.1465 -8.67578,-15.0274 h -35.51953 v -96.9687 h 40.23437 v -116.0957 h -23.4707 V 1339.5 h -47.7793 v 95.5586 h -23.4707 v 116.0957 h 41.49414 v 96.9687 h -35.08008 l -9.11718,15.793 -70.33594,-40.6074 12.40039,-21.4785 h -32.30273 l -39.41602,-55.7149 h -48.01172 l -40.30469,56.1739 H 83.970703 l 48.207027,83.498 h 96.54493 l 12.34375,-21.3809 69.00586,39.8399 -8.96875,15.5371 v 125.9531 c 0,61.3467 61.3457,61.9395 61.3457,61.9395 H 467.6582 v -8.002 h 42.08203 v -21.6347 h 97.14258 v 22.2402 l 40.0586,9.334 0.27148,217.8281 64.125,64.125 h 67.38281 v 101.0078 h 62.86719 v -101.0078 h 67.38281 l 63.91602,-63.916 v -215.6348 h 267.70118 c 0,0 84.2422,4.6096 84.2422,-83.8242 v -98.0742 l -14.668,-25.9844 69.9922,-39.8164 12.5742,22.1172 h 93.8809 l 49.457,-49.4551 v -129.6211 h 32.4805 v -31.4336 h -32.4805 v -76.9082 h 31.6426 v -31.8535 h -31.6426 v -85.5957 h -71.8945 v -61.4492 h 15.5586 l 56.1601,-56.1602 v -78.832 l -56.1601,-56.1602 z m -1066.75192,46.084 -57.27148,57.2715 16.81836,16.8184 h 22.375 l 34.23047,-34.2285 h 68.75586 l 17.04101,17.041 -41.63867,41.6386 h -19.56055 l -13.63281,13.6329 v 18.9668 l -42.23242,42.2324 -2.51758,-2.5196 h -22.22656 l -82.98242,82.9805 -31.41407,-31.414 H 83.871094 v 95.4277 h 32.005856 l 40.00977,56.6055 h 47.71289 l 40.60156,-56.4571 h 31.26563 l -30.82227,-30.8222 65.94141,-65.9395 23.70898,23.709 h 100.16992 l 23.85743,-23.8574 65.49609,65.4961 -32.9707,32.9687 2,55.1231 h 192.04296 v -152.5508 h -95.42968 l -31.1543,31.1543 -82.94336,-82.9434 h -22.44922 l -34.74804,34.7481 h -67.42383 l -17.85547,-17.8555 41.41797,-41.416 h 20.0039 l 13.48438,-13.4844 v -20.1523 l 41.49023,-41.4922 3.55664,3.5566 h 22.52344 l 16.66992,-16.6699 -57.56836,-57.5684 z"
       style="fill:#5b470c;fill-opacity:1;stroke-linecap:round;stroke-linejoin:bevel;stop-color:#000000"
       id="rect2105" />
    <path
       d="M 2360.8105,41.787109 2258.418,144.17969 v 557.30664 l 101.2832,100.46679 h 254.3359 v 17.8418 h -11.7363 v 219.19728 h 12.5742 v 16.3457 h -136.6328 v 143.3379 h 47.7793 v 177.2871 h 88.4336 v 82.1484 h -256.918 v 384.3301 72.5078 c 0,97.0707 -107.5644,91.4141 -107.5644,91.4141 h -21.9317 v -81.9102 h -55.123 -304.6582 v 207.5664 161.2207 h 39.1191 v 16.0039 h -19.5605 v 266.7247 h 19.5605 v 16.0039 h -63.8398 v 223.457 h 336.1953 v -87.1309 h 195.0058 v 35.252 h 82.9649 v -82.9668 h -74.3711 -203.5996 v -88.6113 h -225.5313 v -16.0039 h 18.9688 v -266.7247 h -18.375 v -16.0039 h 218.1211 v -161.2207 h 55.123 v -80.0156 h 21.9317 c 163.8875,0 154.9238,-137.0547 154.9238,-137.0547 v -72.5078 h 466.0586 v 61.1914 c 0,0 -10.4767,147.7383 158.4277,147.7383 h 19.0938 v 31.1191 h 77.2422 v 35.8985 h -9.7793 -68.1641 v 29.6347 h -81.2031 v -68.7558 h -159.4414 v 148.7734 h 159.4414 v -31.414 h 81.2031 v 23.7089 h 68.1641 v -69.3476 h 104.0214 v 69.6445 h 68.1641 v -24.2461 h 17.4551 v 96.6055 h 73.3457 v 15.918 h -21.1641 v 266.9863 h 20.9551 v 16.5215 h -225.7266 v 87.8965 h -194.7832 -82.9648 v 82.9648 h 82.9648 v -35.252 h 194.7832 v 87.8477 h 336.1953 v -223.457 h -64.9941 v -16.5215 h 20.7461 v -266.9863 h -19.9082 v -15.918 h 72.0879 v -335.7695 h -100.7969 v -17.127 l 40.8633,-40.8633 v -47.5703 l -31.8535,-31.8535 h -64.125 l -32.2715,32.2715 v 47.3613 l 41.0742,40.4063 v 17.375 h -44.4277 v 192.8515 h -17.4551 v -31.6855 h -56.0137 -21.041 v -35.8848 l 8.8692,-8.8672 h 33.6152 l 10.1152,9.2735 h 24.8321 v -34.2637 h -24.8321 l -9.5801,9.5801 h -33.5605 l -9.459,-9.459 v -33.8008 l 8.834,-9.6348 h 0.072 v -24.791 h -34.336 v 24.791 l 9.1309,9.1309 v 34.5996 l -9.1621,9.1641 h -31.9356 l -10.8457,-9.9454 h -25.9863 v -68.2207 h -68.3652 v 25.2071 h -19.0938 c 0,0 -111.0664,6.4975 -111.0664,-101.6348 v -80.4668 -365.0547 h -256.9199 v -82.1484 h 88.0156 v -177.2871 h 48.1973 V 1055.3379 H 2662.654 v -16.3457 h 10.8965 V 819.79492 h -11.7344 v -17.8418 H 2916.488 L 3018.7324,699.70898 V 144.32812 L 2916.1914,41.787109 Z M 3151.7344,2073.6367 h 34.4648 l 8.5723,8.5723 v 36.1797 h -53.0488 v -35.8985 h 1.0332 l 0.072,0.053 z"
       style="fill:#896c11;fill-opacity:1;stroke:none;stroke-width:1.45113;stroke-linecap:round;stroke-linejoin:bevel;stop-color:#000000"
       id="rect2195" />
    <path
       d="m 1379.2637,146.40234 v 145.2168 H 1315.25 v 144.03125 h -17.4863 V 328.07227 h -79.8086 v -13.31446 -47.36133 h -47.3594 v 47.36133 h -47.7793 v 13.31446 h -6.7207 V 530.7832 h 46.5273 v 23.70899 h 40.0098 V 530.7832 h 95.1309 v -48.90039 h 53.5293 140.5879 v 49.19531 h 81.2031 v 17.78321 h -16.5957 v 105.5039 h 78.832 32.0059 v -77.05468 h -32.0059 v -28.44922 h -16.0039 v -17.78321 h 81.2031 v -49.19531 h 175.4453 18.375 v 85.35157 h 222.8633 V 318.29102 h -46.8261 v -58.67969 h -96.6133 v 58.67969 h -79.4239 v 117.95312 h -18.375 v -144.625 h -64.0136 v -145.2168 z m 152.9218,589.75782 v 78.83203 h 217.5293 v -78.83203 z"
       style="fill:#b48c16;fill-opacity:1;stroke:none;stroke-linecap:round;stroke-linejoin:bevel;stop-color:#000000"
       id="rect2447" />
    <path
       d="M 783.33008,75.441406 V 339.48438 h 83.82422 v 49.45703 H 737.64648 V 261.10938 H 546.94922 v 127.83203 h -82.14844 v -18.19922 c 0,-16.62 -13.38,-30 -30,-30 h -82.5 c -16.62,0 -30,13.38 -30,30 v 82.5 c 0,16.62 13.38,30 30,30 h 18.0957 v 41.91211 h -21.5664 c -27.7,0 -50,22.3 -50,50 v 89.86132 c 0,27.70001 22.3,50 50,50 h 89.86133 c 27.7,0 50,-22.29999 50,-50 v -20.83203 h 82.5664 v 18.19922 c 0,16.62 13.38,30 30,30 h 82.5 c 16.62,0 30,-13.38 30,-30 v -82.5 c 0,-16.62 -13.38,-30 -30,-30 h -18.61719 v -90.52929 h 72.50586 v -23.89063 h 97.23438 l 32.69336,32.69141 V 575.86719 H 811.41211 V 709.98438 H 970.67578 V 575.86719 H 914.51562 V 468.1543 l 32.27149,-40.23438 v -38.97851 h -32.27149 v -49.45703 h 84.66016 V 75.441406 Z M 464.80078,435.46289 h 82.14844 v 23.89063 h 71.66797 v 90.52929 h -17.35938 c -16.62,0 -30,13.38 -30,30 v 16.94141 h -82.5664 V 575.1543 c 0,-27.7 -22.3,-50 -50,-50 h -22.60352 v -41.91211 h 18.71289 c 16.62,0 30,-13.38 30,-30 z M 867.99219,812.25 v 49.45508 h 48.19922 V 812.25 Z"
       style="fill:#e3b31e;fill-opacity:1;stroke:none;stroke-linecap:round;stroke-linejoin:bevel;stop-color:#000000"
       id="rect2482" />
  </g>
</svg>
