<?xml version="1.0" encoding="utf-8"?>
<svg id="svg833" inkscape:version="1.1.2 (0a00cf5, 2022-02-04)" sodipodi:docname="map-water_temple.svg" version="1.1" viewBox="0 0 3830 3240" xmlns="http://www.w3.org/2000/svg" xmlns:cc="http://creativecommons.org/ns#" xmlns:dc="http://purl.org/dc/elements/1.1/" xmlns:inkscape="http://www.inkscape.org/namespaces/inkscape" xmlns:rdf="http://www.w3.org/1999/02/22-rdf-syntax-ns#" xmlns:sodipodi="http://sodipodi.sourceforge.net/DTD/sodipodi-0.dtd" xmlns:xlink="http://www.w3.org/1999/xlink">
 <metadata id="metadata839">
  <rdf:RDF>
   <cc:Work rdf:about="">
    <dc:format>
     image/svg+xml
    </dc:format>
    <dc:type rdf:resource="http://purl.org/dc/dcmitype/StillImage"/>
    <dc:title/>
   </cc:Work>
  </rdf:RDF>
 </metadata>
 <defs id="defs837"/>
 <sodipodi:namedview bordercolor="#666666" borderopacity="1" gridtolerance="10" guidetolerance="10" id="namedview835" inkscape:current-layer="g841" inkscape:cx="1878.6852" inkscape:cy="1714.0582" inkscape:pagecheckerboard="0" inkscape:pageopacity="0" inkscape:pageshadow="2" inkscape:window-height="743" inkscape:window-maximized="0" inkscape:window-width="991" inkscape:window-x="-1" inkscape:window-y="25" inkscape:zoom="0.10326371" objecttolerance="10" pagecolor="#ffffff" showgrid="false"/>
 <g id="Image" inkscape:groupmode="layer" inkscape:label="Image">
  <image height="3240" id="image843" preserveAspectRatio="none" width="3830" xlink:href="map-water_temple.jpg"/>
  <path d="m 1341.2695,369.76953 v 547.80664 h 249.5098 v 16.26367 h -24.3945 v 312.84766 h 36.3769 v 17.5469 h -93.2969 v 111.4902 l -153.7128,274.7832 v 20.3027 h -16.1934 v -19.2597 h -161.3457 v -81.3145 H 960.37305 v 225.9707 h 217.83985 v -81.7441 h 161.3457 v -19.2578 h 16.1934 v 23.0898 l 79.2871,130.7324 h -78.6817 v 11.375 h -17.2265 v -115.9804 h -128.3926 v 172.9004 h 128.3926 v -32.9532 h 17.2265 v 12.4727 h 104.7071 l 113.1816,12.7109 9.0781,153.127 v 67.1836 h 63.5508 v -67.7891 l 7.2637,-153.1269 157.3633,-47.209 28.4472,-142.8379 41.1563,-12.1055 h 47.8144 v 146.4707 h 48.4199 v -193.6797 h -96.2343 l -40.5508,-23.6054 -29.6563,-151.3106 -92.1543,-107.4258 v -113.0097 h -92.8711 v -17.5469 h 36.377 V 933.83984 h -24.8223 v -16.26367 h 251.6485 V 369.76953 Z" id="3F-1" inkscape:label="3F-1" style="fill:#0000ab;fill-opacity:1;stroke-linecap:round;stroke-linejoin:bevel;stop-color:#000000"/>
  <path d="m 2167.2598,1701.1973 v 116.0547 h -16.6914 v -52.2872 h -124.9668 v 127.9629 h 124.9668 v -53.0683 h 16.6914 v 117.2656 h 257.2129 v -255.9277 z" id="3F-2" inkscape:label="3F-2" style="fill:#0000ab;fill-opacity:1;stroke:none;stroke-width:1.00512;stroke-linecap:round;stroke-linejoin:bevel;stop-color:#000000"/>
  <circle cx="2295.8662" cy="1829.1611" id="check:Water_Temple_Map_Chest" inkscape:label="check:Water_Temple_Map_Chest" r="7.5" style="fill:#000000;stroke-width:0.853059;stroke-miterlimit:1.7"/>
  <rect height="192.93384" id="3F-3" inkscape:label="3F-3" style="fill:#0000ab;fill-opacity:1;stroke:none;stroke-width:1.00279;stroke-linecap:round;stroke-linejoin:bevel;stop-color:#000000" width="193.07364" x="2123.2048" y="1329.8665"/>
  <path d="M 307.46484,13.796875 V 254.80859 h 109.24805 v 17.58789 H 24.822266 V 1078.4941 H 416.41797 v 15.7813 h -59.91602 v 300.0644 h 11.98438 v 12.8379 H 267.48438 v 115.9825 h -96.29493 v 200.291 h 96.29493 281.60546 v -28.461 h 17.11914 v 20.543 h 68.47657 v 80.6738 H 908.16016 V 1570.6641 H 634.68555 v 80.455 h -68.47657 v 20.9747 h -17.11914 v -148.9336 -115.9825 h -60.34375 v -12.8379 h 11.55469 v -300.0644 h -59.91601 v -15.7813 h 391.5957 V 272.39648 H 440.01367 V 254.80859 H 549.56445 V 13.796875 Z" id="3F-DarkLink" inkscape:label="3F-DarkLink" style="fill:#0000ab;fill-opacity:1;stroke:none;stroke-linecap:round;stroke-linejoin:bevel;stop-color:#000000"/>
  <rect height="32.526012" id="B1-SouthCorridor" inkscape:label="B1-SouthCorridor" style="fill:#000089;fill-opacity:1;stroke:none;stroke-width:0.456481;stroke-linecap:round;stroke-linejoin:bevel;stop-color:#000000" width="225.97023" x="2638.0312" y="2088.5129"/>
  <rect height="113.85977" id="rect919" style="display:inline;fill:#0000ab;fill-opacity:1;stroke:none;stroke-width:1.00702;stroke-linecap:round;stroke-linejoin:bevel;stop-color:#000000" width="549.20929" x="2127.4417" y="2048.5823"/>
  <path d="m 2967.9141,1922.8867 v 61.2012 h -97.4922 -48.7891 v 47.0762 97.1504 h 48.7891 v -97.1504 h 97.4922 46.7343 v -47.0762 -61.2012 z" id="rect923" style="display:inline;fill:#0000ab;fill-opacity:1;stroke:none;stroke-linecap:round;stroke-linejoin:bevel;stop-color:#000000"/>
  <path d="m 3202.957,1959.2637 v 232.8183 h 48.7891 48.3613 v 72.3282 h 153.2149 v 8.1308 h 120.2597 v -63.3398 h -80.0312 v -137.3789 h -193.4434 v 73.1836 h -48.3613 v -185.7422 z" id="B1-Southeast" inkscape:label="B1-Southeast" style="fill:#0000ab;fill-opacity:1;stroke:none;stroke-linecap:round;stroke-linejoin:bevel;stop-color:#000000"/>
  <rect height="49.217003" id="rect984" style="display:inline;fill:#0000ab;fill-opacity:1;stroke:none;stroke-linecap:round;stroke-linejoin:bevel;stop-color:#000000" width="149.79088" x="3204.6687" y="1660.5388"/>
  <rect height="193.44421" id="rect984-8" style="fill:#0000ab;fill-opacity:1;stroke:none;stroke-width:1.11747;stroke-linecap:round;stroke-linejoin:bevel;stop-color:#000000" width="47.59013" x="3306.8691" y="1660.5388"/>
  <rect height="47.505108" id="rect984-8-8" style="fill:#0000ab;fill-opacity:1;stroke:none;stroke-width:0.879045;stroke-linecap:round;stroke-linejoin:bevel;stop-color:#000000" width="119.91772" x="3306.8691" y="1806.4779"/>
  <rect height="129.6761" id="rect1031" style="fill:#0000ab;fill-opacity:1;stroke:none;stroke-linecap:round;stroke-linejoin:bevel;stop-color:#000000" width="125.39636" x="3402.8206" y="1766.2484"/>
  <rect height="22.276728" id="rect1033" style="fill:#0000ab;fill-opacity:1;stroke:none;stroke-width:1.02031;stroke-linecap:round;stroke-linejoin:bevel;stop-color:#000000" width="29.102226" x="3522.6533" y="1819.295"/>
  <rect height="256.35638" id="rect1035" style="fill:#0000ab;fill-opacity:1;stroke:none;stroke-linecap:round;stroke-linejoin:bevel;stop-color:#000000" width="256.78436" x="3544.48" y="1702.4802"/>
  <path d="m 2591.666,1039.8125 v 29.0527 h -19.3691 v 47.8145 h -40.5508 v 262.0723 h 48.4199 v 282.6503 47.209 h 47.8145 139.207 v -47.209 h -139.207 V 1378.752 h 48.4199 v -262.0723 h -40.5527 v -47.8145 h -18.7618 v -29.0527 z" id="rect1037" style="fill:#0000ab;fill-opacity:1;stroke:none;stroke-linecap:round;stroke-linejoin:bevel;stop-color:#000000"/>
  <rect height="78.682045" id="rect1060" style="fill:#0000ab;fill-opacity:1;stroke:none;stroke-width:1.00136;stroke-linecap:round;stroke-linejoin:bevel;stop-color:#000000" width="223.33597" x="2411.3022" y="972.63116"/>
  <rect height="160.56555" id="rect1060-6" style="fill:#0000ab;fill-opacity:1;stroke:none;stroke-width:1.21224;stroke-linecap:round;stroke-linejoin:bevel;stop-color:#000000" width="160.39034" x="2411.3022" y="890.74768"/>
  <rect height="78.076805" id="rect1077" style="fill:#0000ab;fill-opacity:1;stroke:none;stroke-linecap:round;stroke-linejoin:bevel;stop-color:#000000" width="134.36473" x="2170.4141" y="932.07965"/>
  <rect height="64.156128" id="rect1079" style="fill:#0000ab;fill-opacity:1;stroke:none;stroke-linecap:round;stroke-linejoin:bevel;stop-color:#000000" width="127.10177" x="2292.0686" y="938.73737"/>
  <path d="m 2895.6719,205.85547 v 40.23047 h -97.1504 v 20.11328 h -17.1192 v -20.04688 h -145.5117 v 418.0625 h 61.2012 v 17.54688 h -12.4121 V 825.5625 h -48.7891 v -47.93359 -47.50586 h -47.0761 -17.5469 v -47.93164 h -11.127 v -18.4043 h 59.916 V 520.41602 h -144.2285 v 143.37109 h 59.918 v 18.4043 h -11.9844 v 95.4375 h 47.5059 17.5469 v 47.93359 56.49219 h 47.0761 194.3008 v 7.70312 h 64.625 v 137.80669 h 84.3106 v 16.6914 h -43.2559 v 269.625 h 31.2715 v 79.1738 h 48.3613 v -79.1738 h 32.5254 v -269.625 h -44.9355 v -16.6914 h 85.166 V 889.75781 h 64.1953 V 632.48242 h 32.3515 v -56.58984 h -32.3515 v -7.54297 h -64.6231 v -80.88672 h -84.7382 v -16.69141 h 84.3105 V 205.85547 Z m -114.2696,84.31055 h 17.1192 v 19.25976 h 97.1504 v 161.3457 h 83.8828 v 16.69141 h -84.3106 v 80.88672 h -65.0527 V 825.5625 h -97.5781 V 681.76172 h -11.9824 v -17.54688 h 60.7714 z" id="rect1081" style="fill:#0000ab;fill-opacity:1;stroke:none;stroke-linecap:round;stroke-linejoin:bevel;stop-color:#000000"/>
  <path d="m 2822.2645,1876.2642 160.3904,83.524 25.4204,-6.0524 145.2591,-45.9988 57.4984,-203.3628 1.2105,-36.92 -52.0512,-213.652 -131.3385,-75.0506 h -74.4453 l -153.7326,138.6014 -72.0244,154.9431 0.421,29.0519 z" id="path1160" sodipodi:nodetypes="ccccccccccccc" style="fill:#0000ab;fill-opacity:1;stroke:none;stroke-width:1px;stroke-linecap:butt;stroke-linejoin:miter;stroke-opacity:1"/>
  <path d="m 356.07422,1830.873 v 95.1075 L 225.9707,1993.502 v 160.0625 l 98.4336,65.9082 v 79.6035 l -65.05274,143.7988 v 189.1641 l 49.64649,162.6308 h 224.25781 v -114.6972 l 49.64453,-177.1817 h 31.66992 v 225.9707 l 17.11914,65.9082 h 192.58789 l 31.66993,-65.9082 h 8.56054 l 16.26172,67.6192 v 112.1308 h 47.93359 V 2682.541 l -72.75585,-17.9746 v -62.4844 h -65.05079 v 63.3399 h -31.66992 v -66.7637 l -48.78906,-160.918 -61.62891,-61.6289 h -65.9082 l -99.28906,65.0528 -62.48438,255.9277 h -33.38281 l -16.26367,-68.4766 V 2441.1641 L 484.4668,2296.5078 v -80.459 l 49.64453,-223.4023 -83.02735,-65.957 v -95.8165 z" id="River" inkscape:label="River" style="fill:#0000ab;fill-opacity:1;stroke:none;stroke-linecap:round;stroke-linejoin:bevel;stop-color:#000000"/>
  <path d="m 1509.4844,2419.1699 -153.127,271.7559 v 22.3945 h -16.3418 v -52.6562 h -128.9179 v 250.5722 h 128.9179 v -174.3125 h 16.3418 v 23 l 103.4981,176.127 115.6015,15.1308 14.5254,25.8223 v 127.3047 h 49.0254 192.4688 v -47.209 -16.9473 h 97.4433 v 48.0215 h -39.664 v 129.3164 h 128.6367 v -129.3164 h -40.5528 v -48.0215 h 47.8145 v -47.6445 h -47.8145 v -145.2324 h -48.4199 v 145.2324 h -97.4433 -46.6055 v 47.6445 16.9473 h -145.8633 v -82.5351 l 15.1309,-23.9883 h 51.4453 l 88.3672,-26.6309 16.9472,-19.3672 29.0508,-143.4433 40.6094,-12.1055 h 96.7812 v -46.6738 -203.293 h 274.1778 v -63.5508 h -322.4121 v 63.5508 203.293 h -47.252 l -41.9043,-24.1387 -29.6562,-153.1289 -90.1817,-105.918 z m 516.8808,386.7539 v 129.5215 h 314.1231 v -129.5215 z" id="rect1166" style="fill:#0000ab;fill-opacity:1;stroke:none;stroke-linecap:round;stroke-linejoin:bevel;stop-color:#000000"/>
  <circle cx="1605.1729" cy="633.67285" id="check:Morpha" inkscape:label="check:Morpha" r="7.5" style="fill:#000000;stroke-width:0.853059;stroke-miterlimit:1.7"/>
  <circle cx="1625.1729" cy="653.67285" id="check:Water_Temple_Morpha_Heart" inkscape:label="check:Water_Temple_Morpha_Heart" r="7.5" style="fill:#000000;stroke-width:0.853059;stroke-miterlimit:1.7"/>
  <circle cx="2297.364" cy="1426.3334" id="check:Water_Temple_Compass_Chest" inkscape:label="check:Water_Temple_Compass_Chest" r="7.5" style="fill:#000000;stroke-width:0.853059;stroke-miterlimit:1.7"/>
  <circle cx="2265.1252" cy="2869.9885" id="check:Water_Temple_Cracked_Wall_Chest" inkscape:label="check:Water_Temple_Cracked_Wall_Chest" r="7.5" style="fill:#000000;stroke-width:0.853059;stroke-miterlimit:1.7"/>
  <circle cx="3672.8723" cy="1830.6584" id="check:Water_Temple_Torches_Chest" inkscape:label="check:Water_Temple_Torches_Chest" r="7.5" style="fill:#000000;stroke-width:0.853059;stroke-miterlimit:1.7"/>
  <circle cx="2547.9424" cy="592.10156" id="check:Water_Temple_Boss_Key_Chest" inkscape:label="check:Water_Temple_Boss_Key_Chest" r="7.5" style="fill:#000000;stroke-width:0.853059;stroke-miterlimit:1.7"/>
  <circle cx="3555.8955" cy="2242.0071" id="check:Water_Temple_Central_Pillar_Chest" inkscape:label="check:Water_Temple_Central_Pillar_Chest" r="7.5" style="fill:#000000;stroke-width:0.853059;stroke-miterlimit:1.7"/>
  <circle cx="1953.5742" cy="3152.832" id="check:Water_Temple_Central_Bow_Target_Chest" inkscape:label="check:Water_Temple_Central_Bow_Target_Chest" r="7.5" style="fill:#000000;stroke-width:0.853059;stroke-miterlimit:1.7"/>
  <circle cx="428.51465" cy="134.30273" id="check:Water_Temple_Longshot_Chest" inkscape:label="check:Water_Temple_Longshot_Chest" r="7.5" style="fill:#000000;stroke-width:0.853059;stroke-miterlimit:1.7"/>
  <circle cx="905.59283" cy="2704.7952" id="check:Water_Temple_River_Chest" inkscape:label="check:Water_Temple_River_Chest" r="7.5" style="fill:#000000;stroke-width:0.853059;stroke-miterlimit:1.7"/>
  <circle cx="2179.677" cy="971.11804" id="check:Water_Temple_Dragon_Chest" inkscape:label="check:Water_Temple_Dragon_Chest" r="7.5" style="fill:#000000;stroke-width:0.853059;stroke-miterlimit:1.7"/>
  <circle cx="2142.5728" cy="2111.0999" id="check:Water_Temple_GS_Behind_Gate" inkscape:label="check:Water_Temple_GS_Behind_Gate" r="7.5" style="fill:#ffffff;stroke-width:0.853059;stroke-miterlimit:1.7"/>
  <circle cx="2597.718" cy="857.45007" id="check:Water_Temple_GS_Near_Boss_Key_Chest" inkscape:label="check:Water_Temple_GS_Near_Boss_Key_Chest" r="7.5" style="fill:#ffffff;stroke-width:0.853059;stroke-miterlimit:1.7"/>
  <circle cx="1579.6935" cy="1600.2719" id="check:Water_Temple_GS_Central_Pillar" inkscape:label="check:Water_Temple_GS_Central_Pillar" r="7.5" style="fill:#ffffff;stroke-width:0.853059;stroke-miterlimit:1.7"/>
  <circle cx="984.13086" cy="1578.5354" id="check:Water_Temple_GS_Falling_Platform_Room" inkscape:label="check:Water_Temple_GS_Falling_Platform_Room" r="7.5" style="fill:#ffffff;stroke-width:0.853059;stroke-miterlimit:1.7"/>
  <circle cx="616.14099" cy="2386.7239" id="check:Water_Temple_GS_River" inkscape:label="check:Water_Temple_GS_River" r="7.5" style="fill:#ffffff;stroke-width:0.853059;stroke-miterlimit:1.7"/>
 </g>
</svg>