<?xml version="1.0" encoding="utf-8"?>
<svg id="svg3519" inkscape:version="1.0 (4035a4fb49, 2020-05-01)" sodipodi:docname="map-graveyard.svg" version="1.1" viewBox="0 0 186.79367 59.004326" xmlns="http://www.w3.org/2000/svg" xmlns:cc="http://creativecommons.org/ns#" xmlns:dc="http://purl.org/dc/elements/1.1/" xmlns:inkscape="http://www.inkscape.org/namespaces/inkscape" xmlns:rdf="http://www.w3.org/1999/02/22-rdf-syntax-ns#" xmlns:sodipodi="http://sodipodi.sourceforge.net/DTD/sodipodi-0.dtd" xmlns:xlink="http://www.w3.org/1999/xlink">
 <metadata id="metadata3525">
  <rdf:RDF>
   <cc:Work rdf:about="">
    <dc:format>
     image/svg+xml
    </dc:format>
    <dc:type rdf:resource="http://purl.org/dc/dcmitype/StillImage"/>
    <dc:title/>
   </cc:Work>
  </rdf:RDF>
 </metadata>
 <defs id="defs3523">
  <linearGradient id="linearGradient841" inkscape:collect="always">
   <stop id="stop837" offset="0" style="stop-color:#626e30;stop-opacity:1;"/>
   <stop id="stop839" offset="1" style="stop-color:#342d1b;stop-opacity:1"/>
  </linearGradient>
  <linearGradient gradientTransform="matrix(1.0306323,0,0,1,-4.3788708,0)" gradientUnits="userSpaceOnUse" id="linearGradient843" inkscape:collect="always" x1="142.94946" x2="164.06573" xlink:href="#linearGradient841" y1="41.693771" y2="41.693771"/>
 </defs>
 <sodipodi:namedview bordercolor="#666666" borderopacity="1" fit-margin-bottom="0" fit-margin-left="0" fit-margin-right="0" fit-margin-top="0" gridtolerance="10" guidetolerance="10" id="namedview3521" inkscape:current-layer="g3527" inkscape:cx="44.900284" inkscape:cy="23.276436" inkscape:document-rotation="0" inkscape:pageopacity="0" inkscape:pageshadow="2" inkscape:window-height="705" inkscape:window-maximized="1" inkscape:window-width="1366" inkscape:window-x="892" inkscape:window-y="-8" inkscape:zoom="6.183908" objecttolerance="10" pagecolor="#ffffff" showgrid="false"/>
 <g id="Image" inkscape:groupmode="layer" inkscape:label="Image" transform="translate(-12.343,-14.75)">
  <path d="m 12.343,41.543253 h 7.525512 l 9.633218,-9.633218 v -17.15917 h 69.539792 l 5.719728,8.128028 H 118.609 l 6.92387,9.33218 v 19.868512 l -6.3218,8.429065 H 103.25606 L 96.031142,73.754325 H 28.899654 L 17.610727,62.465398 H 12.343 Z" id="Main" inkscape:label="Main" sodipodi:nodetypes="cccccccccccccccc" style="opacity:1;fill:#3d4325;fill-opacity:1;stroke:none;stroke-width:1px;stroke-linecap:butt;stroke-linejoin:miter;stroke-opacity:1"/>
  <path d="m 56.144531,25.888672 v 3.011719 H 59.90625 V 39.886719 H 42.144531 c 0,3.437009 0,14.851527 0,17.761719 h 3.462891 V 43.349609 H 59.90625 c 0,3.713082 0,22.923063 0,26.492188 4.490791,0 22.377776,0 26.34175,0 0,-3.891332 3.4e-5,-20.346597 4.7e-5,-26.492188 h 16.255863 v 7.826172 h 3.46093 3.3125 v -2.708984 h -3.3125 V 35.070312 h 3.46289 v -2.708984 h -6.92382 c 0,2.872783 9e-5,5.632677 9e-5,7.828125 H 86.248047 V 25.888672 Z m 7.074219,3.011719 H 83.085938 V 66.378906 H 63.21875 Z" id="Path" inkscape:label="Path" sodipodi:nodetypes="ccccccccccccccccccccccccccccccc" style="fill:#919191;fill-opacity:1;stroke-width:7.55906;stroke-linecap:round;stroke-dashoffset:37.0394;stop-color:#000000"/>
  <path d="M 29.501953,14.75 V 31.609375 H 49.371094 V 14.75 Z M 125.5332,32.210938 v 19.86914 h 17.72657 v -19.86914 z" id="Platforms" inkscape:label="Platforms" style="display:inline;fill:#626e30;fill-opacity:1;stroke-width:7.55906;stroke-linecap:round;stroke-dashoffset:37.0394;stop-color:#000000"/>
  <path d="m 163.61418,28.297577 17.76125,-7.224913 17.76124,7.224913 v 26.641868 l -17.76124,7.224915 -17.76125,-7.224915 z" id="ShadowEntrance" inkscape:label="ShadowEntrance" style="fill:#342d1b;fill-opacity:1;stroke:none;stroke-width:1px;stroke-linecap:butt;stroke-linejoin:miter;stroke-opacity:1"/>
  <rect height="5.1176472" id="Stairs" inkscape:label="Stairs" style="display:inline;fill:url(#linearGradient843);fill-opacity:1;stroke:none;stroke-width:7.70948;stroke-linecap:round;stroke-dashoffset:37.0394;stop-color:#000000" width="21.763119" x="142.94946" y="39.134949"/>
  <path d="m 60.640625,21.345703 v 3.234375 h 2.912109 v -3.234375 z m 5.353516,0 v 3.234375 h 2.910156 v -3.234375 z m 5.375,0 v 3.234375 h 2.910156 v -3.234375 z m 5.271484,0 v 3.234375 h 2.912109 v -3.234375 z m 5.394531,0 v 3.234375 h 2.910156 v -3.234375 z m 5.982422,7.398438 v 2.910156 h 3.234375 v -2.910156 z m 22.330082,3.486328 v 2.910156 h 3.23437 v -2.910156 z m -22.330082,1.867187 v 2.910156 h 3.234375 v -2.910156 z m -22.5,5.222656 v 2.91211 h 3.234375 v -2.91211 z m 22.5,7.140626 v 2.910156 h 3.234375 v -2.910156 z m 22.330082,1.810546 v 2.910157 h 3.23437 v -2.910157 z m -44.830082,1.736328 v 2.910157 h 3.234375 v -2.910157 z m 0,5.3125 v 2.91211 h 3.234375 v -2.91211 z m 22.5,1.78711 v 2.912109 h 3.234375 v -2.912109 z m -22.5,3.55664 v 2.910157 h 3.234375 v -2.910157 z m 22.5,1.796876 v 2.910156 h 3.234375 v -2.910156 z m 0,5.292968 v 2.91211 h 3.234375 v -2.91211 z" id="Graves" inkscape:label="Graves" style="fill:#6e6e6e;fill-opacity:1;stroke-width:1px;stop-color:#000000"/>
  <rect height="3.2342007" id="GraveRedead" inkscape:label="GraveRedead" style="fill:#6e6e6e;fill-opacity:1;stroke:#ffffff;stroke-width:0.5;stroke-miterlimit:4;stroke-dasharray:none;stroke-opacity:1;stop-color:#000000" transform="rotate(90)" width="2.9107807" x="51.832016" y="-91.251778"/>
  <rect height="3.2342007" id="GraveShield" inkscape:label="GraveShield" style="fill:#6e6e6e;fill-opacity:1;stroke:#ffffff;stroke-width:0.5;stroke-miterlimit:4;stroke-dasharray:none;stroke-opacity:1;stop-color:#000000" transform="rotate(90)" width="2.9107807" x="44.673462" y="-68.751953"/>
  <rect height="3.2342007" id="GraveDampe" inkscape:label="GraveDampe" style="fill:#6e6e6e;fill-opacity:1;stroke:#ffffff;stroke-width:0.5;stroke-miterlimit:4;stroke-dasharray:none;stroke-opacity:1;stop-color:#000000" width="2.9107807" x="55.329609" y="21.345877"/>
  <path d="m 114.08643,37.67844 6.3067,0.80855 v 6.549257 l -6.3067,0.80855 z" id="RoyalFamily" inkscape:label="RoyalFamily" sodipodi:nodetypes="ccccc" style="fill:#6e6e6e;fill-opacity:1;stroke:#ffffff;stroke-width:0.5;stroke-miterlimit:4;stroke-dasharray:none;stroke-opacity:1;stop-color:#000000"/>
  <circle cx="35.085564" cy="23.262081" id="check:Graveyard_Freestanding_PoH" inkscape:label="check:Graveyard_Freestanding_PoH" r="0.75" style="fill:#000000;stroke-width:8.86005;stop-color:#000000"/>
  <circle cx="56.004711" cy="22.188662" id="check:Graveyard_Dampe_Race_Freestanding_PoH" inkscape:label="check:Graveyard_Dampe_Race_Freestanding_PoH" r="0.75" style="fill:#000000;stroke-width:8.86005;stop-color:#000000"/>
  <circle cx="57.298389" cy="23.320633" id="check:Graveyard_Hookshot_Chest" inkscape:label="check:Graveyard_Hookshot_Chest" r="0.75" style="fill:#000000;stroke-width:8.86005;stop-color:#000000"/>
  <circle cx="67.162697" cy="46.121746" id="check:Graveyard_Shield_Grave_Chest" inkscape:label="check:Graveyard_Shield_Grave_Chest" r="0.75" style="fill:#000000;stroke-width:8.86005;stop-color:#000000"/>
  <circle cx="89.640396" cy="53.236992" id="check:Graveyard_Heart_Piece_Grave_Chest" inkscape:label="check:Graveyard_Heart_Piece_Grave_Chest" r="0.75" style="fill:#000000;stroke-width:8.86005;stop-color:#000000"/>
  <circle cx="116.48431" cy="40.785316" id="check:Song_from_Composers_Grave" inkscape:label="check:Song_from_Composers_Grave" r="0.75" style="fill:#ff0000;stroke-width:8.86005;stop-color:#000000"/>
  <circle cx="117.93964" cy="42.564125" id="check:Graveyard_Composers_Grave_Chest" inkscape:label="check:Graveyard_Composers_Grave_Chest" r="0.75" style="fill:#000000;stroke-width:8.86005;stop-color:#000000"/>
  <circle cx="51.47683" cy="23.320633" id="check:Graveyard_GS_Bean_Patch" inkscape:label="check:Graveyard_GS_Bean_Patch" r="0.75" style="fill:#ffffff;stroke-width:8.86005;stop-color:#000000"/>
  <circle cx="89.478691" cy="72.803902" id="check:Graveyard_GS_Wall" inkscape:label="check:Graveyard_GS_Wall" r="0.75" style="fill:#ffffff;stroke-width:8.86005;stop-color:#000000"/>
  <circle cx="61.502853" cy="54.368958" id="check:Graveyard_Dampe_Gravedigging_Tour" inkscape:label="check:Graveyard_Dampe_Gravedigging_Tour" r="0.75" style="fill:#000000;stroke-width:8.86005;stop-color:#000000"/>
 </g>
</svg>